{
.appVersion = "923";
DisplayStrings = (
/increment
);
classes = (
{
automatic = 1;

glyphs = (
{
glyphname = A;
layers = (
{
anchors = (
{
name = bottom;
position = "{308, 0}";
},
{
name = ogonek;
position = "{562, 0}";
},
{
name = top;
position = "{308, 700}";
}
);
layerId = UUID0;
paths = (
{
closed = 1;
nodes = (
"458 275 LINE",
"158 275 LINE",
"158 189 LINE",
"458 189 LINE"
);
},
{
closed = 1;
nodes = (
"509 0 LINE",
"609 0 LINE",
"358 700 LINE",
"258 700 LINE",
"7 0 LINE",
"107 0 LINE",
"322 607 LINE",
"294 607 LINE"
);
}
);
width = 616;
},
{
anchors = (
{
name = bottom;
position = "{313, 0}";
},
{
name = ogonek;
position = "{557, 0}";
},
{
name = top;
position = "{313, 700}";
}
);
layerId = "7C863538-AAB4-42AD-A9FE-7240E615272A";
paths = (
{
closed = 1;
nodes = (
"459 278 LINE",
"166 278 LINE",
"166 166 LINE",
"459 166 LINE"
);
},
{
closed = 1;
nodes = (
"498 0 LINE",
"622 0 LINE",
"373 700 LINE",
"252 700 LINE",
"3 0 LINE",
"127 0 LINE",
"329 575 LINE",
"296 575 LINE"
);
}
);
width = 625;
},
{
anchors = (
{
name = bottom;
position = "{308, 0}";
},
{
name = ogonek;
position = "{554, 10}";
},
{
name = top;
position = "{308, 700}";
}
);
associatedMasterId = UUID0;
layerId = "CE7DA8FC-F9D8-4CA8-895E-D8679BFEF1F0";
name = "Regular Sep 7 16, 14:04";
paths = (
{
closed = 1;
nodes = (
"107 0 LINE",
"174 189 LINE",
"442 189 LINE",
"509 0 LINE",
"609 0 LINE",
"358 700 LINE",
"258 700 LINE",
"7 0 LINE"
);
},
{
closed = 1;
nodes = (
"308 567 LINE",
"412 275 LINE",
"204 275 LINE"
);
}
);
width = 616;
},
{
anchors = (
{
name = bottom;
position = "{313, 0}";
},
{
name = ogonek;
position = "{562, 10}";
},
{
name = top;
position = "{313, 700}";
}
);
associatedMasterId = "7C863538-AAB4-42AD-A9FE-7240E615272A";
layerId = "CD5E817D-54ED-444E-B7C3-DBC41A33A319";
name = "Bold Sep 7 16, 14:04";
paths = (
{
closed = 1;
nodes = (
"136 0 LINE",
"196 169 LINE",
"429 169 LINE",
"489 0 LINE",
"622 0 LINE",
"373 700 LINE",
"252 700 LINE",
"3 0 LINE"
);
},
{
closed = 1;
nodes = (
"312 498 LINE",
"385 293 LINE",
"240 293 LINE"
);
}
);
width = 625;
},
{
anchors = (
{
name = bottom;
position = "{271, 0}";
},
{
name = ogonek;
position = "{483, 0}";
},
{
name = top;
position = "{271, 700}";
}
);
layerId = "A616F07E-65DE-4D07-A020-83605E49AA22";
paths = (
{
closed = 1;
nodes = (
"395 275 LINE",
"145 275 LINE",
"145 189 LINE",
"395 189 LINE"
);
},
{
closed = 1;
nodes = (
"434 0 LINE",
"532 0 LINE",
"317 700 LINE",
"223 700 LINE",
"8 0 LINE",
"106 0 LINE",
"285 608 LINE",
"255 608 LINE"
);
}
);
width = 540;
},
{
anchors = (
{
name = bottom;
position = "{267, 0}";
},
{
name = ogonek;
position = "{476, 0}";
},
{
name = top;
position = "{267, 700}";
}
);
layerId = "3AF73D1F-32CE-4CF3-BC01-E4A23F7DE30A";
paths = (
{
closed = 1;
nodes = (
"397 279 LINE",
"138 279 LINE",
"138 167 LINE",
"397 167 LINE"
);
},
{
closed = 1;
nodes = (
"415 0 LINE",
"537 0 LINE",
"323 700 LINE",
"211 700 LINE",
"-2 0 LINE",
"120 0 LINE",
"278 554 LINE",
"256 554 LINE"
);
}
);
width = 535;
},
{
anchors = (
{
name = bottom;
position = "{270, 0}";
},
{
name = ogonek;
position = "{485, 10}";
},
{
name = top;
position = "{270, 700}";
}
);
associatedMasterId = "A616F07E-65DE-4D07-A020-83605E49AA22";
layerId = "36A3A05C-5414-4977-885C-6A74DCD49D8E";
name = "Condensed Sep 19 16, 18:47";
paths = (
{
closed = 1;
nodes = (
"105 0 LINE",
"160 189 LINE",
"378 189 LINE",
"433 0 LINE",
"531 0 LINE",
"316 700 LINE",
"222 700 LINE",
"7 0 LINE"
);
},
{
closed = 1;
nodes = (
"269 567 LINE",
"347 275 LINE",
"191 275 LINE"
);
}
);
width = 539;
visible = 1;
},
{
anchors = (
{
name = bottom;
position = "{268, 0}";
},
{
name = ogonek;
position = "{482, 10}";
},
{
name = top;
position = "{268, 700}";
}
);
associatedMasterId = "3AF73D1F-32CE-4CF3-BC01-E4A23F7DE30A";
layerId = "283918FD-D5E2-4BFF-8492-3976E125C962";
name = "Bold Condensed Sep 19 16, 18:47";
paths = (
{
closed = 1;
nodes = (
"126 0 LINE",
"175 169 LINE",
"362 169 LINE",
"411 0 LINE",
"538 0 LINE",
"324 700 LINE",
"212 700 LINE",
"-1 0 LINE"
);
},
{
closed = 1;
nodes = (
"268 498 LINE",
"319 293 LINE",
"218 293 LINE"
);
}
);
width = 536;
}
);
leftKerningGroup = A;
rightKerningGroup = A;
unicode = 0041;
},
{
glyphname = AE;
layers = (
{
anchors = (
{
name = bottom;
position = "{433, 0}";
},
{
name = top;
position = "{577, 700}";
}
);
layerId = UUID0;
paths = (
{
closed = 1;
nodes = (
"86 0 LINE",
"178 180 LINE",
"392 180 LINE",
"392 0 LINE",
"828 0 LINE",
"828 86 LINE",
"506 86 LINE",
"506 323 LINE",
"747 323 LINE",
"747 409 LINE",
"506 409 LINE",
"506 613 LINE",
"818 613 LINE",
"818 700 LINE",
"335 700 LINE",
"-7 0 LINE"
);
},
{
closed = 1;
nodes = (
"392 611 LINE",
"392 272 LINE",
"221 272 LINE"
);
}
);
width = 866;
},
{
anchors = (
{
name = bottom;
position = "{434.001, 0}";
},
{
name = top;
position = "{577, 700}";
}
);
layerId = "7C863538-AAB4-42AD-A9FE-7240E615272A";
paths = (
{
closed = 1;
nodes = (
"122 0 LINE",
"203 169 LINE",
"397 169 LINE",
"397 0 LINE",
"833 0 LINE",
"833 124 LINE",
"528 124 LINE",
"528 303 LINE",
"756 303 LINE",
"756 427 LINE",
"528 427 LINE",
"528 576 LINE",
"824 576 LINE",
"824 700 LINE",
"330 700 LINE",
"-11 0 LINE"
);
},
{
closed = 1;
nodes = (
"397 573 LINE",
"397 293 LINE",
"262 293 LINE"
);
}
);
width = 866;
},
{
anchors = (
{
name = bottom;
position = "{377, 0}";
},
{
name = top;
position = "{504, 700}";
}
);
layerId = "A616F07E-65DE-4D07-A020-83605E49AA22";
paths = (
{
closed = 1;
nodes = (
"341 0 LINE",
"724 0 LINE",
"724 84 LINE",
"433 84 LINE",
"433 324 LINE",
"656 324 LINE",
"656 408 LINE",
"433 408 LINE",
"433 616 LINE",
"716 616 LINE",
"716 700 LINE",
"291 700 LINE",
"-5 0 LINE",
"92 0 LINE",
"341 595 LINE"
);
},
{
closed = 1;
nodes = (
"391 271 LINE",
"134 271 LINE",
"134 185 LINE",
"391 185 LINE"
);
}
);
width = 753;
},
{
anchors = (
{
name = bottom;
position = "{392, 0}";
},
{
name = top;
position = "{515, 700}";
}
);
layerId = "3AF73D1F-32CE-4CF3-BC01-E4A23F7DE30A";
paths = (
{
closed = 1;
nodes = (
"352 0 LINE",
"754 0 LINE",
"754 112 LINE",
"474 112 LINE",
"474 311 LINE",
"683 311 LINE",
"683 423 LINE",
"474 423 LINE",
"474 588 LINE",
"745 588 LINE",
"745 700 LINE",
"285 700 LINE",
"-8 0 LINE",
"120 0 LINE",
"352 573 LINE"
);
},
{
closed = 1;
nodes = (
"406 288 LINE",
"160 288 LINE",
"160 176 LINE",
"406 176 LINE"
);
}
);
width = 783;
},
{
associatedMasterId = "A616F07E-65DE-4D07-A020-83605E49AA22";
layerId = "E621BB19-D0A3-4EF4-88B9-44F327ACDFC8";
name = "Condensed Sep 21 16, 21:06";
paths = (
{
closed = 1;
nodes = (
"89 0 LINE",
"165 180 LINE",
"341 180 LINE",
"341 0 LINE",
"716 0 LINE",
"716 86 LINE",
"446 86 LINE",
"446 323 LINE",
"648 323 LINE",
"648 409 LINE",
"446 409 LINE",
"446 613 LINE",
"708 613 LINE",
"708 700 LINE",
"289 700 LINE",
"-5 0 LINE"
);
},
{
closed = 1;
nodes = (
"341 611 LINE",
"341 272 LINE",
"207 272 LINE"
);
}
);
width = 745;
},
{
associatedMasterId = "3AF73D1F-32CE-4CF3-BC01-E4A23F7DE30A";
layerId = "284DCDCC-4F99-42AC-B2BA-637E09369861";
name = "Bold Condensed Sep 21 16, 21:06";
paths = (
{
closed = 1;
nodes = (
"116 0 LINE",
"182 169 LINE",
"341 169 LINE",
"341 0 LINE",
"716 0 LINE",
"716 124 LINE",
"460 124 LINE",
"460 303 LINE",
"651 303 LINE",
"651 427 LINE",
"460 427 LINE",
"460 576 LINE",
"709 576 LINE",
"709 700 LINE",
"280 700 LINE",
"-13 0 LINE"
);
},
{
closed = 1;
nodes = (
"341 573 LINE",
"341 293 LINE",
"238 293 LINE"
);
}
);
width = 745;
},
{
associatedMasterId = "A616F07E-65DE-4D07-A020-83605E49AA22";
components = (
{
name = E;
transform = "{1, 0, 0, 1, 275, 0}";
}
);
layerId = "B742A8D6-AAF3-4AE6-BB9F-A48898BD77FB";
name = "Condensed Sep 21 16, 21:07";
paths = (
{
closed = 1;
nodes = (
"341 0 LINE",
"718 0 LINE",
"718 86 LINE",
"433 86 LINE",
"433 323 LINE",
"637 323 LINE",
"637 409 LINE",
"433 409 LINE",
"433 613 LINE",
"708 613 LINE",
"708 700 LINE",
"284 700 LINE",
"-5 0 LINE",
"88 0 LINE",
"341 611 LINE"
);
},
{
closed = 1;
nodes = (
"410 272 LINE",
"164 272 LINE",
"164 180 LINE",
"410 180 LINE"
);
}
);
width = 745;
},
{
associatedMasterId = "3AF73D1F-32CE-4CF3-BC01-E4A23F7DE30A";
components = (
{
name = E;
transform = "{1, 0, 0, 1, 281, 0}";
}
);
layerId = "5DAFDAAD-9D64-48F1-B187-AF936702C6D1";
name = "Bold Condensed Sep 21 16, 21:11";
paths = (
{
closed = 1;
nodes = (
"411 293 LINE",
"185 293 LINE",
"185 169 LINE",
"411 169 LINE"
);
}
);
width = 745;
visible = 1;
}
);
rightKerningGroup = E;
rightMetricsKey = E;
unicode = 00C6;
},
{
glyphname = B;
layers = (
{
layerId = UUID0;
paths = (
{
closed = 1;
nodes = (
"344 0 LINE SMOOTH",
"483 0 OFFCURVE",
"567 77 OFFCURVE",
"567 200 CURVE SMOOTH",
"567 306 OFFCURVE",
"511 368 OFFCURVE",
"414 384 CURVE",
"400 368 LINE",
"468 386 OFFCURVE",
"502 451 OFFCURVE",
"502 529 CURVE SMOOTH",
"502 644 OFFCURVE",
"426 700 OFFCURVE",
"301 700 CURVE SMOOTH",
"80 700 LINE",
"80 0 LINE"
);
},
{
closed = 1;
nodes = (
"175 323 LINE",
"336 323 LINE SMOOTH",
"411 323 OFFCURVE",
"463 291 OFFCURVE",
"463 203 CURVE SMOOTH",
"463 124 OFFCURVE",
"413 86 OFFCURVE",
"336 86 CURVE SMOOTH",
"175 86 LINE"
);
},
{
closed = 1;
nodes = (
"175 615 LINE",
"289 615 LINE SMOOTH",
"357 615 OFFCURVE",
"404 594 OFFCURVE",
"404 512 CURVE SMOOTH",
"404 429 OFFCURVE",
"357 409 OFFCURVE",
"289 409 CURVE SMOOTH",
"175 409 LINE"
);
}
);
width = 597;
},
{
layerId = "7C863538-AAB4-42AD-A9FE-7240E615272A";
paths = (
{
closed = 1;
nodes = (
"369 0 LINE SMOOTH",
"510 0 OFFCURVE",
"597 73 OFFCURVE",
"597 199 CURVE SMOOTH",
"597 304 OFFCURVE",
"542 368 OFFCURVE",
"430 392 CURVE",
"430 368 LINE",
"504 393 OFFCURVE",
"541 449 OFFCURVE",
"541 531 CURVE SMOOTH",
"541 641 OFFCURVE",
"476 700 OFFCURVE",
"341 700 CURVE SMOOTH",
"77 700 LINE",
"77 0 LINE"
);
},
{
closed = 1;
nodes = (
"205 311 LINE",
"350 311 LINE SMOOTH",
"415 311 OFFCURVE",
"465 289 OFFCURVE",
"465 213 CURVE SMOOTH",
"465 138 OFFCURVE",
"420 114 OFFCURVE",
"350 114 CURVE SMOOTH",
"205 114 LINE"
);
},
{
closed = 1;
nodes = (
"205 586 LINE",
"322 586 LINE SMOOTH",
"384 586 OFFCURVE",
"415 563 OFFCURVE",
"415 505 CURVE SMOOTH",
"415 449 OFFCURVE",
"384 425 OFFCURVE",
"322 425 CURVE SMOOTH",
"205 425 LINE"
);
}
);
width = 626;
},
{
associatedMasterId = UUID0;
layerId = "03AC80BF-29AF-4696-B368-D84669897041";
name = "Regular Sep 7 16, 14:04";
paths = (
{
closed = 1;
nodes = (
"320 0 LINE SMOOTH",
"435 0 OFFCURVE",
"562 29 OFFCURVE",
"562 208 CURVE SMOOTH",
"562 283 OFFCURVE",
"536 338 OFFCURVE",
"445 373 CURVE",
"499 429 OFFCURVE",
"502 468 OFFCURVE",
"502 527 CURVE SMOOTH",
"502 675 OFFCURVE",
"402 700 OFFCURVE",
"238 700 CURVE SMOOTH",
"80 700 LINE",
"80 0 LINE"
);
},
{
closed = 1;
nodes = (
"175 323 LINE",
"323 323 LINE SMOOTH",
"397 323 OFFCURVE",
"463 301 OFFCURVE",
"463 199 CURVE SMOOTH",
"463 98 OFFCURVE",
"388 86 OFFCURVE",
"273 86 CURVE SMOOTH",
"175 86 LINE"
);
},
{
closed = 1;
nodes = (
"175 615 LINE",
"265 615 LINE SMOOTH",
"342 615 OFFCURVE",
"404 608 OFFCURVE",
"404 520 CURVE SMOOTH",
"404 415 OFFCURVE",
"349 409 OFFCURVE",
"293 409 CURVE SMOOTH",
"175 409 LINE"
);
}
);
width = 597;
},
{
associatedMasterId = "7C863538-AAB4-42AD-A9FE-7240E615272A";
layerId = "874F906E-7ABA-4444-9E3E-82CE4F5599DB";
name = "Bold Sep 7 16, 14:04";
paths = (
{
closed = 1;
nodes = (
"347 0 LINE SMOOTH",
"464 0 OFFCURVE",
"597 44 OFFCURVE",
"597 206 CURVE SMOOTH",
"597 295 OFFCURVE",
"556 343 OFFCURVE",
"475 374 CURVE",
"516 408 OFFCURVE",
"534 457 OFFCURVE",
"534 520 CURVE SMOOTH",
"534 675 OFFCURVE",
"427 700 OFFCURVE",
"266 700 CURVE SMOOTH",
"77 700 LINE",
"77 0 LINE"
);
},
{
closed = 1;
nodes = (
"205 318 LINE",
"338 318 LINE SMOOTH",
"410 318 OFFCURVE",
"465 294 OFFCURVE",
"465 213 CURVE SMOOTH",
"465 134 OFFCURVE",
"413 109 OFFCURVE",
"331 109 CURVE SMOOTH",
"205 109 LINE"
);
},
{
closed = 1;
nodes = (
"205 591 LINE",
"318 591 LINE SMOOTH",
"377 591 OFFCURVE",
"415 574 OFFCURVE",
"415 501 CURVE SMOOTH",
"415 434 OFFCURVE",
"366 419 OFFCURVE",
"330 419 CURVE SMOOTH",
"205 419 LINE"
);
}
);
width = 626;
},
{
layerId = "A616F07E-65DE-4D07-A020-83605E49AA22";
paths = (
{
closed = 1;
nodes = (
"293 0 LINE SMOOTH",
"418 0 OFFCURVE",
"494 77 OFFCURVE",
"494 200 CURVE SMOOTH",
"494 308 OFFCURVE",
"437 369 OFFCURVE",
"341 388 CURVE",
"341 358 LINE",
"410 377 OFFCURVE",
"444 445 OFFCURVE",
"444 528 CURVE SMOOTH",
"444 644 OFFCURVE",
"371 700 OFFCURVE",
"250 700 CURVE SMOOTH",
"66 700 LINE",
"66 0 LINE"
);
},
{
closed = 1;
nodes = (
"158 324 LINE",
"285 324 LINE SMOOTH",
"351 324 OFFCURVE",
"394 292 OFFCURVE",
"394 203 CURVE SMOOTH",
"394 123 OFFCURVE",
"351 84 OFFCURVE",
"285 84 CURVE SMOOTH",
"158 84 LINE"
);
},
{
closed = 1;
nodes = (
"158 616 LINE",
"238 616 LINE SMOOTH",
"315 616 OFFCURVE",
"346 593 OFFCURVE",
"346 514 CURVE SMOOTH",
"346 431 OFFCURVE",
"315 408 OFFCURVE",
"238 408 CURVE SMOOTH",
"158 408 LINE"
);
}
);
width = 532;
},
{
layerId = "3AF73D1F-32CE-4CF3-BC01-E4A23F7DE30A";
paths = (
{
closed = 1;
nodes = (
"328 0 LINE SMOOTH",
"451 0 OFFCURVE",
"527 73 OFFCURVE",
"527 199 CURVE SMOOTH",
"527 301 OFFCURVE",
"476 363 OFFCURVE",
"385 387 CURVE",
"385 363 LINE",
"442 389 OFFCURVE",
"471 446 OFFCURVE",
"471 531 CURVE SMOOTH",
"471 641 OFFCURVE",
"415 700 OFFCURVE",
"300 700 CURVE SMOOTH",
"66 700 LINE",
"66 0 LINE"
);
},
{
closed = 1;
nodes = (
"188 313 LINE",
"306 313 LINE SMOOTH",
"360 313 OFFCURVE",
"401 290 OFFCURVE",
"401 211 CURVE SMOOTH",
"401 136 OFFCURVE",
"364 112 OFFCURVE",
"306 112 CURVE SMOOTH",
"188 112 LINE"
);
},
{
closed = 1;
nodes = (
"188 588 LINE",
"278 588 LINE SMOOTH",
"327 588 OFFCURVE",
"351 564 OFFCURVE",
"351 505 CURVE SMOOTH",
"351 448 OFFCURVE",
"327 423 OFFCURVE",
"278 423 CURVE SMOOTH",
"188 423 LINE"
);
}
);
width = 563;
},
{
associatedMasterId = "A616F07E-65DE-4D07-A020-83605E49AA22";
layerId = "601A30DA-FC8E-4451-987D-8A1149943089";
name = "Condensed Sep 19 16, 18:47";
paths = (
{
closed = 1;
nodes = (
"269 0 LINE SMOOTH",
"369 0 OFFCURVE",
"480 29 OFFCURVE",
"480 208 CURVE SMOOTH",
"480 283 OFFCURVE",
"452 338 OFFCURVE",
"378 373 CURVE",
"420 429 OFFCURVE",
"428 468 OFFCURVE",
"428 527 CURVE SMOOTH",
"428 675 OFFCURVE",
"339 700 OFFCURVE",
"199 700 CURVE SMOOTH",
"52 700 LINE",
"52 0 LINE"
);
},
{
closed = 1;
nodes = (
"146 323 LINE",
"267 323 LINE SMOOTH",
"330 323 OFFCURVE",
"383 301 OFFCURVE",
"383 199 CURVE SMOOTH",
"383 98 OFFCURVE",
"327 86 OFFCURVE",
"240 86 CURVE SMOOTH",
"146 86 LINE"
);
},
{
closed = 1;
nodes = (
"146 615 LINE",
"231 615 LINE SMOOTH",
"291 615 OFFCURVE",
"336 608 OFFCURVE",
"336 520 CURVE SMOOTH",
"336 415 OFFCURVE",
"291 409 OFFCURVE",
"250 409 CURVE SMOOTH",
"146 409 LINE"
);
}
);
width = 525;
},
{
associatedMasterId = "3AF73D1F-32CE-4CF3-BC01-E4A23F7DE30A";
layerId = "4461AD06-8FCF-4A0A-BD29-6CA7F197F86D";
name = "Bold Condensed Sep 19 16, 18:47";
paths = (
{
closed = 1;
nodes = (
"285 0 LINE SMOOTH",
"387 0 OFFCURVE",
"503 44 OFFCURVE",
"503 206 CURVE SMOOTH",
"503 295 OFFCURVE",
"462 343 OFFCURVE",
"397 374 CURVE",
"427 408 OFFCURVE",
"448 457 OFFCURVE",
"448 520 CURVE SMOOTH",
"448 675 OFFCURVE",
"353 700 OFFCURVE",
"216 700 CURVE SMOOTH",
"42 700 LINE",
"42 0 LINE"
);
},
{
closed = 1;
nodes = (
"164 318 LINE",
"273 318 LINE SMOOTH",
"334 318 OFFCURVE",
"378 294 OFFCURVE",
"378 213 CURVE SMOOTH",
"378 134 OFFCURVE",
"341 109 OFFCURVE",
"283 109 CURVE SMOOTH",
"164 109 LINE"
);
},
{
closed = 1;
nodes = (
"164 591 LINE",
"270 591 LINE SMOOTH",
"314 591 OFFCURVE",
"338 574 OFFCURVE",
"338 501 CURVE SMOOTH",
"338 434 OFFCURVE",
"298 419 OFFCURVE",
"274 419 CURVE SMOOTH",
"164 419 LINE"
);
}
);
width = 550;
visible = 1;
}
);
leftKerningGroup = I;
leftMetricsKey = H;
unicode = 0042;
},
{
glyphname = C;
layers = (
{
anchors = (
{
name = bottom;
position = "{383, 0}";
},
{
name = top;
position = "{376, 700}";
}
);
layerId = UUID0;
paths = (
{
closed = 1;
nodes = (
"471 -14 OFFCURVE",
"533 3 OFFCURVE",
"583 26 CURVE",
"573 114 LINE",
"520 88 OFFCURVE",
"462 72 OFFCURVE",
"393 72 CURVE SMOOTH",
"229 72 OFFCURVE",
"143 195 OFFCURVE",
"143 350 CURVE SMOOTH",
"143 505 OFFCURVE",
"230 628 OFFCURVE",
"395 628 CURVE SMOOTH",
"462 628 OFFCURVE",
"523 609 OFFCURVE",
"573 585 CURVE",
"583 673 LINE",
"534 697 OFFCURVE",
"467 714 OFFCURVE",
"396 714 CURVE SMOOTH",
"190 714 OFFCURVE",
"39 572 OFFCURVE",
"39 350 CURVE SMOOTH",
"39 128 OFFCURVE",
"188 -14 OFFCURVE",
"392 -14 CURVE SMOOTH"
);
}
);
width = 616;
},
{
anchors = (
{
name = bottom;
position = "{374, 0}";
},
{
name = top;
position = "{373, 700}";
}
);
layerId = "7C863538-AAB4-42AD-A9FE-7240E615272A";
paths = (
{
closed = 1;
nodes = (
"462 -14 OFFCURVE",
"526 2 OFFCURVE",
"579 27 CURVE",
"565 149 LINE",
"511 125 OFFCURVE",
"461 109 OFFCURVE",
"394 109 CURVE SMOOTH",
"249 109 OFFCURVE",
"175 210 OFFCURVE",
"175 350 CURVE SMOOTH",
"175 490 OFFCURVE",
"250 591 OFFCURVE",
"397 591 CURVE SMOOTH",
"463 591 OFFCURVE",
"514 574 OFFCURVE",
"565 551 CURVE",
"579 673 LINE",
"534 696 OFFCURVE",
"472 714 OFFCURVE",
"398 714 CURVE SMOOTH",
"187 714 OFFCURVE",
"35 570 OFFCURVE",
"35 350 CURVE SMOOTH",
"35 130 OFFCURVE",
"181 -14 OFFCURVE",
"394 -14 CURVE SMOOTH"
);
}
);
width = 609;
},
{
associatedMasterId = UUID0;
layerId = "C18EE6DC-633D-41E1-A253-90C8CBF88A98";
name = "Regular Sep 7 16, 14:04";
paths = (
{
closed = 1;
nodes = (
"460 -14 OFFCURVE",
"532 3 OFFCURVE",
"583 26 CURVE",
"573 114 LINE",
"518 95 OFFCURVE",
"461 72 OFFCURVE",
"391 72 CURVE SMOOTH",
"228 72 OFFCURVE",
"143 195 OFFCURVE",
"143 350 CURVE SMOOTH",
"143 505 OFFCURVE",
"228 628 OFFCURVE",
"389 628 CURVE SMOOTH",
"461 628 OFFCURVE",
"518 604 OFFCURVE",
"573 585 CURVE",
"583 673 LINE",
"535 696 OFFCURVE",
"460 714 OFFCURVE",
"389 714 CURVE SMOOTH",
"187 714 OFFCURVE",
"39 572 OFFCURVE",
"39 350 CURVE SMOOTH",
"39 128 OFFCURVE",
"187 -14 OFFCURVE",
"390 -14 CURVE SMOOTH"
);
}
);
width = 616;
},
{
associatedMasterId = "7C863538-AAB4-42AD-A9FE-7240E615272A";
layerId = "8A384D28-507D-4559-BB71-F27231FB4BE6";
name = "Bold Sep 7 16, 14:04";
paths = (
{
closed = 1;
nodes = (
"453 -14 OFFCURVE",
"528 2 OFFCURVE",
"579 27 CURVE",
"565 149 LINE",
"507 126 OFFCURVE",
"453 109 OFFCURVE",
"380 109 CURVE SMOOTH",
"244 109 OFFCURVE",
"175 210 OFFCURVE",
"175 350 CURVE SMOOTH",
"175 490 OFFCURVE",
"244 591 OFFCURVE",
"380 591 CURVE SMOOTH",
"453 591 OFFCURVE",
"507 574 OFFCURVE",
"565 551 CURVE",
"579 673 LINE",
"528 698 OFFCURVE",
"453 714 OFFCURVE",
"380 714 CURVE SMOOTH",
"180 714 OFFCURVE",
"35 570 OFFCURVE",
"35 350 CURVE SMOOTH",
"35 130 OFFCURVE",
"180 -14 OFFCURVE",
"380 -14 CURVE"
);
}
);
width = 609;
},
{
anchors = (
{
name = bottom;
position = "{332, 0}";
},
{
name = top;
position = "{335, 700}";
}
);
layerId = "A616F07E-65DE-4D07-A020-83605E49AA22";
paths = (
{
closed = 1;
nodes = (
"412 -14 OFFCURVE",
"459 -3 OFFCURVE",
"498 14 CURVE",
"488 100 LINE",
"451 81 OFFCURVE",
"411 70 OFFCURVE",
"365 70 CURVE SMOOTH",
"212 70 OFFCURVE",
"132 194 OFFCURVE",
"132 350 CURVE SMOOTH",
"132 506 OFFCURVE",
"212 630 OFFCURVE",
"364 630 CURVE SMOOTH",
"411 630 OFFCURVE",
"450 617 OFFCURVE",
"488 598 CURVE",
"498 684 LINE",
"457 701 OFFCURVE",
"408 714 OFFCURVE",
"346 714 CURVE SMOOTH",
"163 714 OFFCURVE",
"30 572 OFFCURVE",
"30 350 CURVE SMOOTH",
"30 128 OFFCURVE",
"155 -14 OFFCURVE",
"350 -14 CURVE SMOOTH"
);
}
);
width = 524;
},
{
anchors = (
{
name = bottom;
position = "{348, 0}";
},
{
name = top;
position = "{329, 700}";
}
);
layerId = "3AF73D1F-32CE-4CF3-BC01-E4A23F7DE30A";
paths = (
{
closed = 1;
nodes = (
"402 -14 OFFCURVE",
"458 -1 OFFCURVE",
"498 19 CURVE",
"484 141 LINE",
"443 123 OFFCURVE",
"407 109 OFFCURVE",
"356 109 CURVE SMOOTH",
"236 109 OFFCURVE",
"164 200 OFFCURVE",
"164 350 CURVE SMOOTH",
"164 500 OFFCURVE",
"236 591 OFFCURVE",
"357 591 CURVE SMOOTH",
"407 591 OFFCURVE",
"443 577 OFFCURVE",
"484 559 CURVE",
"498 681 LINE",
"457 700 OFFCURVE",
"405 714 OFFCURVE",
"341 714 CURVE SMOOTH",
"163 714 OFFCURVE",
"30 575 OFFCURVE",
"30 350 CURVE SMOOTH",
"30 125 OFFCURVE",
"164 -14 OFFCURVE",
"339 -14 CURVE SMOOTH"
);
}
);
width = 524;
},
{
associatedMasterId = "A616F07E-65DE-4D07-A020-83605E49AA22";
layerId = "D6255B8F-063F-40DE-BEFD-8D15E84F978D";
name = "Condensed Sep 19 16, 18:47";
paths = (
{
closed = 1;
nodes = (
"391 -14 OFFCURVE",
"454 3 OFFCURVE",
"498 26 CURVE",
"488 114 LINE",
"439 95 OFFCURVE",
"391 72 OFFCURVE",
"330 72 CURVE SMOOTH",
"200 72 OFFCURVE",
"132 195 OFFCURVE",
"132 350 CURVE SMOOTH",
"132 505 OFFCURVE",
"200 628 OFFCURVE",
"329 628 CURVE SMOOTH",
"391 628 OFFCURVE",
"439 604 OFFCURVE",
"488 585 CURVE",
"498 673 LINE",
"455 696 OFFCURVE",
"391 714 OFFCURVE",
"329 714 CURVE SMOOTH",
"156 714 OFFCURVE",
"30 572 OFFCURVE",
"30 350 CURVE SMOOTH",
"30 128 OFFCURVE",
"156 -14 OFFCURVE",
"330 -14 CURVE SMOOTH"
);
}
);
width = 524;
},
{
associatedMasterId = "3AF73D1F-32CE-4CF3-BC01-E4A23F7DE30A";
layerId = "686F58B5-3CDC-475F-BEF6-E71E12B9FDC0";
name = "Bold Condensed Sep 19 16, 18:47";
paths = (
{
closed = 1;
nodes = (
"388 -14 OFFCURVE",
"454 2 OFFCURVE",
"498 27 CURVE",
"484 149 LINE",
"433 126 OFFCURVE",
"388 109 OFFCURVE",
"324 109 CURVE SMOOTH",
"217 109 OFFCURVE",
"164 210 OFFCURVE",
"164 350 CURVE SMOOTH",
"164 490 OFFCURVE",
"217 591 OFFCURVE",
"325 591 CURVE SMOOTH",
"388 591 OFFCURVE",
"433 574 OFFCURVE",
"484 551 CURVE",
"498 673 LINE",
"453 698 OFFCURVE",
"388 714 OFFCURVE",
"325 714 CURVE SMOOTH",
"154 714 OFFCURVE",
"30 570 OFFCURVE",
"30 350 CURVE SMOOTH",
"30 130 OFFCURVE",
"154 -14 OFFCURVE",
"324 -14 CURVE SMOOTH"
);
}
);
width = 524;
visible = 1;
}
);
leftKerningGroup = O;
rightKerningGroup = C;
unicode = 0043;
},
{
glyphname = D;
layers = (
{
anchors = (
{
name = bottom;
position = "{364, 0}";
},
{
name = center;
position = "{364, 350}";
},
{
name = top;
position = "{364, 700}";
}
);
layerId = UUID0;
paths = (
{
closed = 1;
nodes = (
"339 0 LINE SMOOTH",
"542 0 OFFCURVE",
"687 129 OFFCURVE",
"687 350 CURVE SMOOTH",
"687 571 OFFCURVE",
"542 700 OFFCURVE",
"339 700 CURVE SMOOTH",
"80 700 LINE",
"80 0 LINE"
);
},
{
closed = 1;
nodes = (
"175 614 LINE",
"339 614 LINE SMOOTH",
"499 614 OFFCURVE",
"583 507 OFFCURVE",
"583 350 CURVE SMOOTH",
"583 193 OFFCURVE",
"499 86 OFFCURVE",
"339 86 CURVE SMOOTH",
"175 86 LINE"
);
}
);
width = 727;
},
{
anchors = (
{
name = bottom;
position = "{360, 0}";
},
{
name = center;
position = "{360, 350}";
},
{
name = top;
position = "{360, 700}";
}
);
layerId = "7C863538-AAB4-42AD-A9FE-7240E615272A";
paths = (
{
closed = 1;
nodes = (
"339 0 LINE SMOOTH",
"539 0 OFFCURVE",
"684 130 OFFCURVE",
"684 350 CURVE SMOOTH",
"684 570 OFFCURVE",
"539 700 OFFCURVE",
"339 700 CURVE SMOOTH",
"77 700 LINE",
"77 0 LINE"
);
},
{
closed = 1;
nodes = (
"205 586 LINE",
"339 586 LINE SMOOTH",
"475 586 OFFCURVE",
"544 496 OFFCURVE",
"544 350 CURVE SMOOTH",
"544 204 OFFCURVE",
"475 114 OFFCURVE",
"339 114 CURVE SMOOTH",
"205 114 LINE"
);
}
);
width = 720;
},
{
associatedMasterId = UUID0;
layerId = "20165BC8-972E-4D11-8594-1DACCCE03DAD";
name = "Regular Sep 7 16, 14:04";
paths = (
{
closed = 1;
nodes = (
"339 0 LINE SMOOTH",
"542 0 OFFCURVE",
"687 129 OFFCURVE",
"687 350 CURVE SMOOTH",
"687 571 OFFCURVE",
"542 700 OFFCURVE",
"339 700 CURVE SMOOTH",
"80 700 LINE",
"80 0 LINE"
);
},
{
closed = 1;
nodes = (
"175 614 LINE",
"339 614 LINE SMOOTH",
"499 614 OFFCURVE",
"583 507 OFFCURVE",
"583 350 CURVE SMOOTH",
"583 193 OFFCURVE",
"499 86 OFFCURVE",
"339 86 CURVE SMOOTH",
"175 86 LINE"
);
}
);
width = 727;
},
{
associatedMasterId = "7C863538-AAB4-42AD-A9FE-7240E615272A";
layerId = "0CD1B365-8845-4F30-8D31-56AB71C2AE76";
name = "Bold Sep 7 16, 14:04";
paths = (
{
closed = 1;
nodes = (
"339 0 LINE SMOOTH",
"539 0 OFFCURVE",
"684 130 OFFCURVE",
"684 350 CURVE SMOOTH",
"684 570 OFFCURVE",
"539 700 OFFCURVE",
"339 700 CURVE SMOOTH",
"77 700 LINE",
"77 0 LINE"
);
},
{
closed = 1;
nodes = (
"205 577 LINE",
"339 577 LINE SMOOTH",
"475 577 OFFCURVE",
"544 490 OFFCURVE",
"544 350 CURVE SMOOTH",
"544 210 OFFCURVE",
"475 123 OFFCURVE",
"339 123 CURVE SMOOTH",
"205 123 LINE"
);
}
);
width = 720;
},
{
anchors = (
{
name = bottom;
position = "{310, 0}";
},
{
name = top;
position = "{310, 700}";
}
);
layerId = "A616F07E-65DE-4D07-A020-83605E49AA22";
paths = (
{
closed = 1;
nodes = (
"290 0 LINE SMOOTH",
"463 0 OFFCURVE",
"588 129 OFFCURVE",
"588 350 CURVE SMOOTH",
"588 571 OFFCURVE",
"463 700 OFFCURVE",
"290 700 CURVE SMOOTH",
"66 700 LINE",
"66 0 LINE"
);
},
{
closed = 1;
nodes = (
"158 616 LINE",
"274 616 LINE SMOOTH",
"414 616 OFFCURVE",
"486 517 OFFCURVE",
"486 350 CURVE SMOOTH",
"486 183 OFFCURVE",
"414 84 OFFCURVE",
"274 84 CURVE SMOOTH",
"158 84 LINE"
);
}
);
width = 619;
},
{
anchors = (
{
name = bottom;
position = "{310, 0}";
},
{
name = top;
position = "{310, 700}";
}
);
layerId = "3AF73D1F-32CE-4CF3-BC01-E4A23F7DE30A";
paths = (
{
closed = 1;
nodes = (
"292 0 LINE SMOOTH",
"463 0 OFFCURVE",
"588 130 OFFCURVE",
"588 350 CURVE SMOOTH",
"588 570 OFFCURVE",
"463 700 OFFCURVE",
"292 700 CURVE SMOOTH",
"66 700 LINE",
"66 0 LINE"
);
},
{
closed = 1;
nodes = (
"188 588 LINE",
"292 588 LINE SMOOTH",
"400 588 OFFCURVE",
"454 497 OFFCURVE",
"454 350 CURVE SMOOTH",
"454 203 OFFCURVE",
"400 112 OFFCURVE",
"292 112 CURVE SMOOTH",
"188 112 LINE"
);
}
);
width = 619;
},
{
associatedMasterId = "A616F07E-65DE-4D07-A020-83605E49AA22";
layerId = "47B96380-44A1-4DFF-8796-B746D3EF49BF";
name = "Condensed Sep 19 16, 18:47";
paths = (
{
closed = 1;
nodes = (
"290 0 LINE SMOOTH",
"463 0 OFFCURVE",
"588 129 OFFCURVE",
"588 350 CURVE SMOOTH",
"588 571 OFFCURVE",
"463 700 OFFCURVE",
"290 700 CURVE SMOOTH",
"66 700 LINE",
"66 0 LINE"
);
},
{
closed = 1;
nodes = (
"160 614 LINE",
"290 614 LINE SMOOTH",
"419 614 OFFCURVE",
"486 507 OFFCURVE",
"486 350 CURVE SMOOTH",
"486 193 OFFCURVE",
"419 86 OFFCURVE",
"290 86 CURVE SMOOTH",
"160 86 LINE"
);
}
);
width = 619;
visible = 1;
},
{
associatedMasterId = "3AF73D1F-32CE-4CF3-BC01-E4A23F7DE30A";
layerId = "9503D9EE-491A-450D-AAAD-D91D6F0A6203";
name = "Bold Condensed Sep 19 16, 18:47";
paths = (
{
closed = 1;
nodes = (
"292 0 LINE SMOOTH",
"463 0 OFFCURVE",
"588 130 OFFCURVE",
"588 350 CURVE SMOOTH",
"588 570 OFFCURVE",
"463 700 OFFCURVE",
"292 700 CURVE SMOOTH",
"66 700 LINE",
"66 0 LINE"
);
},
{
closed = 1;
nodes = (
"188 577 LINE",
"292 577 LINE SMOOTH",
"400 577 OFFCURVE",
"454 490 OFFCURVE",
"454 350 CURVE SMOOTH",
"454 210 OFFCURVE",
"400 123 OFFCURVE",
"292 123 CURVE SMOOTH",
"188 123 LINE"
);
}
);
width = 619;
}
);
leftKerningGroup = I;
rightKerningGroup = D;
unicode = 0044;
},
{
glyphname = Eth;
layers = (
{
layerId = UUID0;
paths = (
{
closed = 1;
nodes = (
"344 0 LINE SMOOTH",
"545 0 OFFCURVE",
"689 129 OFFCURVE",
"689 350 CURVE SMOOTH",
"689 571 OFFCURVE",
"545 700 OFFCURVE",
"344 700 CURVE SMOOTH",
"88 700 LINE",
"88 397 LINE",
"18 397 LINE",
"18 313 LINE",
"88 313 LINE",
"88 0 LINE"
);
},
{
closed = 1;
nodes = (
"178 313 LINE",
"311 313 LINE",
"311 397 LINE",
"178 397 LINE",
"178 614 LINE",
"344 614 LINE SMOOTH",
"505 614 OFFCURVE",
"587 509 OFFCURVE",
"587 350 CURVE SMOOTH",
"587 191 OFFCURVE",
"505 87 OFFCURVE",
"344 87 CURVE SMOOTH",
"178 87 LINE"
);
}
);
width = 729;
},
{
layerId = "7C863538-AAB4-42AD-A9FE-7240E615272A";
paths = (
{
closed = 1;
nodes = (
"350 0 LINE SMOOTH",
"550 0 OFFCURVE",
"695 130 OFFCURVE",
"695 350 CURVE SMOOTH",
"695 570 OFFCURVE",
"550 700 OFFCURVE",
"350 700 CURVE SMOOTH",
"88 700 LINE",
"88 403 LINE",
"23 403 LINE",
"23 309 LINE",
"88 309 LINE",
"88 0 LINE"
);
},
{
closed = 1;
nodes = (
"216 309 LINE",
"338 309 LINE",
"338 403 LINE",
"216 403 LINE",
"216 577 LINE",
"350 577 LINE SMOOTH",
"486 577 OFFCURVE",
"555 490 OFFCURVE",
"555 350 CURVE SMOOTH",
"555 210 OFFCURVE",
"486 123 OFFCURVE",
"350 123 CURVE SMOOTH",
"216 123 LINE"
);
}
);
width = 731;
},
{
layerId = "A616F07E-65DE-4D07-A020-83605E49AA22";
paths = (
{
closed = 1;
nodes = (
"294 0 LINE SMOOTH",
"467 0 OFFCURVE",
"592 129 OFFCURVE",
"592 350 CURVE SMOOTH",
"592 571 OFFCURVE",
"467 700 OFFCURVE",
"294 700 CURVE SMOOTH",
"72 700 LINE",
"72 397 LINE",
"10 397 LINE",
"10 313 LINE",
"72 313 LINE",
"72 0 LINE"
);
},
{
closed = 1;
nodes = (
"164 313 LINE",
"283 313 LINE",
"283 397 LINE",
"164 397 LINE",
"164 616 LINE",
"278 616 LINE SMOOTH",
"418 616 OFFCURVE",
"490 517 OFFCURVE",
"490 350 CURVE SMOOTH",
"490 183 OFFCURVE",
"418 84 OFFCURVE",
"278 84 CURVE SMOOTH",
"164 84 LINE"
);
}
);
width = 623;
},
{
layerId = "3AF73D1F-32CE-4CF3-BC01-E4A23F7DE30A";
paths = (
{
closed = 1;
nodes = (
"298 0 LINE SMOOTH",
"469 0 OFFCURVE",
"594 130 OFFCURVE",
"594 350 CURVE SMOOTH",
"594 570 OFFCURVE",
"469 700 OFFCURVE",
"298 700 CURVE SMOOTH",
"72 700 LINE",
"72 403 LINE",
"14 403 LINE",
"14 299 LINE",
"72 299 LINE",
"72 0 LINE"
);
},
{
closed = 1;
nodes = (
"194 299 LINE",
"302 299 LINE",
"302 403 LINE",
"194 403 LINE",
"194 588 LINE",
"298 588 LINE SMOOTH",
"406 588 OFFCURVE",
"460 497 OFFCURVE",
"460 350 CURVE SMOOTH",
"460 203 OFFCURVE",
"406 112 OFFCURVE",
"298 112 CURVE SMOOTH",
"194 112 LINE"
);
}
);
width = 625;
},
{
associatedMasterId = "A616F07E-65DE-4D07-A020-83605E49AA22";
layerId = "558D31DE-1E7C-47DB-997A-3DE7DC0C661F";
name = "Condensed Sep 22 16, 01:19";
paths = (
{
closed = 1;
nodes = (
"301 0 LINE SMOOTH",
"473 0 OFFCURVE",
"598 129 OFFCURVE",
"598 350 CURVE SMOOTH",
"598 571 OFFCURVE",
"473 700 OFFCURVE",
"301 700 CURVE SMOOTH",
"79 700 LINE",
"79 377 LINE",
"-3 377 LINE",
"-3 313 LINE",
"79 313 LINE",
"79 0 LINE"
);
},
{
closed = 1;
nodes = (
"170 313 LINE",
"280 313 LINE",
"280 377 LINE",
"170 377 LINE",
"170 614 LINE",
"301 614 LINE SMOOTH",
"430 614 OFFCURVE",
"496 509 OFFCURVE",
"496 350 CURVE SMOOTH",
"496 191 OFFCURVE",
"430 87 OFFCURVE",
"301 87 CURVE SMOOTH",
"170 87 LINE"
);
}
);
width = 629;
},
{
associatedMasterId = "3AF73D1F-32CE-4CF3-BC01-E4A23F7DE30A";
layerId = "EDF0C179-36C5-4E0A-BD7D-7E86C7335F92";
name = "Bold Condensed Sep 22 16, 01:19";
paths = (
{
closed = 1;
nodes = (
"301 0 LINE SMOOTH",
"472 0 OFFCURVE",
"598 130 OFFCURVE",
"598 350 CURVE SMOOTH",
"598 570 OFFCURVE",
"472 700 OFFCURVE",
"301 700 CURVE SMOOTH",
"73 700 LINE",
"73 393 LINE",
"-4 393 LINE",
"-4 299 LINE",
"73 299 LINE",
"73 0 LINE"
);
},
{
closed = 1;
nodes = (
"197 299 LINE",
"298 299 LINE",
"298 393 LINE",
"197 393 LINE",
"197 577 LINE",
"301 577 LINE SMOOTH",
"408 577 OFFCURVE",
"463 490 OFFCURVE",
"463 350 CURVE SMOOTH",
"463 210 OFFCURVE",
"408 123 OFFCURVE",
"301 123 CURVE SMOOTH",
"197 123 LINE"
);
}
);
width = 629;
visible = 1;
}
);
leftKerningGroup = I;
rightKerningGroup = D;
rightMetricsKey = D;
unicode = 00D0;
},
{
glyphname = E;
layers = (
{
anchors = (
{
name = bottom;
position = "{306, 0}";
},
{
name = ogonek;
position = "{488, 0}";
},
{
name = top;
position = "{304, 700}";
}
);
layerId = UUID0;
paths = (
{
closed = 1;
nodes = (
"516 0 LINE",
"516 86 LINE",
"175 86 LINE",
"175 323 LINE",
"439 323 LINE",
"439 409 LINE",
"175 409 LINE",
"175 614 LINE",
"507 614 LINE",
"507 700 LINE",
"80 700 LINE",
"80 0 LINE"
);
}
);
width = 554;
},
{
anchors = (
{
name = bottom;
position = "{313, 0}";
},
{
name = ogonek;
position = "{503, 0}";
},
{
name = top;
position = "{311, 700}";
}
);
layerId = "7C863538-AAB4-42AD-A9FE-7240E615272A";
paths = (
{
closed = 1;
nodes = (
"535 0 LINE",
"535 124 LINE",
"208 124 LINE",
"208 303 LINE",
"454 303 LINE",
"454 427 LINE",
"208 427 LINE",
"208 576 LINE",
"525 576 LINE",
"525 700 LINE",
"77 700 LINE",
"77 0 LINE"
);
}
);
width = 568;
},
{
anchors = (
{
name = bottom;
position = "{277, 0}";
},
{
name = ogonek;
position = "{499, 10}";
},
{
name = top;
position = "{277, 700}";
},
{
name = topleft;
position = "{20, 700}";
}
);
associatedMasterId = UUID0;
layerId = "6572534E-2564-493C-8287-B859A68B1265";
name = "Regular Sep 7 16, 14:04";
paths = (
{
closed = 1;
nodes = (
"516 0 LINE",
"516 86 LINE",
"175 86 LINE",
"175 323 LINE",
"439 323 LINE",
"439 409 LINE",
"175 409 LINE",
"175 614 LINE",
"507 614 LINE",
"507 700 LINE",
"80 700 LINE",
"80 0 LINE"
);
}
);
width = 554;
},
{
anchors = (
{
name = bottom;
position = "{284, 0}";
},
{
name = ogonek;
position = "{511, 10}";
},
{
name = top;
position = "{284, 700}";
},
{
name = topleft;
position = "{20, 700}";
}
);
associatedMasterId = "7C863538-AAB4-42AD-A9FE-7240E615272A";
layerId = "7A44D41B-0C99-4E6A-A9E7-F158AA67CFF5";
name = "Bold Sep 7 16, 14:04";
paths = (
{
closed = 1;
nodes = (
"535 0 LINE",
"535 124 LINE",
"208 124 LINE",
"208 303 LINE",
"454 303 LINE",
"454 427 LINE",
"208 427 LINE",
"208 576 LINE",
"525 576 LINE",
"525 700 LINE",
"77 700 LINE",
"77 0 LINE"
);
}
);
width = 568;
},
{
anchors = (
{
name = bottom;
position = "{258, 0}";
},
{
name = ogonek;
position = "{421, 0}";
},
{
name = top;
position = "{254, 700}";
}
);
layerId = "A616F07E-65DE-4D07-A020-83605E49AA22";
paths = (
{
closed = 1;
nodes = (
"449 0 LINE",
"449 84 LINE",
"158 84 LINE",
"158 324 LINE",
"381 324 LINE",
"381 408 LINE",
"158 408 LINE",
"158 616 LINE",
"441 616 LINE",
"441 700 LINE",
"66 700 LINE",
"66 0 LINE"
);
}
);
width = 478;
},
{
anchors = (
{
name = bottom;
position = "{267, 0}";
},
{
name = ogonek;
position = "{436, 0}";
},
{
name = top;
position = "{263, 700}";
}
);
layerId = "3AF73D1F-32CE-4CF3-BC01-E4A23F7DE30A";
paths = (
{
closed = 1;
nodes = (
"468 0 LINE",
"468 112 LINE",
"188 112 LINE",
"188 311 LINE",
"397 311 LINE",
"397 423 LINE",
"188 423 LINE",
"188 588 LINE",
"459 588 LINE",
"459 700 LINE",
"66 700 LINE",
"66 0 LINE"
);
}
);
width = 497;
},
{
anchors = (
{
name = bottom;
position = "{239, 0}";
},
{
name = ogonek;
position = "{430, 10}";
},
{
name = top;
position = "{239, 700}";
},
{
name = topleft;
position = "{20, 700}";
}
);
associatedMasterId = "A616F07E-65DE-4D07-A020-83605E49AA22";
layerId = "301DB540-B3BC-4A21-A951-8D55E98D5464";
name = "Condensed Sep 19 16, 18:47";
paths = (
{
closed = 1;
nodes = (
"449 0 LINE",
"449 86 LINE",
"161 86 LINE",
"161 323 LINE",
"381 323 LINE",
"381 409 LINE",
"161 409 LINE",
"161 614 LINE",
"441 614 LINE",
"441 700 LINE",
"66 700 LINE",
"66 0 LINE"
);
}
);
width = 478;
},
{
anchors = (
{
name = bottom;
position = "{249, 0}";
},
{
name = ogonek;
position = "{447, 10}";
},
{
name = top;
position = "{249, 700}";
},
{
name = topleft;
position = "{20, 700}";
}
);
associatedMasterId = "3AF73D1F-32CE-4CF3-BC01-E4A23F7DE30A";
layerId = "6B45350E-CB9D-45A2-B2D4-3FC846F0067C";
name = "Bold Condensed Sep 19 16, 18:47";
paths = (
{
closed = 1;
nodes = (
"468 0 LINE",
"468 124 LINE",
"192 124 LINE",
"192 303 LINE",
"397 303 LINE",
"397 427 LINE",
"192 427 LINE",
"192 576 LINE",
"459 576 LINE",
"459 700 LINE",
"66 700 LINE",
"66 0 LINE"
);
}
);
width = 497;
visible = 1;
}
);
leftKerningGroup = E;
rightKerningGroup = E;
unicode = 0045;
},
{
glyphname = F;
layers = (
{
layerId = UUID0;
paths = (
{
closed = 1;
nodes = (
"175 0 LINE",
"175 323 LINE",
"431 323 LINE",
"431 409 LINE",
"175 409 LINE",
"175 614 LINE",
"507 614 LINE",
"507 700 LINE",
"80 700 LINE",
"80 0 LINE"
);
}
);
width = 523;
},
{
layerId = "7C863538-AAB4-42AD-A9FE-7240E615272A";
paths = (
{
closed = 1;
nodes = (
"205 0 LINE",
"205 303 LINE",
"439 303 LINE",
"439 427 LINE",
"205 427 LINE",
"205 576 LINE",
"508 576 LINE",
"508 700 LINE",
"77 700 LINE",
"77 0 LINE"
);
}
);
width = 525;
},
{
associatedMasterId = UUID0;
layerId = "62AB85F9-D82F-4A91-AB0B-AA8D9B0B4467";
name = "Regular Sep 7 16, 14:04";
paths = (
{
closed = 1;
nodes = (
"175 0 LINE",
"175 323 LINE",
"431 323 LINE",
"431 409 LINE",
"175 409 LINE",
"175 614 LINE",
"507 614 LINE",
"507 700 LINE",
"80 700 LINE",
"80 0 LINE"
);
}
);
width = 523;
},
{
associatedMasterId = "7C863538-AAB4-42AD-A9FE-7240E615272A";
layerId = "02F23E96-E931-4C2E-926A-E3A9274AAADD";
name = "Bold Sep 7 16, 14:04";
paths = (
{
closed = 1;
nodes = (
"205 0 LINE",
"205 303 LINE",
"439 303 LINE",
"439 427 LINE",
"205 427 LINE",
"205 576 LINE",
"508 576 LINE",
"508 700 LINE",
"77 700 LINE",
"77 0 LINE"
);
}
);
width = 525;
},
{
layerId = "A616F07E-65DE-4D07-A020-83605E49AA22";
paths = (
{
closed = 1;
nodes = (
"158 0 LINE",
"158 325 LINE",
"372 325 LINE",
"372 409 LINE",
"158 409 LINE",
"158 616 LINE",
"435 616 LINE",
"435 700 LINE",
"66 700 LINE",
"66 0 LINE"
);
}
);
width = 450;
},
{
layerId = "3AF73D1F-32CE-4CF3-BC01-E4A23F7DE30A";
paths = (
{
closed = 1;
nodes = (
"188 0 LINE",
"188 311 LINE",
"381 311 LINE",
"381 423 LINE",
"188 423 LINE",
"188 588 LINE",
"438 588 LINE",
"438 700 LINE",
"66 700 LINE",
"66 0 LINE"
);
}
);
width = 453;
},
{
associatedMasterId = "A616F07E-65DE-4D07-A020-83605E49AA22";
layerId = "760CA6BD-B248-4B91-9CCA-18BA5E50BEDA";
name = "Condensed Sep 19 16, 18:47";
paths = (
{
closed = 1;
nodes = (
"160 0 LINE",
"160 323 LINE",
"372 323 LINE",
"372 409 LINE",
"160 409 LINE",
"160 614 LINE",
"435 614 LINE",
"435 700 LINE",
"66 700 LINE",
"66 0 LINE"
);
}
);
width = 450;
},
{
associatedMasterId = "3AF73D1F-32CE-4CF3-BC01-E4A23F7DE30A";
layerId = "CF4BC89F-E23D-44E5-9EA1-58CD3B26B671";
name = "Bold Condensed Sep 19 16, 18:47";
paths = (
{
closed = 1;
nodes = (
"188 0 LINE",
"188 303 LINE",
"381 303 LINE",
"381 427 LINE",
"188 427 LINE",
"188 576 LINE",
"438 576 LINE",
"438 700 LINE",
"66 700 LINE",
"66 0 LINE"
);
}
);
width = 453;
visible = 1;
}
);
leftKerningGroup = I;
unicode = 0046;
},
{
glyphname = G;
layers = (
{
anchors = (
{
name = bottom;
position = "{396, 0}";
},
{
name = top;
position = "{403, 700}";
}
);
layerId = UUID0;
paths = (
{
closed = 1;
nodes = (
"483 -14 OFFCURVE",
"566 9 OFFCURVE",
"621 39 CURVE",
"621 351 LINE",
"416 351 LINE",
"416 265 LINE",
"526 265 LINE",
"526 91 LINE",
"489 76 OFFCURVE",
"439 72 OFFCURVE",
"409 72 CURVE SMOOTH",
"227 72 OFFCURVE",
"143 190 OFFCURVE",
"143 350 CURVE SMOOTH",
"143 505 OFFCURVE",
"225 628 OFFCURVE",
"404 628 CURVE SMOOTH",
"473 628 OFFCURVE",
"534 612 OFFCURVE",
"589 591 CURVE",
"598 674 LINE",
"547 696 OFFCURVE",
"476 714 OFFCURVE",
"401 714 CURVE SMOOTH",
"191 714 OFFCURVE",
"39 572 OFFCURVE",
"39 351 CURVE SMOOTH",
"39 128 OFFCURVE",
"188 -14 OFFCURVE",
"382 -14 CURVE SMOOTH"
);
}
);
width = 672;
},
{
anchors = (
{
name = bottom;
position = "{391, 0}";
},
{
name = top;
position = "{401, 700}";
}
);
layerId = "7C863538-AAB4-42AD-A9FE-7240E615272A";
paths = (
{
closed = 1;
nodes = (
"484 -14 OFFCURVE",
"568 10 OFFCURVE",
"617 39 CURVE",
"617 351 LINE",
"393 351 LINE",
"393 245 LINE",
"489 245 LINE",
"489 120 LINE",
"455 113 OFFCURVE",
"422 109 OFFCURVE",
"393 109 CURVE SMOOTH",
"248 109 OFFCURVE",
"175 210 OFFCURVE",
"175 353 CURVE SMOOTH",
"175 489 OFFCURVE",
"245 591 OFFCURVE",
"401 591 CURVE SMOOTH",
"469 591 OFFCURVE",
"530 574 OFFCURVE",
"580 551 CURVE",
"594 673 LINE",
"546 697 OFFCURVE",
"475 714 OFFCURVE",
"401 714 CURVE SMOOTH",
"186 714 OFFCURVE",
"35 570 OFFCURVE",
"35 351 CURVE SMOOTH",
"35 130 OFFCURVE",
"166 -14 OFFCURVE",
"388 -14 CURVE SMOOTH"
);
}
);
width = 664;
},
{
associatedMasterId = UUID0;
layerId = "BDE03F8A-8627-49DC-B543-247E591A9FAF";
name = "Regular Sep 7 16, 14:04";
paths = (
{
closed = 1;
nodes = (
"462 -14 OFFCURVE",
"566 10 OFFCURVE",
"621 39 CURVE",
"621 351 LINE",
"416 351 LINE",
"416 265 LINE",
"526 265 LINE",
"526 91 LINE",
"489 76 OFFCURVE",
"439 72 OFFCURVE",
"409 72 CURVE SMOOTH",
"227 72 OFFCURVE",
"143 190 OFFCURVE",
"143 350 CURVE SMOOTH",
"143 505 OFFCURVE",
"222 628 OFFCURVE",
"393 628 CURVE SMOOTH",
"457 628 OFFCURVE",
"531 611 OFFCURVE",
"589 591 CURVE",
"598 674 LINE",
"545 697 OFFCURVE",
"460 714 OFFCURVE",
"390 714 CURVE SMOOTH",
"186 714 OFFCURVE",
"39 572 OFFCURVE",
"39 351 CURVE SMOOTH",
"39 128 OFFCURVE",
"188 -14 OFFCURVE",
"382 -14 CURVE"
);
}
);
width = 672;
},
{
associatedMasterId = "7C863538-AAB4-42AD-A9FE-7240E615272A";
layerId = "401FEB8B-E2D8-4409-AE40-D8A8EF6CDAD1";
name = "Bold Sep 7 16, 14:04";
paths = (
{
closed = 1;
nodes = (
"457 -14 OFFCURVE",
"566 10 OFFCURVE",
"617 39 CURVE",
"617 351 LINE",
"412 351 LINE",
"412 245 LINE",
"489 245 LINE",
"489 120 LINE",
"455 113 OFFCURVE",
"422 109 OFFCURVE",
"393 109 CURVE SMOOTH",
"248 109 OFFCURVE",
"175 210 OFFCURVE",
"175 353 CURVE SMOOTH",
"175 489 OFFCURVE",
"241 591 OFFCURVE",
"387 591 CURVE SMOOTH",
"449 591 OFFCURVE",
"526 573 OFFCURVE",
"580 551 CURVE",
"594 673 LINE",
"543 698 OFFCURVE",
"452 714 OFFCURVE",
"384 714 CURVE SMOOTH",
"179 714 OFFCURVE",
"35 570 OFFCURVE",
"35 351 CURVE SMOOTH",
"35 130 OFFCURVE",
"181 -14 OFFCURVE",
"377 -14 CURVE"
);
}
);
width = 664;
},
{
anchors = (
{
name = bottom;
position = "{361, 0}";
},
{
name = top;
position = "{350, 700}";
}
);
layerId = "A616F07E-65DE-4D07-A020-83605E49AA22";
paths = (
{
closed = 1;
nodes = (
"422 -14 OFFCURVE",
"487 4 OFFCURVE",
"531 32 CURVE",
"531 351 LINE",
"350 351 LINE",
"350 267 LINE",
"439 267 LINE",
"439 84 LINE",
"418 75 OFFCURVE",
"391 70 OFFCURVE",
"363 70 CURVE SMOOTH",
"207 70 OFFCURVE",
"132 189 OFFCURVE",
"132 350 CURVE SMOOTH",
"132 506 OFFCURVE",
"212 630 OFFCURVE",
"364 630 CURVE SMOOTH",
"419 630 OFFCURVE",
"460 618 OFFCURVE",
"501 598 CURVE",
"511 684 LINE",
"469 702 OFFCURVE",
"419 714 OFFCURVE",
"355 714 CURVE SMOOTH",
"167 714 OFFCURVE",
"30 572 OFFCURVE",
"30 350 CURVE SMOOTH",
"30 138 OFFCURVE",
"153 -14 OFFCURVE",
"358 -14 CURVE SMOOTH"
);
}
);
width = 571;
},
{
anchors = (
{
name = bottom;
position = "{348, 0}";
},
{
name = top;
position = "{345, 700}";
}
);
layerId = "3AF73D1F-32CE-4CF3-BC01-E4A23F7DE30A";
paths = (
{
closed = 1;
nodes = (
"419 -14 OFFCURVE",
"487 6 OFFCURVE",
"531 37 CURVE",
"531 351 LINE",
"329 351 LINE",
"329 239 LINE",
"409 239 LINE",
"409 118 LINE",
"392 112 OFFCURVE",
"371 109 OFFCURVE",
"353 109 CURVE SMOOTH",
"229 109 OFFCURVE",
"164 198 OFFCURVE",
"164 350 CURVE SMOOTH",
"164 500 OFFCURVE",
"238 591 OFFCURVE",
"363 591 CURVE SMOOTH",
"416 591 OFFCURVE",
"454 577 OFFCURVE",
"497 559 CURVE",
"511 681 LINE",
"468 700 OFFCURVE",
"414 714 OFFCURVE",
"347 714 CURVE SMOOTH",
"166 714 OFFCURVE",
"30 575 OFFCURVE",
"30 350 CURVE SMOOTH",
"30 130 OFFCURVE",
"155 -14 OFFCURVE",
"342 -14 CURVE SMOOTH"
);
}
);
width = 571;
},
{
associatedMasterId = "A616F07E-65DE-4D07-A020-83605E49AA22";
layerId = "A40C96A4-9DE4-40F9-A8EC-63E03A533237";
name = "Condensed Sep 19 16, 18:47";
paths = (
{
closed = 1;
nodes = (
"393 -14 OFFCURVE",
"485 10 OFFCURVE",
"531 39 CURVE",
"531 351 LINE",
"354 351 LINE",
"354 265 LINE",
"437 265 LINE",
"437 91 LINE",
"406 76 OFFCURVE",
"369 72 OFFCURVE",
"344 72 CURVE SMOOTH",
"201 72 OFFCURVE",
"132 190 OFFCURVE",
"132 350 CURVE SMOOTH",
"132 505 OFFCURVE",
"196 628 OFFCURVE",
"334 628 CURVE SMOOTH",
"388 628 OFFCURVE",
"453 611 OFFCURVE",
"501 591 CURVE",
"511 674 LINE",
"466 697 OFFCURVE",
"391 714 OFFCURVE",
"331 714 CURVE SMOOTH",
"155 714 OFFCURVE",
"30 572 OFFCURVE",
"30 351 CURVE SMOOTH",
"30 128 OFFCURVE",
"157 -14 OFFCURVE",
"325 -14 CURVE SMOOTH",
"325 -14 LINE"
);
}
);
width = 571;
},
{
associatedMasterId = "3AF73D1F-32CE-4CF3-BC01-E4A23F7DE30A";
layerId = "D6080416-4650-409E-B9F4-5088D84C2F0E";
name = "Bold Condensed Sep 19 16, 18:47";
paths = (
{
closed = 1;
nodes = (
"393 -14 OFFCURVE",
"488 10 OFFCURVE",
"531 39 CURVE",
"531 351 LINE",
"354 351 LINE",
"354 245 LINE",
"408 245 LINE",
"408 120 LINE",
"380 113 OFFCURVE",
"358 109 OFFCURVE",
"333 109 CURVE SMOOTH",
"222 109 OFFCURVE",
"164 210 OFFCURVE",
"164 353 CURVE SMOOTH",
"164 489 OFFCURVE",
"216 591 OFFCURVE",
"332 591 CURVE SMOOTH",
"385 591 OFFCURVE",
"452 573 OFFCURVE",
"497 551 CURVE",
"511 673 LINE",
"468 698 OFFCURVE",
"387 714 OFFCURVE",
"329 714 CURVE SMOOTH",
"153 714 OFFCURVE",
"30 570 OFFCURVE",
"30 351 CURVE SMOOTH",
"30 130 OFFCURVE",
"154 -14 OFFCURVE",
"324 -14 CURVE SMOOTH",
"324 -14 LINE"
);
}
);
width = 571;
visible = 1;
}
);
leftKerningGroup = O;
unicode = 0047;
},
{
glyphname = H;
layers = (
{
anchors = (
{
name = bottom;
position = "{353, 0}";
},
{
name = top;
position = "{353, 700}";
}
);
layerId = UUID0;
paths = (
{
closed = 1;
nodes = (
"175 0 LINE",
"175 321 LINE",
"531 321 LINE",
"531 0 LINE",
"626 0 LINE",
"626 700 LINE",
"531 700 LINE",
"531 411 LINE",
"175 411 LINE",
"175 700 LINE",
"80 700 LINE",
"80 0 LINE"
);
}
);
width = 706;
},
{
anchors = (
{
name = bottom;
position = "{365, 0}";
},
{
name = top;
position = "{365, 700}";
}
);
layerId = "7C863538-AAB4-42AD-A9FE-7240E615272A";
paths = (
{
closed = 1;
nodes = (
"205 0 LINE",
"205 303 LINE",
"525 303 LINE",
"525 0 LINE",
"653 0 LINE",
"653 700 LINE",
"525 700 LINE",
"525 423 LINE",
"205 423 LINE",
"205 700 LINE",
"77 700 LINE",
"77 0 LINE"
);
}
);
width = 730;
},
{
associatedMasterId = UUID0;
layerId = "135CE4C9-E666-471E-8D69-B4D1AB87DF32";
name = "Regular Sep 7 16, 14:04";
paths = (
{
closed = 1;
nodes = (
"175 0 LINE",
"175 321 LINE",
"571 321 LINE",
"571 0 LINE",
"666 0 LINE",
"666 700 LINE",
"571 700 LINE",
"571 411 LINE",
"175 411 LINE",
"175 700 LINE",
"80 700 LINE",
"80 0 LINE"
);
}
);
width = 746;
},
{
associatedMasterId = "7C863538-AAB4-42AD-A9FE-7240E615272A";
layerId = "8B90DC92-B609-4AF1-85A2-CB596AED2038";
name = "Bold Sep 7 16, 14:04";
paths = (
{
closed = 1;
nodes = (
"205 0 LINE",
"205 303 LINE",
"535 303 LINE",
"535 0 LINE",
"663 0 LINE",
"663 700 LINE",
"535 700 LINE",
"535 427 LINE",
"205 427 LINE",
"205 700 LINE",
"77 700 LINE",
"77 0 LINE"
);
}
);
width = 740;
},
{
anchors = (
{
name = bottom;
position = "{318, 0}";
},
{
name = top;
position = "{318, 700}";
}
);
layerId = "A616F07E-65DE-4D07-A020-83605E49AA22";
paths = (
{
closed = 1;
nodes = (
"158 0 LINE",
"158 321 LINE",
"478 321 LINE",
"478 0 LINE",
"570 0 LINE",
"570 700 LINE",
"478 700 LINE",
"478 411 LINE",
"158 411 LINE",
"158 700 LINE",
"66 700 LINE",
"66 0 LINE"
);
}
);
width = 636;
},
{
anchors = (
{
name = bottom;
position = "{318, 0}";
},
{
name = top;
position = "{318, 700}";
}
);
layerId = "3AF73D1F-32CE-4CF3-BC01-E4A23F7DE30A";
paths = (
{
closed = 1;
nodes = (
"188 0 LINE",
"188 303 LINE",
"448 303 LINE",
"448 0 LINE",
"570 0 LINE",
"570 700 LINE",
"448 700 LINE",
"448 423 LINE",
"188 423 LINE",
"188 700 LINE",
"66 700 LINE",
"66 0 LINE"
);
}
);
width = 636;
},
{
associatedMasterId = "A616F07E-65DE-4D07-A020-83605E49AA22";
layerId = "1DF4F557-6FCA-4FC6-92F7-01963A898674";
name = "Condensed Sep 19 16, 18:47";
paths = (
{
closed = 1;
nodes = (
"160 0 LINE",
"160 321 LINE",
"476 321 LINE",
"476 0 LINE",
"570 0 LINE",
"570 700 LINE",
"476 700 LINE",
"476 411 LINE",
"160 411 LINE",
"160 700 LINE",
"66 700 LINE",
"66 0 LINE"
);
}
);
width = 636;
},
{
associatedMasterId = "3AF73D1F-32CE-4CF3-BC01-E4A23F7DE30A";
layerId = "4A078F13-65E8-4ACD-9D96-7EF27F394791";
name = "Bold Condensed Sep 19 16, 18:47";
paths = (
{
closed = 1;
nodes = (
"188 0 LINE",
"188 303 LINE",
"448 303 LINE",
"448 0 LINE",
"570 0 LINE",
"570 700 LINE",
"448 700 LINE",
"448 427 LINE",
"188 427 LINE",
"188 700 LINE",
"66 700 LINE",
"66 0 LINE"
);
}
);
width = 636;
}
);
leftKerningGroup = I;
rightKerningGroup = I;
unicode = 0048;
},
{
glyphname = Hbar;
layers = (
{
layerId = UUID0;
paths = (
{
closed = 1;
nodes = (
"736 500 LINE",
"736 564 LINE",
"10 564 LINE",
"10 500 LINE"
);
},
{
closed = 1;
nodes = (
"175 0 LINE",
"175 321 LINE",
"571 321 LINE",
"571 0 LINE",
"666 0 LINE",
"666 700 LINE",
"571 700 LINE",
"571 411 LINE",
"175 411 LINE",
"175 700 LINE",
"80 700 LINE",
"80 0 LINE"
);
}
);
width = 746;
},
{
layerId = "7C863538-AAB4-42AD-A9FE-7240E615272A";
paths = (
{
closed = 1;
nodes = (
"728 486 LINE",
"728 580 LINE",
"12 580 LINE",
"12 486 LINE"
);
},
{
closed = 1;
nodes = (
"205 0 LINE",
"205 303 LINE",
"535 303 LINE",
"535 0 LINE",
"663 0 LINE",
"663 700 LINE",
"535 700 LINE",
"535 427 LINE",
"205 427 LINE",
"205 700 LINE",
"77 700 LINE",
"77 0 LINE"
);
}
);
width = 740;
},
{
components = (
{
name = H;
transform = "{1, 0, 0, 1, 4, 0}";
}
);
layerId = "A616F07E-65DE-4D07-A020-83605E49AA22";
paths = (
{
closed = 1;
nodes = (
"634 501 LINE",
"634 563 LINE",
"10 563 LINE",
"10 501 LINE"
);
}
);
width = 644;
},
{
components = (
{
name = H;
transform = "{1, 0, 0, 1, 9, 0}";
}
);
layerId = "3AF73D1F-32CE-4CF3-BC01-E4A23F7DE30A";
paths = (
{
closed = 1;
nodes = (
"634 488 LINE",
"634 578 LINE",
"20 578 LINE",
"20 488 LINE"
);
}
);
width = 654;
}
);
unicode = 0126;
},
{
glyphname = I;
layers = (
{
anchors = (
{
name = bottom;
position = "{128, 0}";
},
{
name = ogonek;
position = "{147, 0}";
},
{
name = top;
position = "{128, 700}";
},
{
name = topleft;
position = "{20, 700}";
}
);
layerId = UUID0;
paths = (
{
closed = 1;
nodes = (
"175 0 LINE",
"175 700 LINE",
"80 700 LINE",
"80 0 LINE"
);
}
);
width = 255;
},
{
anchors = (
{
name = bottom;
position = "{141, 0}";
},
{
name = ogonek;
position = "{173, 0}";
},
{
name = top;
position = "{141, 700}";
},
{
name = topleft;
position = "{20, 700}";
}
);
layerId = "7C863538-AAB4-42AD-A9FE-7240E615272A";
paths = (
{
closed = 1;
nodes = (
"205 0 LINE",
"205 700 LINE",
"77 700 LINE",
"77 0 LINE"
);
}
);
width = 282;
},
{
anchors = (
{
name = bottom;
position = "{128, 0}";
},
{
name = ogonek;
position = "{229, 10}";
},
{
name = top;
position = "{128, 700}";
},
{
name = topleft;
position = "{20, 700}";
}
);
associatedMasterId = UUID0;
layerId = "525849ED-7B67-43BA-B88C-4FEAA2A33F2B";
name = "Regular Sep 7 16, 14:04";
paths = (
{
closed = 1;
nodes = (
"175 0 LINE",
"175 700 LINE",
"80 700 LINE",
"80 0 LINE"
);
}
);
width = 255;
},
{
anchors = (
{
name = bottom;
position = "{141, 0}";
},
{
name = ogonek;
position = "{254, 10}";
},
{
name = top;
position = "{141, 700}";
},
{
name = topleft;
position = "{20, 700}";
}
);
associatedMasterId = "7C863538-AAB4-42AD-A9FE-7240E615272A";
layerId = "A4761CCA-F82F-4BD9-80FB-ADDE81172851";
name = "Bold Sep 7 16, 14:04";
paths = (
{
closed = 1;
nodes = (
"205 0 LINE",
"205 700 LINE",
"77 700 LINE",
"77 0 LINE"
);
}
);
width = 282;
},
{
anchors = (
{
name = bottom;
position = "{120, 0}";
},
{
name = ogonek;
position = "{138, 0}";
},
{
name = top;
position = "{120, 700}";
}
);
layerId = "A616F07E-65DE-4D07-A020-83605E49AA22";
paths = (
{
closed = 1;
nodes = (
"166 0 LINE",
"166 700 LINE",
"74 700 LINE",
"74 0 LINE"
);
}
);
width = 240;
},
{
anchors = (
{
name = bottom;
position = "{121, 0}";
},
{
name = ogonek;
position = "{150, 0}";
},
{
name = top;
position = "{121, 700}";
}
);
layerId = "3AF73D1F-32CE-4CF3-BC01-E4A23F7DE30A";
paths = (
{
closed = 1;
nodes = (
"182 0 LINE",
"182 700 LINE",
"60 700 LINE",
"60 0 LINE"
);
}
);
width = 242;
},
{
anchors = (
{
name = bottom;
position = "{122, 0}";
},
{
name = ogonek;
position = "{219, 10}";
},
{
name = top;
position = "{122, 700}";
},
{
name = topleft;
position = "{20, 700}";
}
);
associatedMasterId = "A616F07E-65DE-4D07-A020-83605E49AA22";
layerId = "77C56CFF-3C00-493E-8BD1-850739F5F889";
name = "Condensed Sep 19 16, 18:47";
paths = (
{
closed = 1;
nodes = (
"168 0 LINE",
"168 700 LINE",
"74 700 LINE",
"74 0 LINE"
);
}
);
width = 243;
},
{
anchors = (
{
name = bottom;
position = "{121, 0}";
},
{
name = ogonek;
position = "{218, 10}";
},
{
name = top;
position = "{121, 700}";
},
{
name = topleft;
position = "{20, 700}";
}
);
associatedMasterId = "3AF73D1F-32CE-4CF3-BC01-E4A23F7DE30A";
layerId = "EF6F7E2D-01EE-470D-B2B2-1EA707C8FE5F";
name = "Bold Condensed Sep 19 16, 18:47";
paths = (
{
closed = 1;
nodes = (
"182 0 LINE",
"182 700 LINE",
"60 700 LINE",
"60 0 LINE"
);
}
);
width = 242;
}
);
leftKerningGroup = I;
rightKerningGroup = I;
unicode = 0049;
},
{
glyphname = IJ;
layers = (
{
layerId = UUID0;
paths = (
{
closed = 1;
nodes = (
"76 231 LINE",
"94 78 OFFCURVE",
"181 -14 OFFCURVE",
"342 -14 CURVE SMOOTH",
"525 -14 OFFCURVE",
"612 105 OFFCURVE",
"612 297 CURVE SMOOTH",
"612 700 LINE",
"517 700 LINE",
"517 323 LINE SMOOTH",
"517 196 OFFCURVE",
"491 72 OFFCURVE",
"342 72 CURVE SMOOTH",
"223 72 OFFCURVE",
"182 149 OFFCURVE",
"171 244 CURVE"
);
},
{
closed = 1;
nodes = (
"167 323 LINE",
"167 700 LINE",
"72 700 LINE",
"72 323 LINE"
);
}
);
width = 684;
},
{
layerId = "7C863538-AAB4-42AD-A9FE-7240E615272A";
paths = (
{
closed = 1;
nodes = (
"75 220 LINE",
"98 76 OFFCURVE",
"187 -14 OFFCURVE",
"349 -14 CURVE",
"539 -14 OFFCURVE",
"629 110 OFFCURVE",
"629 300 CURVE SMOOTH",
"629 700 LINE",
"501 700 LINE",
"501 333 LINE SMOOTH",
"501 199 OFFCURVE",
"476 109 OFFCURVE",
"349 109 CURVE SMOOTH",
"254 109 OFFCURVE",
"216 159 OFFCURVE",
"203 240 CURVE"
);
},
{
closed = 1;
nodes = (
"197 333 LINE",
"197 700 LINE",
"69 700 LINE",
"69 333 LINE"
);
}
);
width = 698;
},
{
associatedMasterId = UUID0;
components = (
{
name = I;
},
{
name = J;
transform = "{1, 0, 0, 1, 255, 0}";
}
);
layerId = "B69BDC59-1927-4BEF-B577-CA3BF1F225F2";
name = "Regular Sep 16 16, 01:48";
width = 510;
},
{
associatedMasterId = "7C863538-AAB4-42AD-A9FE-7240E615272A";
components = (
{
name = I;
},
{
name = J;
transform = "{1, 0, 0, 1, 282, 0}";
}
);
layerId = "1A7F4EF6-634A-4DEC-A29A-DC4E1445BDED";
name = "Bold Sep 16 16, 01:48";
width = 564;
},
{
layerId = "A616F07E-65DE-4D07-A020-83605E49AA22";
paths = (
{
closed = 1;
nodes = (
"60 243 LINE",
"69 83 OFFCURVE",
"142 -14 OFFCURVE",
"298 -14 CURVE SMOOTH",
"466 -14 OFFCURVE",
"538 97 OFFCURVE",
"538 277 CURVE SMOOTH",
"538 700 LINE",
"446 700 LINE",
"446 303 LINE SMOOTH",
"446 176 OFFCURVE",
"428 70 OFFCURVE",
"298 70 CURVE SMOOTH",
"187 70 OFFCURVE",
"158 149 OFFCURVE",
"152 254 CURVE"
);
},
{
closed = 1;
nodes = (
"151 323 LINE",
"151 700 LINE",
"59 700 LINE",
"59 323 LINE"
);
}
);
width = 597;
},
{
layerId = "3AF73D1F-32CE-4CF3-BC01-E4A23F7DE30A";
paths = (
{
closed = 1;
nodes = (
"62 225 LINE",
"75 79 OFFCURVE",
"152 -14 OFFCURVE",
"300 -14 CURVE SMOOTH",
"463 -14 OFFCURVE",
"540 98 OFFCURVE",
"540 270 CURVE SMOOTH",
"540 700 LINE",
"418 700 LINE",
"418 303 LINE SMOOTH",
"418 190 OFFCURVE",
"398 109 OFFCURVE",
"300 109 CURVE SMOOTH",
"221 109 OFFCURVE",
"193 163 OFFCURVE",
"185 243 CURVE"
);
},
{
closed = 1;
nodes = (
"182 333 LINE",
"182 700 LINE",
"60 700 LINE",
"60 333 LINE"
);
}
);
width = 600;
}
);
leftMetricsKey = U;
rightMetricsKey = U;
unicode = 0132;
},
{
glyphname = J;
layers = (
{
anchors = (
{
name = top;
position = "{128, 700}";
}
);
layerId = UUID0;
paths = (
{
closed = 1;
nodes = (
"19 -172 LINE SMOOTH",
"124 -172 OFFCURVE",
"175 -124 OFFCURVE",
"175 -14 CURVE SMOOTH",
"175 700 LINE",
"80 700 LINE",
"80 8 LINE SMOOTH",
"80 -60 OFFCURVE",
"52 -90 OFFCURVE",
"-20 -90 CURVE",
"-7 -172 LINE"
);
}
);
width = 255;
},
{
anchors = (
{
name = top;
position = "{141, 700}";
}
);
layerId = "7C863538-AAB4-42AD-A9FE-7240E615272A";
paths = (
{
closed = 1;
nodes = (
"43 -172 LINE SMOOTH",
"143 -172 OFFCURVE",
"205 -126 OFFCURVE",
"205 -4 CURVE SMOOTH",
"205 700 LINE",
"77 700 LINE",
"77 24 LINE SMOOTH",
"77 -42 OFFCURVE",
"53 -62 OFFCURVE",
"-4 -62 CURVE",
"7 -172 LINE"
);
}
);
width = 282;
},
{
associatedMasterId = UUID0;
layerId = "5F0F720F-D4C6-4761-B74D-F5C2A8A6F4D9";
name = "Regular Sep 7 16, 14:04";
paths = (
{
closed = 1;
nodes = (
"9 -172 LINE SMOOTH",
"124 -172 OFFCURVE",
"175 -122 OFFCURVE",
"175 -32 CURVE SMOOTH",
"175 700 LINE",
"80 700 LINE",
"80 -3 LINE SMOOTH",
"80 -81 OFFCURVE",
"63 -116 OFFCURVE",
"-14 -116 CURVE SMOOTH",
"-17 -116 LINE",
"-7 -172 LINE"
);
}
);
width = 255;
},
{
associatedMasterId = "7C863538-AAB4-42AD-A9FE-7240E615272A";
layerId = "85804647-F065-48D3-B57F-7015F58BA85C";
name = "Bold Sep 7 16, 14:04";
paths = (
{
closed = 1;
nodes = (
"43 -172 LINE SMOOTH",
"143 -172 OFFCURVE",
"205 -124 OFFCURVE",
"205 -24 CURVE SMOOTH",
"205 700 LINE",
"77 700 LINE",
"77 4 LINE SMOOTH",
"77 -51 OFFCURVE",
"64 -76 OFFCURVE",
"24 -76 CURVE SMOOTH",
"-3 -76 LINE",
"7 -172 LINE"
);
}
);
width = 282;
},
{
anchors = (
{
name = top;
position = "{123, 700}";
}
);
layerId = "A616F07E-65DE-4D07-A020-83605E49AA22";
paths = (
{
closed = 1;
nodes = (
"29 -172 LINE SMOOTH",
"116 -172 OFFCURVE",
"169 -125 OFFCURVE",
"169 -32 CURVE SMOOTH",
"169 700 LINE",
"77 700 LINE",
"77 -3 LINE SMOOTH",
"77 -72 OFFCURVE",
"58 -90 OFFCURVE",
"-1 -90 CURVE",
"8 -172 LINE"
);
}
);
width = 243;
},
{
anchors = (
{
name = top;
position = "{119, 700}";
}
);
layerId = "3AF73D1F-32CE-4CF3-BC01-E4A23F7DE30A";
paths = (
{
closed = 1;
nodes = (
"26 -172 LINE SMOOTH",
"118 -172 OFFCURVE",
"180 -126 OFFCURVE",
"180 -24 CURVE SMOOTH",
"180 700 LINE",
"58 700 LINE",
"58 -1 LINE SMOOTH",
"58 -46 OFFCURVE",
"40 -64 OFFCURVE",
"-4 -64 CURVE",
"5 -172 LINE"
);
}
);
width = 242;
},
{
associatedMasterId = "A616F07E-65DE-4D07-A020-83605E49AA22";
layerId = "FC7CB6DB-D289-4653-ACF3-C96AC770570A";
name = "Condensed Sep 19 16, 18:47";
paths = (
{
closed = 1;
nodes = (
"29 -172 LINE SMOOTH",
"122 -172 OFFCURVE",
"170 -122 OFFCURVE",
"170 -32 CURVE SMOOTH",
"170 700 LINE",
"76 700 LINE",
"76 -3 LINE SMOOTH",
"76 -81 OFFCURVE",
"63 -116 OFFCURVE",
"10 -116 CURVE SMOOTH",
"-1 -116 LINE",
"8 -172 LINE"
);
}
);
width = 242;
},
{
associatedMasterId = "3AF73D1F-32CE-4CF3-BC01-E4A23F7DE30A";
layerId = "2CDEBC7A-2618-4F9D-A109-CC4A990B9F4E";
name = "Bold Condensed Sep 19 16, 18:47";
paths = (
{
closed = 1;
nodes = (
"43 -172 LINE SMOOTH",
"123 -172 OFFCURVE",
"181 -124 OFFCURVE",
"181 -24 CURVE SMOOTH",
"181 700 LINE",
"58 700 LINE",
"58 4 LINE SMOOTH",
"58 -51 OFFCURVE",
"49 -76 OFFCURVE",
"28 -76 CURVE SMOOTH",
"-4 -76 LINE",
"5 -172 LINE"
);
}
);
width = 243;
}
);
unicode = 004A;
},
{
glyphname = K;
layers = (
{
anchors = (
{
name = bottom;
position = "{324, 0}";
},
{
name = top;
position = "{324, 700}";
}
);
layerId = UUID0;
paths = (
{
closed = 1;
nodes = (
"562 0 LINE",
"293 373 LINE",
"559 700 LINE",
"444 700 LINE",
"185 371 LINE",
"444 0 LINE"
);
},
{
closed = 1;
nodes = (
"175 0 LINE",
"175 700 LINE",
"80 700 LINE",
"80 0 LINE"
);
}
);
width = 566;
},
{
anchors = (
{
name = bottom;
position = "{340, 0}";
},
{
name = top;
position = "{340, 700}";
}
);
layerId = "7C863538-AAB4-42AD-A9FE-7240E615272A";
paths = (
{
closed = 1;
nodes = (
"624 0 LINE",
"363 370 LINE",
"624 700 LINE",
"474 700 LINE",
"215 370 LINE",
"474 0 LINE"
);
},
{
closed = 1;
nodes = (
"205 0 LINE",
"205 700 LINE",
"77 700 LINE",
"77 0 LINE"
);
}
);
width = 627;
},
{
associatedMasterId = UUID0;
layerId = "5793FEEF-6FB1-45A8-A562-D1A12D4700F4";
name = "Regular Sep 7 16, 14:04";
paths = (
{
closed = 1;
nodes = (
"573 0 LINE",
"314 371 LINE",
"573 700 LINE",
"473 700 LINE",
"214 371 LINE",
"473 0 LINE"
);
},
{
closed = 1;
nodes = (
"175 0 LINE",
"175 700 LINE",
"80 700 LINE",
"80 0 LINE"
);
}
);
width = 577;
},
{
associatedMasterId = "7C863538-AAB4-42AD-A9FE-7240E615272A";
layerId = "0F9751A4-6C52-4A70-B363-963DF947A431";
name = "Bold Sep 7 16, 14:04";
paths = (
{
closed = 1;
nodes = (
"618 0 LINE",
"374 370 LINE",
"618 700 LINE",
"474 700 LINE",
"230 370 LINE",
"474 0 LINE"
);
},
{
closed = 1;
nodes = (
"205 0 LINE",
"205 700 LINE",
"77 700 LINE",
"77 0 LINE"
);
}
);
width = 621;
},
{
anchors = (
{
name = bottom;
position = "{290, 0}";
},
{
name = top;
position = "{290, 700}";
}
);
layerId = "A616F07E-65DE-4D07-A020-83605E49AA22";
paths = (
{
closed = 1;
nodes = (
"507 0 LINE",
"280 371 LINE",
"507 700 LINE",
"405 700 LINE",
"180 371 LINE",
"405 0 LINE"
);
},
{
closed = 1;
nodes = (
"175 0 LINE",
"175 700 LINE",
"83 700 LINE",
"83 0 LINE"
);
}
);
width = 527;
},
{
anchors = (
{
name = bottom;
position = "{284, 0}";
},
{
name = top;
position = "{284, 700}";
}
);
layerId = "3AF73D1F-32CE-4CF3-BC01-E4A23F7DE30A";
paths = (
{
closed = 1;
nodes = (
"536 0 LINE",
"319 370 LINE",
"536 700 LINE",
"392 700 LINE",
"181 370 LINE",
"392 0 LINE"
);
},
{
closed = 1;
nodes = (
"176 0 LINE",
"176 700 LINE",
"54 700 LINE",
"54 0 LINE"
);
}
);
width = 526;
},
{
associatedMasterId = "A616F07E-65DE-4D07-A020-83605E49AA22";
layerId = "A4F1A482-A05E-406E-A819-E1317F21F4E4";
name = "Condensed Sep 19 16, 18:47";
paths = (
{
closed = 1;
nodes = (
"524 0 LINE",
"307 371 LINE",
"524 700 LINE",
"422 700 LINE",
"205 371 LINE",
"422 0 LINE"
);
},
{
closed = 1;
nodes = (
"177 0 LINE",
"177 700 LINE",
"83 700 LINE",
"83 0 LINE"
);
}
);
width = 544;
},
{
associatedMasterId = "3AF73D1F-32CE-4CF3-BC01-E4A23F7DE30A";
layerId = "EA0EAFE0-60FC-4036-A425-EC11762C2A97";
name = "Bold Condensed Sep 19 16, 18:47";
paths = (
{
closed = 1;
nodes = (
"537 0 LINE",
"333 370 LINE",
"537 700 LINE",
"397 700 LINE",
"193 370 LINE",
"397 0 LINE"
);
},
{
closed = 1;
nodes = (
"176 0 LINE",
"176 700 LINE",
"54 700 LINE",
"54 0 LINE"
);
}
);
width = 527;
}
);
leftKerningGroup = I;
unicode = 004B;
},
{
glyphname = L;
layers = (
{
anchors = (
{
name = bottom;
position = "{288, 0}";
},
{
name = center;
position = "{378, 384}";
},
{
name = top;
position = "{128, 700}";
},
{
name = topright;
position = "{402, 700}";
}
);
guideLines = (
{
angle = 90;
position = "{496, 86}";
}
);
layerId = UUID0;
paths = (
{
closed = 1;
nodes = (
"496 0 LINE",
"496 86 LINE",
"175 86 LINE",
"175 700 LINE",
"80 700 LINE",
"80 0 LINE"
);
}
);
width = 501;
},
{
anchors = (
{
name = bottom;
position = "{285, 0}";
},
{
name = center;
position = "{391, 392}";
},
{
name = top;
position = "{141, 700}";
},
{
name = topright;
position = "{394, 700}";
}
);
guideLines = (
{
angle = 90;
position = "{493, 124}";
}
);
layerId = "7C863538-AAB4-42AD-A9FE-7240E615272A";
paths = (
{
closed = 1;
nodes = (
"493 0 LINE",
"493 114 LINE",
"205 114 LINE",
"205 700 LINE",
"77 700 LINE",
"77 0 LINE"
);
}
);
width = 500;
},
{
associatedMasterId = UUID0;
layerId = "AAA7357E-E947-4C67-BBD4-6C7E2B70345C";
name = "Regular Sep 7 16, 14:04";
paths = (
{
closed = 1;
nodes = (
"496 0 LINE",
"496 86 LINE",
"175 86 LINE",
"175 700 LINE",
"80 700 LINE",
"80 0 LINE"
);
}
);
width = 501;
},
{
associatedMasterId = "7C863538-AAB4-42AD-A9FE-7240E615272A";
layerId = "AFAC02C0-5375-4A68-84BF-B33DA7C5FF0B";
name = "Bold Sep 7 16, 14:04";
paths = (
{
closed = 1;
nodes = (
"493 0 LINE",
"493 124 LINE",
"205 124 LINE",
"205 700 LINE",
"77 700 LINE",
"77 0 LINE"
);
}
);
width = 500;
},
{
anchors = (
{
name = bottom;
position = "{245, 0}";
},
{
name = center;
position = "{327, 384}";
},
{
name = top;
position = "{112, 700}";
},
{
name = topright;
position = "{332, 700}";
}
);
layerId = "A616F07E-65DE-4D07-A020-83605E49AA22";
paths = (
{
closed = 1;
nodes = (
"424 0 LINE",
"424 84 LINE",
"158 84 LINE",
"158 700 LINE",
"66 700 LINE",
"66 0 LINE"
);
}
);
width = 430;
},
{
anchors = (
{
name = bottom;
position = "{245, 0}";
},
{
name = center;
position = "{342, 392}";
},
{
name = top;
position = "{127, 700}";
},
{
name = topright;
position = "{329, 700}";
}
);
layerId = "3AF73D1F-32CE-4CF3-BC01-E4A23F7DE30A";
paths = (
{
closed = 1;
nodes = (
"424 0 LINE",
"424 112 LINE",
"188 112 LINE",
"188 700 LINE",
"66 700 LINE",
"66 0 LINE"
);
}
);
width = 430;
},
{
associatedMasterId = "A616F07E-65DE-4D07-A020-83605E49AA22";
layerId = "D872BE99-EA08-45C8-B26B-4F5C0CE8AF62";
name = "Condensed Sep 19 16, 18:47";
paths = (
{
closed = 1;
nodes = (
"424 0 LINE",
"424 86 LINE",
"160 86 LINE",
"160 700 LINE",
"66 700 LINE",
"66 0 LINE"
);
}
);
width = 430;
},
{
associatedMasterId = "3AF73D1F-32CE-4CF3-BC01-E4A23F7DE30A";
layerId = "2099B62D-8BB4-495B-86F1-01EAE830DD92";
name = "Bold Condensed Sep 19 16, 18:47";
paths = (
{
closed = 1;
nodes = (
"424 0 LINE",
"424 124 LINE",
"188 124 LINE",
"188 700 LINE",
"66 700 LINE",
"66 0 LINE"
);
}
);
width = 430;
}
);
leftKerningGroup = I;
unicode = 004C;
},
{
glyphname = Lslash;
layers = (
{
layerId = UUID0;
paths = (
{
closed = 1;
nodes = (
"496 0 LINE",
"496 86 LINE",
"175 86 LINE",
"175 700 LINE",
"80 700 LINE",
"80 0 LINE"
);
},
{
closed = 1;
nodes = (
"386 464 LINE",
"386 531 LINE",
"10 429 LINE",
"10 362 LINE"
);
}
);
width = 501;
},
{
layerId = "7C863538-AAB4-42AD-A9FE-7240E615272A";
paths = (
{
closed = 1;
nodes = (
"493 0 LINE",
"493 124 LINE",
"205 124 LINE",
"205 700 LINE",
"77 700 LINE",
"77 0 LINE"
);
},
{
closed = 1;
nodes = (
"409 454 LINE",
"409 554 LINE",
"12 452 LINE",
"12 352 LINE"
);
}
);
width = 500;
},
{
components = (
{
name = L;
transform = "{1, 0, 0, 1, 6, 0}";
}
);
layerId = "A616F07E-65DE-4D07-A020-83605E49AA22";
paths = (
{
closed = 1;
nodes = (
"328 452 LINE",
"328 517 LINE",
"12 430 LINE",
"12 365 LINE"
);
}
);
width = 436;
},
{
components = (
{
name = L;
transform = "{1, 0, 0, 1, 9, 0}";
}
);
layerId = "3AF73D1F-32CE-4CF3-BC01-E4A23F7DE30A";
paths = (
{
closed = 1;
nodes = (
"358 444 LINE",
"358 544 LINE",
"20 452 LINE",
"20 352 LINE"
);
}
);
width = 439;
},
{
associatedMasterId = "A616F07E-65DE-4D07-A020-83605E49AA22";
layerId = "7ACF1404-6D6F-44F8-B9EC-84A71420C217";
name = "Condensed Sep 22 16, 01:56";
paths = (
{
closed = 1;
nodes = (
"496 0 LINE",
"496 86 LINE",
"175 86 LINE",
"175 700 LINE",
"80 700 LINE",
"80 0 LINE"
);
},
{
closed = 1;
nodes = (
"386 464 LINE",
"386 531 LINE",
"20 431 LINE",
"20 364 LINE"
);
}
);
width = 600;
visible = 1;
}
);
rightMetricsKey = L;
unicode = 0141;
},
{
glyphname = M;
layers = (
{
anchors = (
{
name = bottom;
position = "{406, 0}";
},
{
name = top;
position = "{406, 700}";
}
);
layerId = UUID0;
paths = (
{
closed = 1;
nodes = (
"148 0 LINE",
"214 529 LINE",
"408 166 LINE",
"598 529 LINE",
"664 0 LINE",
"764 0 LINE",
"671 700 LINE",
"589 700 LINE",
"407 353 LINE",
"223 700 LINE",
"142 700 LINE",
"48 0 LINE"
);
}
);
width = 812;
},
{
anchors = (
{
name = bottom;
position = "{417, 0}";
},
{
name = top;
position = "{417, 700}";
}
);
layerId = "7C863538-AAB4-42AD-A9FE-7240E615272A";
paths = (
{
closed = 1;
nodes = (
"177 0 LINE",
"237 468 LINE",
"417 147 LINE",
"596 469 LINE",
"656 0 LINE",
"789 0 LINE",
"692 700 LINE",
"587 700 LINE",
"417 381 LINE",
"246 700 LINE",
"141 700 LINE",
"44 0 LINE"
);
}
);
width = 833;
},
{
anchors = (
{
name = bottom;
position = "{408.069, 0}";
},
{
name = top;
position = "{408.069, 700}";
}
);
associatedMasterId = UUID0;
layerId = "49D65162-A28E-42EC-9100-F1EEFF603694";
name = "Regular Sep 7 16, 14:04";
paths = (
{
closed = 1;
nodes = (
"148 0 LINE",
"214 529 LINE",
"408 166 LINE",
"598 529 LINE",
"664 0 LINE",
"764 0 LINE",
"671 700 LINE",
"589 700 LINE",
"407 353 LINE",
"223 700 LINE",
"142 700 LINE",
"48 0 LINE"
);
}
);
width = 812;
},
{
anchors = (
{
name = bottom;
position = "{418.622, 0}";
},
{
name = top;
position = "{418.622, 700}";
}
);
associatedMasterId = "7C863538-AAB4-42AD-A9FE-7240E615272A";
layerId = "56A6EF91-75D8-405B-9360-7CBB9B2855F9";
name = "Bold Sep 7 16, 14:04";
paths = (
{
closed = 1;
nodes = (
"177 0 LINE",
"237 468 LINE",
"417 147 LINE",
"596 469 LINE",
"656 0 LINE",
"789 0 LINE",
"692 700 LINE",
"587 700 LINE",
"417 381 LINE",
"246 700 LINE",
"141 700 LINE",
"44 0 LINE"
);
}
);
width = 833;
},
{
anchors = (
{
name = bottom;
position = "{360, 0}";
},
{
name = top;
position = "{360, 700}";
}
);
layerId = "A616F07E-65DE-4D07-A020-83605E49AA22";
paths = (
{
closed = 1;
nodes = (
"145 0 LINE",
"197 555 LINE",
"172 547 LINE",
"360 145 LINE",
"548 547 LINE",
"523 555 LINE",
"575 0 LINE",
"673 0 LINE",
"597 700 LINE",
"519 700 LINE",
"360 341 LINE",
"201 700 LINE",
"123 700 LINE",
"47 0 LINE"
);
}
);
width = 710;
},
{
anchors = (
{
name = bottom;
position = "{366.86, 0}";
},
{
name = top;
position = "{366.86, 700}";
}
);
layerId = "3AF73D1F-32CE-4CF3-BC01-E4A23F7DE30A";
paths = (
{
closed = 1;
nodes = (
"162 0 LINE",
"222 525 LINE",
"180 520 LINE",
"362 141 LINE",
"545 521 LINE",
"502 526 LINE",
"562 0 LINE",
"688 0 LINE",
"600 700 LINE",
"501 700 LINE",
"362 393 LINE",
"223 700 LINE",
"124 700 LINE",
"36 0 LINE"
);
}
);
width = 730;
},
{
anchors = (
{
name = bottom;
position = "{356.809, 0}";
},
{
name = top;
position = "{356.809, 700}";
}
);
associatedMasterId = "A616F07E-65DE-4D07-A020-83605E49AA22";
layerId = "D8C005A1-4C91-420F-A08D-396EDA921F3A";
name = "Condensed Sep 19 16, 18:47";
paths = (
{
closed = 1;
nodes = (
"145 0 LINE",
"194 512 LINE",
"361 149 LINE",
"526 512 LINE",
"575 0 LINE",
"673 0 LINE",
"597 700 LINE",
"518 700 LINE",
"361 336 LINE",
"202 700 LINE",
"124 700 LINE",
"47 0 LINE"
);
}
);
width = 710;
},
{
anchors = (
{
name = bottom;
position = "{366.86, 0}";
},
{
name = top;
position = "{366.86, 700}";
}
);
associatedMasterId = "3AF73D1F-32CE-4CF3-BC01-E4A23F7DE30A";
layerId = "26556D22-8D01-4FF3-BDE5-38C9DF97DC45";
name = "Bold Condensed Sep 19 16, 18:47";
paths = (
{
closed = 1;
nodes = (
"163 0 LINE",
"216 468 LINE",
"362 147 LINE",
"508 469 LINE",
"561 0 LINE",
"687 0 LINE",
"599 700 LINE",
"500 700 LINE",
"362 381 LINE",
"223 700 LINE",
"124 700 LINE",
"36 0 LINE"
);
}
);
width = 730;
}
);
unicode = 004D;
},
{
glyphname = N;
layers = (
{
anchors = (
{
name = bottom;
position = "{359, 0}";
},
{
name = top;
position = "{356, 700}";
}
);
layerId = UUID0;
paths = (
{
closed = 1;
nodes = (
"175 0 LINE",
"175 553 LINE",
"543 0 LINE",
"624 0 LINE",
"624 700 LINE",
"528 700 LINE",
"528 176 LINE",
"183 700 LINE",
"80 700 LINE",
"80 0 LINE"
);
}
);
width = 704;
},
{
anchors = (
{
name = bottom;
position = "{365, 0}";
},
{
name = top;
position = "{353, 700}";
}
);
layerId = "7C863538-AAB4-42AD-A9FE-7240E615272A";
paths = (
{
closed = 1;
nodes = (
"205 0 LINE",
"205 480 LINE",
"525 0 LINE",
"630 0 LINE",
"630 700 LINE",
"502 700 LINE",
"502 248 LINE",
"203 700 LINE",
"77 700 LINE",
"77 0 LINE"
);
}
);
width = 707;
},
{
anchors = (
{
name = bottom;
position = "{359, 0}";
},
{
name = top;
position = "{356, 700}";
}
);
associatedMasterId = UUID0;
layerId = "8B64B668-D02D-4D54-BFC8-07F2135EA705";
name = "Regular Sep 7 16, 14:04";
paths = (
{
closed = 1;
nodes = (
"175 0 LINE",
"175 553 LINE",
"543 0 LINE",
"624 0 LINE",
"624 700 LINE",
"528 700 LINE",
"528 176 LINE",
"183 700 LINE",
"80 700 LINE",
"80 0 LINE"
);
}
);
width = 704;
},
{
anchors = (
{
name = bottom;
position = "{360.53, 0}";
},
{
name = top;
position = "{357.517, 700}";
}
);
associatedMasterId = "7C863538-AAB4-42AD-A9FE-7240E615272A";
layerId = "F906FCDF-DE6F-43EF-AFFE-5D864AA333C7";
name = "Bold Sep 7 16, 14:04";
paths = (
{
closed = 1;
nodes = (
"205 0 LINE",
"205 480 LINE",
"525 0 LINE",
"630 0 LINE",
"630 700 LINE",
"502 700 LINE",
"502 248 LINE",
"203 700 LINE",
"77 700 LINE",
"77 0 LINE"
);
}
);
width = 707;
},
{
anchors = (
{
name = bottom;
position = "{305, 0}";
},
{
name = top;
position = "{308, 700}";
}
);
layerId = "A616F07E-65DE-4D07-A020-83605E49AA22";
paths = (
{
closed = 1;
nodes = (
"158 0 LINE",
"158 539 LINE",
"452 0 LINE",
"537 0 LINE",
"537 700 LINE",
"445 700 LINE",
"445 190 LINE",
"170 700 LINE",
"66 700 LINE",
"66 0 LINE"
);
}
);
width = 603;
},
{
anchors = (
{
name = bottom;
position = "{313, 0}";
},
{
name = top;
position = "{307, 700}";
}
);
layerId = "3AF73D1F-32CE-4CF3-BC01-E4A23F7DE30A";
paths = (
{
closed = 1;
nodes = (
"188 0 LINE",
"188 466 LINE",
"438 0 LINE",
"545 0 LINE",
"545 700 LINE",
"423 700 LINE",
"423 262 LINE",
"191 700 LINE",
"66 700 LINE",
"66 0 LINE"
);
}
);
width = 611;
},
{
associatedMasterId = "A616F07E-65DE-4D07-A020-83605E49AA22";
layerId = "6A486A4E-3AE8-40AD-92BB-E277136C75A9";
name = "Condensed Sep 19 16, 18:47";
paths = (
{
closed = 1;
nodes = (
"160 0 LINE",
"160 553 LINE",
"459 0 LINE",
"537 0 LINE",
"537 700 LINE",
"443 700 LINE",
"443 176 LINE",
"163 700 LINE",
"66 700 LINE",
"66 0 LINE"
);
}
);
width = 603;
},
{
associatedMasterId = "3AF73D1F-32CE-4CF3-BC01-E4A23F7DE30A";
layerId = "A0BA605D-929E-4CD2-AFA6-1929AD8E3EF9";
name = "Bold Condensed Sep 19 16, 18:47";
paths = (
{
closed = 1;
nodes = (
"188 0 LINE",
"188 480 LINE",
"446 0 LINE",
"545 0 LINE",
"545 700 LINE",
"423 700 LINE",
"423 248 LINE",
"183 700 LINE",
"66 700 LINE",
"66 0 LINE"
);
}
);
width = 611;
}
);
leftKerningGroup = I;
rightKerningGroup = I;
unicode = 004E;
},
{
glyphname = Eng;
layers = (
{
layerId = UUID0;
paths = (
{
closed = 1;
nodes = (
"645 460 LINE SMOOTH",
"645 612 OFFCURVE",
"559 714 OFFCURVE",
"387 714 CURVE SMOOTH",
"302 714 OFFCURVE",
"224 686 OFFCURVE",
"167 633 CURVE",
"161 700 LINE",
"80 700 LINE",
"80 0 LINE",
"176 0 LINE",
"176 556 LINE",
"214 599 OFFCURVE",
"278 628 OFFCURVE",
"366 628 CURVE SMOOTH",
"487 628 OFFCURVE",
"549 564 OFFCURVE",
"549 450 CURVE SMOOTH",
"549 40 LINE SMOOTH",
"549 -53 OFFCURVE",
"496 -99 OFFCURVE",
"416 -99 CURVE SMOOTH",
"391 -99 OFFCURVE",
"366 -96 OFFCURVE",
"342 -90 CURVE",
"329 -174 LINE",
"354 -181 OFFCURVE",
"382 -185 OFFCURVE",
"410 -185 CURVE SMOOTH",
"547 -185 OFFCURVE",
"645 -109 OFFCURVE",
"645 50 CURVE SMOOTH"
);
}
);
width = 709;
},
{
layerId = "7C863538-AAB4-42AD-A9FE-7240E615272A";
paths = (
{
closed = 1;
nodes = (
"650 418 LINE SMOOTH",
"650 595 OFFCURVE",
"565 714 OFFCURVE",
"394 714 CURVE SMOOTH",
"316 714 OFFCURVE",
"244 686 OFFCURVE",
"192 633 CURVE",
"186 700 LINE",
"77 700 LINE",
"77 0 LINE",
"205 0 LINE",
"205 519 LINE",
"237 562 OFFCURVE",
"290 591 OFFCURVE",
"363 591 CURVE SMOOTH",
"468 591 OFFCURVE",
"522 522 OFFCURVE",
"522 398 CURVE SMOOTH",
"522 42 LINE SMOOTH",
"522 -41 OFFCURVE",
"473 -82 OFFCURVE",
"400 -82 CURVE SMOOTH",
"375 -82 OFFCURVE",
"350 -80 OFFCURVE",
"326 -75 CURVE",
"313 -193 LINE",
"340 -201 OFFCURVE",
"369 -205 OFFCURVE",
"399 -205 CURVE SMOOTH",
"545 -205 OFFCURVE",
"650 -123 OFFCURVE",
"650 50 CURVE SMOOTH"
);
}
);
width = 720;
},
{
layerId = "A616F07E-65DE-4D07-A020-83605E49AA22";
paths = (
{
closed = 1;
nodes = (
"589 460 LINE SMOOTH",
"589 612 OFFCURVE",
"511 714 OFFCURVE",
"356 714 CURVE SMOOTH",
"279 714 OFFCURVE",
"207 684 OFFCURVE",
"157 633 CURVE",
"151 700 LINE",
"74 700 LINE",
"74 0 LINE",
"166 0 LINE",
"166 556 LINE",
"203 596 OFFCURVE",
"259 630 OFFCURVE",
"335 630 CURVE SMOOTH",
"442 630 OFFCURVE",
"497 565 OFFCURVE",
"497 450 CURVE SMOOTH",
"497 40 LINE SMOOTH",
"497 -54 OFFCURVE",
"446 -101 OFFCURVE",
"369 -101 CURVE SMOOTH",
"346 -101 OFFCURVE",
"323 -98 OFFCURVE",
"301 -92 CURVE",
"288 -174 LINE",
"313 -181 OFFCURVE",
"341 -185 OFFCURVE",
"369 -185 CURVE SMOOTH",
"497 -185 OFFCURVE",
"589 -109 OFFCURVE",
"589 50 CURVE SMOOTH"
);
}
);
width = 649;
},
{
layerId = "3AF73D1F-32CE-4CF3-BC01-E4A23F7DE30A";
paths = (
{
closed = 1;
nodes = (
"593 418 LINE SMOOTH",
"593 595 OFFCURVE",
"515 714 OFFCURVE",
"357 714 CURVE SMOOTH",
"284 714 OFFCURVE",
"217 686 OFFCURVE",
"169 633 CURVE",
"163 700 LINE",
"60 700 LINE",
"60 0 LINE",
"182 0 LINE",
"182 530 LINE",
"211 573 OFFCURVE",
"259 602 OFFCURVE",
"326 602 CURVE SMOOTH",
"422 602 OFFCURVE",
"471 529 OFFCURVE",
"471 398 CURVE SMOOTH",
"471 42 LINE SMOOTH",
"471 -48 OFFCURVE",
"420 -93 OFFCURVE",
"343 -93 CURVE SMOOTH",
"318 -93 OFFCURVE",
"293 -91 OFFCURVE",
"269 -86 CURVE",
"256 -193 LINE",
"283 -201 OFFCURVE",
"312 -205 OFFCURVE",
"342 -205 CURVE SMOOTH",
"488 -205 OFFCURVE",
"593 -123 OFFCURVE",
"593 50 CURVE SMOOTH"
);
}
);
width = 653;
}
);
leftMetricsKey = I;
unicode = 014A;
},
{
glyphname = O;
layers = (
{
anchors = (
{
name = bottom;
position = "{385, 0}";
},
{
name = ogonek;
position = "{437, 0}";
},
{
name = top;
position = "{385, 700}";
},
{
name = topright;
position = "{479, 700}";
}
);
layerId = UUID0;
paths = (
{
closed = 1;
nodes = (
"585 -14 OFFCURVE",
"730 128 OFFCURVE",
"730 350 CURVE SMOOTH",
"730 572 OFFCURVE",
"585 714 OFFCURVE",
"385 714 CURVE SMOOTH",
"185 714 OFFCURVE",
"40 572 OFFCURVE",
"40 350 CURVE SMOOTH",
"40 128 OFFCURVE",
"185 -14 OFFCURVE",
"385 -14 CURVE SMOOTH"
);
},
{
closed = 1;
nodes = (
"224 78 OFFCURVE",
"142 198 OFFCURVE",
"142 350 CURVE SMOOTH",
"142 502 OFFCURVE",
"224 622 OFFCURVE",
"385 622 CURVE SMOOTH",
"546 622 OFFCURVE",
"628 502 OFFCURVE",
"628 350 CURVE SMOOTH",
"628 198 OFFCURVE",
"546 78 OFFCURVE",
"385 78 CURVE SMOOTH"
);
}
);
width = 770;
},
{
anchors = (
{
name = bottom;
position = "{380, 0}";
},
{
name = ogonek;
position = "{444, 0}";
},
{
name = top;
position = "{380, 700}";
},
{
name = topright;
position = "{483, 700}";
}
);
layerId = "7C863538-AAB4-42AD-A9FE-7240E615272A";
paths = (
{
closed = 1;
nodes = (
"580 -14 OFFCURVE",
"725 130 OFFCURVE",
"725 350 CURVE SMOOTH",
"725 570 OFFCURVE",
"580 714 OFFCURVE",
"380 714 CURVE SMOOTH",
"180 714 OFFCURVE",
"35 570 OFFCURVE",
"35 350 CURVE SMOOTH",
"35 130 OFFCURVE",
"180 -14 OFFCURVE",
"380 -14 CURVE SMOOTH"
);
},
{
closed = 1;
nodes = (
"240 110 OFFCURVE",
"169 211 OFFCURVE",
"169 350 CURVE SMOOTH",
"169 489 OFFCURVE",
"240 590 OFFCURVE",
"380 590 CURVE SMOOTH",
"520 590 OFFCURVE",
"591 489 OFFCURVE",
"591 350 CURVE SMOOTH",
"591 211 OFFCURVE",
"520 110 OFFCURVE",
"380 110 CURVE SMOOTH"
);
}
);
width = 760;
},
{
anchors = (
{
name = bottom;
position = "{384, 0}";
},
{
name = center;
position = "{384, 350}";
},
{
name = ogonek;
position = "{691, 10}";
},
{
name = top;
position = "{384, 700}";
},
{
name = topleft;
position = "{20, 700}";
},
{
name = topright;
position = "{563, 700}";
}
);
associatedMasterId = UUID0;
layerId = "7E45970F-A745-4B4E-B89A-68BA4D1F5874";
name = "Regular Sep 7 16, 14:04";
paths = (
{
closed = 1;
nodes = (
"584 -14 OFFCURVE",
"729 128 OFFCURVE",
"729 350 CURVE SMOOTH",
"729 572 OFFCURVE",
"584 714 OFFCURVE",
"384 714 CURVE SMOOTH",
"184 714 OFFCURVE",
"39 572 OFFCURVE",
"39 350 CURVE SMOOTH",
"39 128 OFFCURVE",
"184 -14 OFFCURVE",
"384 -14 CURVE"
);
},
{
closed = 1;
nodes = (
"224 72 OFFCURVE",
"143 195 OFFCURVE",
"143 350 CURVE SMOOTH",
"143 505 OFFCURVE",
"224 628 OFFCURVE",
"384 628 CURVE",
"544 628 OFFCURVE",
"625 505 OFFCURVE",
"625 350 CURVE SMOOTH",
"625 195 OFFCURVE",
"544 72 OFFCURVE",
"384 72 CURVE SMOOTH"
);
}
);
width = 768;
},
{
anchors = (
{
name = bottom;
position = "{380, 0}";
},
{
name = center;
position = "{380, 350}";
},
{
name = ogonek;
position = "{684, 10}";
},
{
name = top;
position = "{380, 700}";
},
{
name = topleft;
position = "{20, 700}";
},
{
name = topright;
position = "{574, 700}";
}
);
associatedMasterId = "7C863538-AAB4-42AD-A9FE-7240E615272A";
layerId = "E8905CB5-8511-4479-BCD6-8FDBCB1B5C03";
name = "Bold Sep 7 16, 14:04";
paths = (
{
closed = 1;
nodes = (
"580 -14 OFFCURVE",
"725 130 OFFCURVE",
"725 350 CURVE SMOOTH",
"725 570 OFFCURVE",
"580 714 OFFCURVE",
"380 714 CURVE SMOOTH",
"180 714 OFFCURVE",
"35 570 OFFCURVE",
"35 350 CURVE SMOOTH",
"35 130 OFFCURVE",
"180 -14 OFFCURVE",
"380 -14 CURVE"
);
},
{
closed = 1;
nodes = (
"244 109 OFFCURVE",
"175 210 OFFCURVE",
"175 350 CURVE SMOOTH",
"175 490 OFFCURVE",
"244 591 OFFCURVE",
"380 591 CURVE",
"516 591 OFFCURVE",
"585 490 OFFCURVE",
"585 350 CURVE SMOOTH",
"585 210 OFFCURVE",
"516 109 OFFCURVE",
"380 109 CURVE SMOOTH"
);
}
);
width = 760;
},
{
anchors = (
{
name = bottom;
position = "{327, 0}";
},
{
name = ogonek;
position = "{348, 0}";
},
{
name = top;
position = "{327, 700}";
},
{
name = topright;
position = "{406, 700}";
}
);
layerId = "A616F07E-65DE-4D07-A020-83605E49AA22";
paths = (
{
closed = 1;
nodes = (
"499 -14 OFFCURVE",
"623 128 OFFCURVE",
"623 350 CURVE SMOOTH",
"623 572 OFFCURVE",
"499 714 OFFCURVE",
"327 714 CURVE SMOOTH",
"155 714 OFFCURVE",
"30 572 OFFCURVE",
"30 350 CURVE SMOOTH",
"30 128 OFFCURVE",
"155 -14 OFFCURVE",
"327 -14 CURVE SMOOTH"
);
},
{
closed = 1;
nodes = (
"195 78 OFFCURVE",
"128 198 OFFCURVE",
"128 350 CURVE SMOOTH",
"128 502 OFFCURVE",
"195 622 OFFCURVE",
"327 622 CURVE SMOOTH",
"459 622 OFFCURVE",
"525 502 OFFCURVE",
"525 350 CURVE SMOOTH",
"525 198 OFFCURVE",
"459 78 OFFCURVE",
"327 78 CURVE SMOOTH"
);
}
);
width = 653;
},
{
anchors = (
{
name = bottom;
position = "{327, 0}";
},
{
name = ogonek;
position = "{348, 0}";
},
{
name = top;
position = "{327, 700}";
},
{
name = topright;
position = "{414, 700}";
}
);
layerId = "3AF73D1F-32CE-4CF3-BC01-E4A23F7DE30A";
paths = (
{
closed = 1;
nodes = (
"500 -14 OFFCURVE",
"624 130 OFFCURVE",
"624 350 CURVE SMOOTH",
"624 570 OFFCURVE",
"500 714 OFFCURVE",
"327 714 CURVE SMOOTH",
"155 714 OFFCURVE",
"30 570 OFFCURVE",
"30 350 CURVE SMOOTH",
"30 130 OFFCURVE",
"155 -14 OFFCURVE",
"327 -14 CURVE SMOOTH"
);
},
{
closed = 1;
nodes = (
"216 109 OFFCURVE",
"160 210 OFFCURVE",
"160 350 CURVE SMOOTH",
"160 490 OFFCURVE",
"216 591 OFFCURVE",
"327 591 CURVE SMOOTH",
"438 591 OFFCURVE",
"494 490 OFFCURVE",
"494 350 CURVE SMOOTH",
"494 210 OFFCURVE",
"438 109 OFFCURVE",
"327 109 CURVE SMOOTH"
);
}
);
width = 654;
},
{
anchors = (
{
name = bottom;
position = "{327, 0}";
},
{
name = center;
position = "{327, 350}";
},
{
name = ogonek;
position = "{588, 10}";
},
{
name = top;
position = "{327, 700}";
},
{
name = topleft;
position = "{20, 700}";
},
{
name = topright;
position = "{495, 700}";
}
);
associatedMasterId = "A616F07E-65DE-4D07-A020-83605E49AA22";
layerId = "F5AE42C6-00D9-474B-B45F-C30AA8DF079D";
name = "Condensed Sep 19 16, 18:47";
paths = (
{
closed = 1;
nodes = (
"499 -14 OFFCURVE",
"623 128 OFFCURVE",
"623 350 CURVE SMOOTH",
"623 572 OFFCURVE",
"499 714 OFFCURVE",
"327 714 CURVE SMOOTH",
"155 714 OFFCURVE",
"30 572 OFFCURVE",
"30 350 CURVE SMOOTH",
"30 128 OFFCURVE",
"155 -14 OFFCURVE",
"327 -14 CURVE"
);
},
{
closed = 1;
nodes = (
"198 72 OFFCURVE",
"132 195 OFFCURVE",
"132 350 CURVE SMOOTH",
"132 505 OFFCURVE",
"198 628 OFFCURVE",
"327 628 CURVE",
"456 628 OFFCURVE",
"521 505 OFFCURVE",
"521 350 CURVE SMOOTH",
"521 195 OFFCURVE",
"456 72 OFFCURVE",
"327 72 CURVE SMOOTH"
);
}
);
width = 653;
},
{
anchors = (
{
name = bottom;
position = "{327, 0}";
},
{
name = center;
position = "{327, 350}";
},
{
name = ogonek;
position = "{588, 10}";
},
{
name = top;
position = "{327, 700}";
},
{
name = topleft;
position = "{20, 700}";
},
{
name = topright;
position = "{510, 709}";
}
);
associatedMasterId = "3AF73D1F-32CE-4CF3-BC01-E4A23F7DE30A";
layerId = "529E11A8-4AE1-4F73-975B-6A52B5ACD27F";
name = "Bold Condensed Sep 19 16, 18:47";
paths = (
{
closed = 1;
nodes = (
"499 -14 OFFCURVE",
"623 130 OFFCURVE",
"623 350 CURVE SMOOTH",
"623 570 OFFCURVE",
"499 714 OFFCURVE",
"327 714 CURVE SMOOTH",
"155 714 OFFCURVE",
"30 570 OFFCURVE",
"30 350 CURVE SMOOTH",
"30 130 OFFCURVE",
"155 -14 OFFCURVE",
"327 -14 CURVE"
);
},
{
closed = 1;
nodes = (
"219 109 OFFCURVE",
"164 210 OFFCURVE",
"164 350 CURVE SMOOTH",
"164 490 OFFCURVE",
"219 591 OFFCURVE",
"327 591 CURVE",
"435 591 OFFCURVE",
"490 490 OFFCURVE",
"490 350 CURVE SMOOTH",
"490 210 OFFCURVE",
"435 109 OFFCURVE",
"327 109 CURVE SMOOTH"
);
}
);
width = 653;
}
);
leftKerningGroup = O;
rightKerningGroup = O;
unicode = 004F;
},
{
glyphname = Oslash;
layers = (
{
anchors = (
{
name = top;
position = "{384, 700}";
}
);
components = (
{
name = O;
}
);
guideLines = (
{
angle = 90;
position = "{730, 350}";
},
{
angle = 90;
position = "{40, 350}";
}
);
layerId = UUID0;
paths = (
{
closed = 1;
nodes = (
"70 -44 LINE",
"161 -44 LINE",
"700 744 LINE",
"609 744 LINE"
);
}
);
width = 770;
},
{
anchors = (
{
name = top;
position = "{380, 700}";
}
);
components = (
{
name = O;
}
);
guideLines = (
{
angle = 90;
position = "{35, 350}";
},
{
angle = 90;
position = "{725, 350}";
}
);
layerId = "7C863538-AAB4-42AD-A9FE-7240E615272A";
paths = (
{
closed = 1;
nodes = (
"61 -44 LINE",
"162 -44 LINE",
"699 744 LINE",
"598 744 LINE"
);
}
);
width = 760;
},
{
anchors = (
{
name = bottom;
position = "{384, 0}";
},
{
name = top;
position = "{384, 700}";
}
);
associatedMasterId = UUID0;
layerId = "A2547FEE-9ACA-4FD2-950B-B2BDB7987CCD";
name = "Regular Sep 16 16, 01:17";
paths = (
{
closed = 1;
nodes = (
"165 -30 LINE",
"207 31 LINE",
"269 0 OFFCURVE",
"324 -12 OFFCURVE",
"383 -12 CURVE SMOOTH",
"584 -12 OFFCURVE",
"729 129 OFFCURVE",
"729 349 CURVE SMOOTH",
"729 462 OFFCURVE",
"691 554 OFFCURVE",
"618 627 CURVE",
"679 716 LINE",
"587 716 LINE",
"556 672 LINE",
"495 702 OFFCURVE",
"442 714 OFFCURVE",
"384 714 CURVE SMOOTH",
"184 714 OFFCURVE",
"39 572 OFFCURVE",
"39 350 CURVE SMOOTH",
"39 240 OFFCURVE",
"75 150 OFFCURVE",
"145 75 CURVE",
"72 -30 LINE"
);
},
{
closed = 1;
nodes = (
"159 231 OFFCURVE",
"147 288 OFFCURVE",
"147 349 CURVE SMOOTH",
"147 505 OFFCURVE",
"225 625 OFFCURVE",
"383 625 CURVE SMOOTH",
"421 625 OFFCURVE",
"453 618 OFFCURVE",
"503 597 CURVE",
"202 156 LINE"
);
},
{
closed = 1;
nodes = (
"346 76 OFFCURVE",
"311 83 OFFCURVE",
"260 105 CURVE",
"563 548 LINE",
"608 493 OFFCURVE",
"621 415 OFFCURVE",
"621 352 CURVE SMOOTH",
"621 196 OFFCURVE",
"543 76 OFFCURVE",
"384 76 CURVE SMOOTH"
);
}
);
width = 767;
},
{
associatedMasterId = "7C863538-AAB4-42AD-A9FE-7240E615272A";
layerId = "690A5614-9FE8-4B28-B43A-6879DD41E1A2";
name = "Bold Sep 16 16, 01:17";
paths = (
{
closed = 1;
nodes = (
"183 -31 LINE",
"219 22 LINE",
"266 -1 OFFCURVE",
"321 -14 OFFCURVE",
"380 -14 CURVE",
"580 -14 OFFCURVE",
"725 130 OFFCURVE",
"725 350 CURVE SMOOTH",
"725 460 OFFCURVE",
"688 552 OFFCURVE",
"626 615 CURVE",
"695 716 LINE",
"561 716 LINE",
"536 680 LINE",
"490 702 OFFCURVE",
"437 714 OFFCURVE",
"380 714 CURVE SMOOTH",
"180 714 OFFCURVE",
"35 570 OFFCURVE",
"35 350 CURVE SMOOTH",
"35 241 OFFCURVE",
"70 151 OFFCURVE",
"130 87 CURVE",
"49 -31 LINE"
);
},
{
closed = 1;
nodes = (
"186 242 OFFCURVE",
"175 293 OFFCURVE",
"175 350 CURVE SMOOTH",
"175 490 OFFCURVE",
"244 591 OFFCURVE",
"380 591 CURVE",
"412 591 OFFCURVE",
"440 585 OFFCURVE",
"464 575 CURVE",
"209 202 LINE"
);
},
{
closed = 1;
nodes = (
"346 109 OFFCURVE",
"316 115 OFFCURVE",
"291 126 CURVE",
"548 502 LINE",
"573 461 OFFCURVE",
"585 409 OFFCURVE",
"585 350 CURVE SMOOTH",
"585 210 OFFCURVE",
"516 109 OFFCURVE",
"380 109 CURVE SMOOTH"
);
}
);
width = 760;
},
{
anchors = (
{
name = bottom;
position = "{327, 0}";
},
{
name = top;
position = "{327, 700}";
}
);
components = (
{
name = O;
}
);
guideLines = (
{
angle = 90;
position = "{30, 350}";
},
{
angle = 90;
position = "{623, 350}";
}
);
layerId = "A616F07E-65DE-4D07-A020-83605E49AA22";
paths = (
{
closed = 1;
nodes = (
"45 -44 LINE",
"130 -44 LINE",
"608 744 LINE",
"523 744 LINE"
);
}
);
width = 653;
},
{
anchors = (
{
name = bottom;
position = "{327, 0}";
},
{
name = top;
position = "{329, 700}";
}
);
components = (
{
name = O;
}
);
guideLines = (
{
angle = 90;
position = "{30, 350}";
},
{
angle = 90;
position = "{624, 350}";
}
);
layerId = "3AF73D1F-32CE-4CF3-BC01-E4A23F7DE30A";
paths = (
{
closed = 1;
nodes = (
"46 -44 LINE",
"141 -44 LINE",
"608 744 LINE",
"513 744 LINE"
);
}
);
width = 654;
},
{
associatedMasterId = "A616F07E-65DE-4D07-A020-83605E49AA22";
layerId = "EFEBBC7C-2BDA-410A-8A2F-AB16121906D0";
name = "Condensed Sep 22 16, 02:18";
paths = (
{
closed = 1;
nodes = (
"146 -30 LINE",
"180 31 LINE",
"228 0 OFFCURVE",
"275 -12 OFFCURVE",
"326 -12 CURVE SMOOTH",
"326 -12 LINE",
"499 -12 OFFCURVE",
"623 129 OFFCURVE",
"623 349 CURVE SMOOTH",
"623 462 OFFCURVE",
"591 554 OFFCURVE",
"532 627 CURVE",
"588 716 LINE",
"493 716 LINE",
"469 672 LINE",
"422 702 OFFCURVE",
"376 714 OFFCURVE",
"327 714 CURVE SMOOTH",
"155 714 OFFCURVE",
"30 572 OFFCURVE",
"30 350 CURVE SMOOTH",
"30 240 OFFCURVE",
"61 150 OFFCURVE",
"117 75 CURVE",
"52 -30 LINE"
);
},
{
closed = 1;
nodes = (
"144 231 OFFCURVE",
"134 288 OFFCURVE",
"134 349 CURVE SMOOTH",
"134 505 OFFCURVE",
"198 625 OFFCURVE",
"326 625 CURVE SMOOTH",
"326 625 LINE",
"357 625 OFFCURVE",
"383 618 OFFCURVE",
"416 597 CURVE",
"174 156 LINE"
);
},
{
closed = 1;
nodes = (
"295 76 OFFCURVE",
"267 83 OFFCURVE",
"233 105 CURVE",
"477 548 LINE",
"508 493 OFFCURVE",
"519 415 OFFCURVE",
"519 352 CURVE SMOOTH",
"519 196 OFFCURVE",
"455 76 OFFCURVE",
"327 76 CURVE SMOOTH"
);
}
);
width = 653;
},
{
associatedMasterId = "3AF73D1F-32CE-4CF3-BC01-E4A23F7DE30A";
layerId = "B91C55BC-D639-4C6B-A590-83B76C533620";
name = "Bold Condensed Sep 22 16, 02:18";
paths = (
{
closed = 1;
nodes = (
"165 -31 LINE",
"194 22 LINE",
"229 -1 OFFCURVE",
"276 -14 OFFCURVE",
"327 -14 CURVE SMOOTH",
"327 -14 LINE",
"499 -14 OFFCURVE",
"623 130 OFFCURVE",
"623 350 CURVE SMOOTH",
"623 460 OFFCURVE",
"592 552 OFFCURVE",
"543 615 CURVE",
"605 716 LINE",
"474 716 LINE",
"455 680 LINE",
"421 702 OFFCURVE",
"375 714 OFFCURVE",
"327 714 CURVE SMOOTH",
"155 714 OFFCURVE",
"30 570 OFFCURVE",
"30 350 CURVE SMOOTH",
"30 241 OFFCURVE",
"60 151 OFFCURVE",
"108 87 CURVE",
"35 -31 LINE"
);
},
{
closed = 1;
nodes = (
"171 242 OFFCURVE",
"162 293 OFFCURVE",
"162 350 CURVE SMOOTH",
"162 490 OFFCURVE",
"218 591 OFFCURVE",
"327 591 CURVE SMOOTH",
"327 591 LINE",
"352 591 OFFCURVE",
"375 585 OFFCURVE",
"386 575 CURVE",
"184 202 LINE"
);
},
{
closed = 1;
nodes = (
"299 109 OFFCURVE",
"275 115 OFFCURVE",
"263 126 CURVE",
"467 502 LINE",
"481 461 OFFCURVE",
"491 409 OFFCURVE",
"491 350 CURVE SMOOTH",
"491 210 OFFCURVE",
"435 109 OFFCURVE",
"327 109 CURVE SMOOTH"
);
}
);
width = 653;
}
);
leftKerningGroup = O;
leftMetricsKey = O;
rightKerningGroup = O;
rightMetricsKey = O;
unicode = 00D8;
},
{
glyphname = OE;
layers = (
{
layerId = UUID0;
paths = (
{
closed = 1;
nodes = (
"700 572 OFFCURVE",
"551 714 OFFCURVE",
"372 714 CURVE SMOOTH",
"179 714 OFFCURVE",
"40 572 OFFCURVE",
"40 350 CURVE SMOOTH",
"40 128 OFFCURVE",
"179 -14 OFFCURVE",
"372 -14 CURVE SMOOTH",
"551 -14 OFFCURVE",
"700 128 OFFCURVE",
"700 350 CURVE SMOOTH"
);
},
{
closed = 1;
nodes = (
"218 72 OFFCURVE",
"140 193 OFFCURVE",
"140 350 CURVE SMOOTH",
"140 507 OFFCURVE",
"218 628 OFFCURVE",
"378 628 CURVE SMOOTH",
"537 628 OFFCURVE",
"615 507 OFFCURVE",
"615 350 CURVE SMOOTH",
"615 193 OFFCURVE",
"537 72 OFFCURVE",
"378 72 CURVE SMOOTH"
);
},
{
closed = 1;
nodes = (
"624 0 LINE",
"1034 0 LINE",
"1034 86 LINE",
"715 86 LINE",
"715 323 LINE",
"953 323 LINE",
"953 409 LINE",
"715 409 LINE",
"715 614 LINE",
"1025 614 LINE",
"1025 699 LINE",
"624 699 LINE"
);
}
);
width = 1071;
},
{
layerId = "7C863538-AAB4-42AD-A9FE-7240E615272A";
paths = (
{
closed = 1;
nodes = (
"699 570 OFFCURVE",
"556 714 OFFCURVE",
"380 714 CURVE SMOOTH",
"180 714 OFFCURVE",
"35 570 OFFCURVE",
"35 350 CURVE SMOOTH",
"35 130 OFFCURVE",
"180 -14 OFFCURVE",
"380 -14 CURVE SMOOTH",
"556 -14 OFFCURVE",
"699 130 OFFCURVE",
"699 350 CURVE SMOOTH"
);
},
{
closed = 1;
nodes = (
"244 109 OFFCURVE",
"175 210 OFFCURVE",
"175 350 CURVE SMOOTH",
"175 490 OFFCURVE",
"244 591 OFFCURVE",
"380 591 CURVE SMOOTH",
"516 591 OFFCURVE",
"585 490 OFFCURVE",
"585 350 CURVE SMOOTH",
"585 210 OFFCURVE",
"516 109 OFFCURVE",
"380 109 CURVE SMOOTH"
);
},
{
closed = 1;
nodes = (
"593 0 LINE",
"1029 0 LINE",
"1029 124 LINE",
"724 124 LINE",
"724 303 LINE",
"952 303 LINE",
"952 427 LINE",
"724 427 LINE",
"724 576 LINE",
"1020 576 LINE",
"1020 700 LINE",
"593 700 LINE"
);
}
);
width = 1063;
},
{
associatedMasterId = UUID0;
layerId = "68E1AC4C-5243-4D86-9B48-7D5FCEF9918E";
name = "Regular Sep 7 16, 18:52";
paths = (
{
closed = 1;
nodes = (
"459 -14 OFFCURVE",
"530 11 OFFCURVE",
"624 83 CURVE",
"624 0 LINE",
"1034 0 LINE",
"1034 86 LINE",
"715 86 LINE",
"715 323 LINE",
"953 323 LINE",
"953 409 LINE",
"715 409 LINE",
"715 614 LINE",
"1025 614 LINE",
"1025 699 LINE",
"624 699 LINE",
"624 617 LINE",
"530 689 OFFCURVE",
"459 714 OFFCURVE",
"378 714 CURVE SMOOTH",
"182 714 OFFCURVE",
"40 572 OFFCURVE",
"40 350 CURVE SMOOTH",
"40 128 OFFCURVE",
"182 -14 OFFCURVE",
"378 -14 CURVE SMOOTH"
);
},
{
closed = 1;
nodes = (
"218 72 OFFCURVE",
"140 193 OFFCURVE",
"140 350 CURVE SMOOTH",
"140 507 OFFCURVE",
"218 628 OFFCURVE",
"378 628 CURVE",
"537 628 OFFCURVE",
"615 507 OFFCURVE",
"615 350 CURVE SMOOTH",
"615 193 OFFCURVE",
"537 72 OFFCURVE",
"378 72 CURVE SMOOTH"
);
}
);
width = 1071;
},
{
associatedMasterId = "7C863538-AAB4-42AD-A9FE-7240E615272A";
layerId = "A679C019-821F-4AB7-A8EC-ADCCFA97B1C6";
name = "Bold Sep 7 16, 18:52";
paths = (
{
closed = 1;
nodes = (
"462 -14 OFFCURVE",
"535 11 OFFCURVE",
"593 55 CURVE",
"593 0 LINE",
"1029 0 LINE",
"1029 124 LINE",
"724 124 LINE",
"724 303 LINE",
"952 303 LINE",
"952 427 LINE",
"724 427 LINE",
"724 576 LINE",
"1020 576 LINE",
"1020 700 LINE",
"593 700 LINE",
"593 645 LINE",
"535 689 OFFCURVE",
"462 714 OFFCURVE",
"380 714 CURVE SMOOTH",
"180 714 OFFCURVE",
"35 570 OFFCURVE",
"35 350 CURVE SMOOTH",
"35 130 OFFCURVE",
"180 -14 OFFCURVE",
"380 -14 CURVE SMOOTH"
);
},
{
closed = 1;
nodes = (
"244 109 OFFCURVE",
"175 210 OFFCURVE",
"175 350 CURVE SMOOTH",
"175 490 OFFCURVE",
"244 591 OFFCURVE",
"380 591 CURVE",
"516 591 OFFCURVE",
"585 490 OFFCURVE",
"585 350 CURVE SMOOTH",
"585 210 OFFCURVE",
"516 109 OFFCURVE",
"380 109 CURVE SMOOTH"
);
}
);
width = 1063;
},
{
layerId = "A616F07E-65DE-4D07-A020-83605E49AA22";
paths = (
{
closed = 1;
nodes = (
"487 -14 OFFCURVE",
"603 143 OFFCURVE",
"603 350 CURVE SMOOTH",
"603 557 OFFCURVE",
"487 714 OFFCURVE",
"318 714 CURVE SMOOTH",
"151 714 OFFCURVE",
"30 572 OFFCURVE",
"30 350 CURVE SMOOTH",
"30 128 OFFCURVE",
"151 -14 OFFCURVE",
"318 -14 CURVE SMOOTH"
);
},
{
closed = 1;
nodes = (
"198 72 OFFCURVE",
"132 195 OFFCURVE",
"132 350 CURVE SMOOTH",
"132 505 OFFCURVE",
"198 628 OFFCURVE",
"327 628 CURVE SMOOTH",
"456 628 OFFCURVE",
"521 505 OFFCURVE",
"521 350 CURVE SMOOTH",
"521 195 OFFCURVE",
"456 72 OFFCURVE",
"327 72 CURVE SMOOTH"
);
},
{
closed = 1;
nodes = (
"906 0 LINE",
"906 86 LINE",
"618 86 LINE",
"618 323 LINE",
"838 323 LINE",
"838 409 LINE",
"618 409 LINE",
"618 614 LINE",
"898 614 LINE",
"898 700 LINE",
"523 700 LINE",
"523 0 LINE"
);
}
);
width = 935;
},
{
layerId = "3AF73D1F-32CE-4CF3-BC01-E4A23F7DE30A";
paths = (
{
closed = 1;
nodes = (
"488 -14 OFFCURVE",
"603 150 OFFCURVE",
"603 350 CURVE SMOOTH",
"603 550 OFFCURVE",
"488 714 OFFCURVE",
"317 714 CURVE SMOOTH",
"151 714 OFFCURVE",
"30 570 OFFCURVE",
"30 350 CURVE SMOOTH",
"30 130 OFFCURVE",
"151 -14 OFFCURVE",
"317 -14 CURVE SMOOTH"
);
},
{
closed = 1;
nodes = (
"219 109 OFFCURVE",
"164 210 OFFCURVE",
"164 350 CURVE SMOOTH",
"164 490 OFFCURVE",
"219 591 OFFCURVE",
"327 591 CURVE SMOOTH",
"435 591 OFFCURVE",
"490 490 OFFCURVE",
"490 350 CURVE SMOOTH",
"490 210 OFFCURVE",
"435 109 OFFCURVE",
"327 109 CURVE SMOOTH"
);
},
{
closed = 1;
nodes = (
"902 0 LINE",
"902 124 LINE",
"626 124 LINE",
"626 303 LINE",
"831 303 LINE",
"831 427 LINE",
"626 427 LINE",
"626 576 LINE",
"893 576 LINE",
"893 700 LINE",
"500 700 LINE",
"500 0 LINE"
);
}
);
width = 931;
}
);
leftKerningGroup = O;
rightKerningGroup = E;
unicode = 0152;
},
{
glyphname = P;
layers = (
{
background = {
paths = (
{
closed = 1;
nodes = (
"330 245 LINE SMOOTH",
"423 245 OFFCURVE",
"546 300 OFFCURVE",
"546 482 CURVE SMOOTH",
"546 670 OFFCURVE",
"453 700 OFFCURVE",
"252 700 CURVE SMOOTH",
"64 700 LINE",
"64 0 LINE",
"164 0 LINE",
"164 245 LINE"
);
},
{
closed = 1;
nodes = (
"284 615 LINE SMOOTH",
"407 615 OFFCURVE",
"447 578 OFFCURVE",
"447 478 CURVE SMOOTH",
"447 384 OFFCURVE",
"409 330 OFFCURVE",
"312 330 CURVE SMOOTH",
"164 330 LINE",
"164 615 LINE"
);
}
);
};
layerId = UUID0;
paths = (
{
closed = 1;
nodes = (
"180 0 LINE",
"180 245 LINE",
"311 245 LINE SMOOTH",
"452 245 OFFCURVE",
"548 312 OFFCURVE",
"548 473 CURVE SMOOTH",
"548 637 OFFCURVE",
"452 700 OFFCURVE",
"311 700 CURVE SMOOTH",
"80 700 LINE",
"80 0 LINE"
);
},
{
closed = 1;
nodes = (
"180 615 LINE",
"297 615 LINE SMOOTH",
"404 615 OFFCURVE",
"450 569 OFFCURVE",
"450 472 CURVE SMOOTH",
"450 375 OFFCURVE",
"399 330 OFFCURVE",
"297 330 CURVE SMOOTH",
"180 330 LINE"
);
}
);
width = 572;
},
{
background = {
paths = (
{
closed = 1;
nodes = (
"264 230 LINE SMOOTH",
"480 230 OFFCURVE",
"575 288 OFFCURVE",
"575 478 CURVE SMOOTH",
"575 670 OFFCURVE",
"469 700 OFFCURVE",
"275 700 CURVE SMOOTH",
"77 700 LINE",
"77 0 LINE",
"205 0 LINE",
"205 230 LINE"
);
},
{
closed = 1;
nodes = (
"310 593 LINE SMOOTH",
"417 593 OFFCURVE",
"445 557 OFFCURVE",
"445 477 CURVE SMOOTH",
"445 382 OFFCURVE",
"406 350 OFFCURVE",
"313 350 CURVE SMOOTH",
"205 350 LINE",
"205 593 LINE"
);
}
);
};
layerId = "7C863538-AAB4-42AD-A9FE-7240E615272A";
paths = (
{
closed = 1;
nodes = (
"205 0 LINE",
"205 243 LINE",
"329 243 LINE SMOOTH",
"487 243 OFFCURVE",
"575 316 OFFCURVE",
"575 474 CURVE SMOOTH",
"575 630 OFFCURVE",
"487 700 OFFCURVE",
"326 700 CURVE SMOOTH",
"77 700 LINE",
"77 0 LINE"
);
},
{
closed = 1;
nodes = (
"205 593 LINE",
"311 593 LINE SMOOTH",
"401 593 OFFCURVE",
"445 556 OFFCURVE",
"445 472 CURVE SMOOTH",
"445 388 OFFCURVE",
"401 350 OFFCURVE",
"314 350 CURVE SMOOTH",
"205 350 LINE"
);
}
);
width = 596;
},
{
associatedMasterId = UUID0;
background = {
paths = (
{
closed = 1;
nodes = (
"330 245 LINE SMOOTH",
"423 245 OFFCURVE",
"546 300 OFFCURVE",
"546 482 CURVE SMOOTH",
"546 670 OFFCURVE",
"453 700 OFFCURVE",
"252 700 CURVE SMOOTH",
"64 700 LINE",
"64 0 LINE",
"164 0 LINE",
"164 245 LINE"
);
},
{
closed = 1;
nodes = (
"284 615 LINE SMOOTH",
"407 615 OFFCURVE",
"447 578 OFFCURVE",
"447 478 CURVE SMOOTH",
"447 384 OFFCURVE",
"409 330 OFFCURVE",
"312 330 CURVE SMOOTH",
"164 330 LINE",
"164 615 LINE"
);
}
);
};
layerId = "245AF583-0EB8-4E1A-920B-20FF58D64D55";
name = "Regular Sep 7 16, 14:04";
paths = (
{
closed = 1;
nodes = (
"180 0 LINE",
"180 245 LINE",
"332 245 LINE SMOOTH",
"425 245 OFFCURVE",
"548 300 OFFCURVE",
"548 482 CURVE SMOOTH",
"548 670 OFFCURVE",
"434 700 OFFCURVE",
"304 700 CURVE SMOOTH",
"80 700 LINE",
"80 0 LINE"
);
},
{
closed = 1;
nodes = (
"180 615 LINE",
"286 615 LINE SMOOTH",
"409 615 OFFCURVE",
"449 578 OFFCURVE",
"449 478 CURVE SMOOTH",
"449 384 OFFCURVE",
"411 330 OFFCURVE",
"314 330 CURVE SMOOTH",
"180 330 LINE"
);
}
);
width = 572;
},
{
associatedMasterId = "7C863538-AAB4-42AD-A9FE-7240E615272A";
background = {
paths = (
{
closed = 1;
nodes = (
"264 230 LINE SMOOTH",
"480 230 OFFCURVE",
"575 288 OFFCURVE",
"575 478 CURVE SMOOTH",
"575 670 OFFCURVE",
"469 700 OFFCURVE",
"275 700 CURVE SMOOTH",
"77 700 LINE",
"77 0 LINE",
"205 0 LINE",
"205 230 LINE"
);
},
{
closed = 1;
nodes = (
"310 593 LINE SMOOTH",
"417 593 OFFCURVE",
"445 557 OFFCURVE",
"445 477 CURVE SMOOTH",
"445 382 OFFCURVE",
"406 350 OFFCURVE",
"313 350 CURVE SMOOTH",
"205 350 LINE",
"205 593 LINE"
);
}
);
};
layerId = "70BF247B-CFAA-4243-8112-0DF3AA9DD639";
name = "Bold Sep 7 16, 14:04";
paths = (
{
closed = 1;
nodes = (
"205 0 LINE",
"205 230 LINE",
"330 230 LINE SMOOTH",
"429 230 OFFCURVE",
"575 277 OFFCURVE",
"575 478 CURVE SMOOTH",
"575 670 OFFCURVE",
"469 700 OFFCURVE",
"275 700 CURVE SMOOTH",
"77 700 LINE",
"77 0 LINE"
);
},
{
closed = 1;
nodes = (
"205 593 LINE",
"310 593 LINE SMOOTH",
"417 593 OFFCURVE",
"445 557 OFFCURVE",
"445 477 CURVE SMOOTH",
"445 382 OFFCURVE",
"406 350 OFFCURVE",
"313 350 CURVE SMOOTH",
"205 350 LINE"
);
}
);
width = 596;
},
{
background = {
paths = (
{
closed = 1;
nodes = (
"343 245 LINE SMOOTH",
"436 245 OFFCURVE",
"559 300 OFFCURVE",
"559 482 CURVE SMOOTH",
"559 670 OFFCURVE",
"466 700 OFFCURVE",
"265 700 CURVE SMOOTH",
"77 700 LINE",
"77 0 LINE",
"177 0 LINE",
"177 245 LINE"
);
},
{
closed = 1;
nodes = (
"297 615 LINE SMOOTH",
"420 615 OFFCURVE",
"460 578 OFFCURVE",
"460 478 CURVE SMOOTH",
"460 384 OFFCURVE",
"422 330 OFFCURVE",
"325 330 CURVE SMOOTH",
"177 330 LINE",
"177 615 LINE"
);
}
);
};
layerId = "A616F07E-65DE-4D07-A020-83605E49AA22";
paths = (
{
closed = 1;
nodes = (
"166 0 LINE",
"166 245 LINE",
"254 245 LINE SMOOTH",
"398 245 OFFCURVE",
"487 323 OFFCURVE",
"487 473 CURVE SMOOTH",
"487 623 OFFCURVE",
"398 700 OFFCURVE",
"254 700 CURVE SMOOTH",
"74 700 LINE",
"74 0 LINE"
);
},
{
closed = 1;
nodes = (
"166 616 LINE",
"246 616 LINE SMOOTH",
"347 616 OFFCURVE",
"391 563 OFFCURVE",
"391 473 CURVE SMOOTH",
"391 383 OFFCURVE",
"347 329 OFFCURVE",
"246 329 CURVE SMOOTH",
"166 329 LINE"
);
}
);
width = 505;
},
{
background = {
paths = (
{
closed = 1;
nodes = (
"264 230 LINE SMOOTH",
"480 230 OFFCURVE",
"575 288 OFFCURVE",
"575 478 CURVE SMOOTH",
"575 670 OFFCURVE",
"469 700 OFFCURVE",
"275 700 CURVE SMOOTH",
"77 700 LINE",
"77 0 LINE",
"205 0 LINE",
"205 230 LINE"
);
},
{
closed = 1;
nodes = (
"310 593 LINE SMOOTH",
"417 593 OFFCURVE",
"445 557 OFFCURVE",
"445 477 CURVE SMOOTH",
"445 382 OFFCURVE",
"406 350 OFFCURVE",
"313 350 CURVE SMOOTH",
"205 350 LINE",
"205 593 LINE"
);
}
);
};
layerId = "3AF73D1F-32CE-4CF3-BC01-E4A23F7DE30A";
paths = (
{
closed = 1;
nodes = (
"182 0 LINE",
"182 236 LINE",
"264 236 LINE SMOOTH",
"404 236 OFFCURVE",
"499 310 OFFCURVE",
"499 468 CURVE SMOOTH",
"499 626 OFFCURVE",
"404 700 OFFCURVE",
"264 700 CURVE SMOOTH",
"60 700 LINE",
"60 0 LINE"
);
},
{
closed = 1;
nodes = (
"182 594 LINE",
"253 594 LINE SMOOTH",
"327 594 OFFCURVE",
"373 555 OFFCURVE",
"373 468 CURVE SMOOTH",
"373 374 OFFCURVE",
"327 342 OFFCURVE",
"253 342 CURVE SMOOTH",
"182 342 LINE"
);
}
);
width = 519;
},
{
associatedMasterId = "A616F07E-65DE-4D07-A020-83605E49AA22";
background = {
paths = (
{
closed = 1;
nodes = (
"343 245 LINE SMOOTH",
"436 245 OFFCURVE",
"559 300 OFFCURVE",
"559 482 CURVE SMOOTH",
"559 670 OFFCURVE",
"466 700 OFFCURVE",
"265 700 CURVE SMOOTH",
"77 700 LINE",
"77 0 LINE",
"177 0 LINE",
"177 245 LINE"
);
},
{
closed = 1;
nodes = (
"297 615 LINE SMOOTH",
"420 615 OFFCURVE",
"460 578 OFFCURVE",
"460 478 CURVE SMOOTH",
"460 384 OFFCURVE",
"422 330 OFFCURVE",
"325 330 CURVE SMOOTH",
"177 330 LINE",
"177 615 LINE"
);
}
);
};
layerId = "E8C0090D-1C47-42B3-9DA9-F2FB4DD53EB9";
name = "Condensed Sep 19 16, 18:47";
paths = (
{
closed = 1;
nodes = (
"170 0 LINE",
"170 245 LINE",
"291 245 LINE SMOOTH",
"373 245 OFFCURVE",
"487 300 OFFCURVE",
"487 482 CURVE SMOOTH",
"487 670 OFFCURVE",
"392 700 OFFCURVE",
"257 700 CURVE SMOOTH",
"74 700 LINE",
"74 0 LINE"
);
},
{
closed = 1;
nodes = (
"170 615 LINE",
"261 615 LINE SMOOTH",
"361 615 OFFCURVE",
"391 578 OFFCURVE",
"391 478 CURVE SMOOTH",
"391 384 OFFCURVE",
"358 330 OFFCURVE",
"276 330 CURVE SMOOTH",
"170 330 LINE"
);
}
);
width = 505;
},
{
associatedMasterId = "3AF73D1F-32CE-4CF3-BC01-E4A23F7DE30A";
background = {
paths = (
{
closed = 1;
nodes = (
"264 230 LINE SMOOTH",
"480 230 OFFCURVE",
"575 288 OFFCURVE",
"575 478 CURVE SMOOTH",
"575 670 OFFCURVE",
"469 700 OFFCURVE",
"275 700 CURVE SMOOTH",
"77 700 LINE",
"77 0 LINE",
"205 0 LINE",
"205 230 LINE"
);
},
{
closed = 1;
nodes = (
"310 593 LINE SMOOTH",
"417 593 OFFCURVE",
"445 557 OFFCURVE",
"445 477 CURVE SMOOTH",
"445 382 OFFCURVE",
"406 350 OFFCURVE",
"313 350 CURVE SMOOTH",
"205 350 LINE",
"205 593 LINE"
);
}
);
};
layerId = "F859BC28-6F9F-4258-B210-712E74B741EA";
name = "Bold Condensed Sep 19 16, 18:47";
paths = (
{
closed = 1;
nodes = (
"180 0 LINE",
"180 230 LINE",
"278 230 LINE SMOOTH",
"365 230 OFFCURVE",
"499 277 OFFCURVE",
"499 478 CURVE SMOOTH",
"499 670 OFFCURVE",
"411 700 OFFCURVE",
"221 700 CURVE SMOOTH",
"60 700 LINE",
"60 0 LINE"
);
},
{
closed = 1;
nodes = (
"180 593 LINE",
"270 593 LINE SMOOTH",
"356 593 OFFCURVE",
"376 557 OFFCURVE",
"376 477 CURVE SMOOTH",
"376 382 OFFCURVE",
"342 350 OFFCURVE",
"264 350 CURVE SMOOTH",
"180 350 LINE"
);
}
);
width = 519;
}
);
leftKerningGroup = I;
unicode = 0050;
},
{
glyphname = Thorn;
layers = (
{
layerId = UUID0;
paths = (
{
closed = 1;
nodes = (
"180 0 LINE",
"180 191 LINE",
"345 191 LINE SMOOTH",
"487 191 OFFCURVE",
"550 262 OFFCURVE",
"550 368 CURVE SMOOTH",
"550 474 OFFCURVE",
"488 545 OFFCURVE",
"345 545 CURVE SMOOTH",
"180 545 LINE",
"180 700 LINE",
"80 700 LINE",
"80 0 LINE"
);
},
{
closed = 1;
nodes = (
"180 460 LINE",
"338 460 LINE SMOOTH",
"413 460 OFFCURVE",
"452 428 OFFCURVE",
"452 368 CURVE SMOOTH",
"452 308 OFFCURVE",
"413 276 OFFCURVE",
"338 276 CURVE SMOOTH",
"180 276 LINE"
);
}
);
width = 574;
},
{
layerId = "7C863538-AAB4-42AD-A9FE-7240E615272A";
paths = (
{
closed = 1;
nodes = (
"205 0 LINE",
"205 165 LINE",
"323 165 LINE SMOOTH",
"471 165 OFFCURVE",
"547 235 OFFCURVE",
"547 360 CURVE SMOOTH",
"547 485 OFFCURVE",
"471 555 OFFCURVE",
"323 555 CURVE SMOOTH",
"205 555 LINE",
"205 700 LINE",
"77 700 LINE",
"77 0 LINE"
);
},
{
closed = 1;
nodes = (
"205 448 LINE",
"308 448 LINE SMOOTH",
"391 448 OFFCURVE",
"417 422 OFFCURVE",
"417 360 CURVE SMOOTH",
"417 305 OFFCURVE",
"391 272 OFFCURVE",
"308 272 CURVE SMOOTH",
"205 272 LINE"
);
}
);
width = 568;
},
{
associatedMasterId = "7C863538-AAB4-42AD-A9FE-7240E615272A";
layerId = "A2B80D7A-485A-476D-9567-D2AE5A22F83C";
name = "Bold Sep 16 16, 01:43";
paths = (
{
closed = 1;
nodes = (
"205 0 LINE",
"205 193 LINE",
"251 193 LINE SMOOTH",
"447 193 OFFCURVE",
"547 239 OFFCURVE",
"547 389 CURVE SMOOTH",
"547 545 OFFCURVE",
"439 569 OFFCURVE",
"251 569 CURVE SMOOTH",
"205 569 LINE",
"205 700 LINE",
"77 700 LINE",
"77 0 LINE"
);
},
{
closed = 1;
nodes = (
"205 471 LINE",
"284 471 LINE SMOOTH",
"387 471 OFFCURVE",
"417 445 OFFCURVE",
"417 383 CURVE SMOOTH",
"417 324 OFFCURVE",
"385 289 OFFCURVE",
"284 289 CURVE SMOOTH",
"205 289 LINE"
);
}
);
width = 564;
},
{
layerId = "A616F07E-65DE-4D07-A020-83605E49AA22";
paths = (
{
closed = 1;
nodes = (
"166 0 LINE",
"166 191 LINE",
"289 191 LINE SMOOTH",
"431 191 OFFCURVE",
"494 262 OFFCURVE",
"494 368 CURVE SMOOTH",
"494 474 OFFCURVE",
"432 545 OFFCURVE",
"289 545 CURVE SMOOTH",
"166 545 LINE",
"166 700 LINE",
"74 700 LINE",
"74 0 LINE"
);
},
{
closed = 1;
nodes = (
"166 465 LINE",
"282 465 LINE SMOOTH",
"361 465 OFFCURVE",
"402 431 OFFCURVE",
"402 368 CURVE SMOOTH",
"402 305 OFFCURVE",
"361 271 OFFCURVE",
"282 271 CURVE SMOOTH",
"166 271 LINE"
);
}
);
width = 512;
},
{
layerId = "3AF73D1F-32CE-4CF3-BC01-E4A23F7DE30A";
paths = (
{
closed = 1;
nodes = (
"182 0 LINE",
"182 165 LINE",
"286 165 LINE SMOOTH",
"434 165 OFFCURVE",
"510 235 OFFCURVE",
"510 360 CURVE SMOOTH",
"510 485 OFFCURVE",
"434 555 OFFCURVE",
"286 555 CURVE SMOOTH",
"182 555 LINE",
"182 700 LINE",
"60 700 LINE",
"60 0 LINE"
);
},
{
closed = 1;
nodes = (
"182 455 LINE",
"271 455 LINE SMOOTH",
"360 455 OFFCURVE",
"388 427 OFFCURVE",
"388 360 CURVE SMOOTH",
"388 301 OFFCURVE",
"360 265 OFFCURVE",
"271 265 CURVE SMOOTH",
"182 265 LINE"
);
}
);
width = 530;
},
{
associatedMasterId = "A616F07E-65DE-4D07-A020-83605E49AA22";
layerId = "6F40A53D-6F1B-4EBD-BF9B-4510422C8DC0";
name = "Condensed Sep 22 16, 02:53";
paths = (
{
closed = 1;
nodes = (
"170 0 LINE",
"170 125 LINE",
"291 125 LINE SMOOTH",
"373 125 OFFCURVE",
"487 180 OFFCURVE",
"487 362 CURVE SMOOTH",
"487 550 OFFCURVE",
"392 580 OFFCURVE",
"257 580 CURVE",
"170 580 LINE",
"170 700 LINE",
"74 700 LINE",
"74 0 LINE"
);
},
{
closed = 1;
nodes = (
"170 495 LINE",
"261 495 LINE SMOOTH",
"361 495 OFFCURVE",
"391 458 OFFCURVE",
"391 358 CURVE SMOOTH",
"391 264 OFFCURVE",
"358 210 OFFCURVE",
"276 210 CURVE SMOOTH",
"170 210 LINE"
);
}
);
width = 505;
},
{
associatedMasterId = "3AF73D1F-32CE-4CF3-BC01-E4A23F7DE30A";
layerId = "747BAD72-7A52-4CFF-91B4-3491C289B56F";
name = "Bold Condensed Sep 22 16, 02:53";
paths = (
{
closed = 1;
nodes = (
"180 0 LINE",
"180 114 LINE",
"278 114 LINE SMOOTH",
"365 114 OFFCURVE",
"499 161 OFFCURVE",
"499 362 CURVE SMOOTH",
"499 554 OFFCURVE",
"411 584 OFFCURVE",
"221 584 CURVE",
"180 584 LINE",
"180 700 LINE",
"60 700 LINE",
"60 0 LINE"
);
},
{
closed = 1;
nodes = (
"180 477 LINE",
"270 477 LINE SMOOTH",
"356 477 OFFCURVE",
"376 441 OFFCURVE",
"376 361 CURVE SMOOTH",
"376 266 OFFCURVE",
"342 234 OFFCURVE",
"264 234 CURVE SMOOTH",
"180 234 LINE"
);
}
);
width = 519;
visible = 1;
}
);
leftKerningGroup = I;
leftMetricsKey = I;
rightMetricsKey = P;
unicode = 00DE;
},
{
glyphname = Q;
layers = (
{
components = (
{
name = O;
}
);
layerId = UUID0;
paths = (
{
closed = 1;
nodes = (
"661 -14 LINE",
"715 41 LINE",
"495 257 LINE",
"441 202 LINE"
);
}
);
width = 770;
},
{
components = (
{
name = O;
}
);
layerId = "7C863538-AAB4-42AD-A9FE-7240E615272A";
paths = (
{
closed = 1;
nodes = (
"645 -19 LINE",
"724 66 LINE",
"480 298 LINE",
"401 213 LINE"
);
}
);
width = 760;
},
{
associatedMasterId = UUID0;
layerId = "13B6650E-EE8C-44A1-B9A7-471E487220D1";
name = "Regular Sep 7 16, 14:04";
paths = (
{
closed = 1;
nodes = (
"462 -14 OFFCURVE",
"532 8 OFFCURVE",
"600 57 CURVE",
"665 3 LINE",
"715 62 LINE",
"655 111 LINE",
"706 187 OFFCURVE",
"729 263 OFFCURVE",
"729 350 CURVE SMOOTH",
"729 572 OFFCURVE",
"584 714 OFFCURVE",
"384 714 CURVE SMOOTH",
"184 714 OFFCURVE",
"39 572 OFFCURVE",
"39 350 CURVE SMOOTH",
"39 128 OFFCURVE",
"184 -14 OFFCURVE",
"384 -14 CURVE SMOOTH"
);
},
{
closed = 1;
nodes = (
"222 72 OFFCURVE",
"143 194 OFFCURVE",
"143 350 CURVE SMOOTH",
"143 506 OFFCURVE",
"222 628 OFFCURVE",
"384 628 CURVE",
"546 628 OFFCURVE",
"635 506 OFFCURVE",
"635 350 CURVE SMOOTH",
"635 294 OFFCURVE",
"631 233 OFFCURVE",
"587 164 CURVE",
"482 257 LINE",
"432 196 LINE",
"535 112 LINE",
"490 79 OFFCURVE",
"429 72 OFFCURVE",
"384 72 CURVE SMOOTH"
);
}
);
width = 768;
},
{
associatedMasterId = "7C863538-AAB4-42AD-A9FE-7240E615272A";
layerId = "07DFF14C-DB06-4784-9037-7332FF84B373";
name = "Bold Sep 7 16, 14:04";
paths = (
{
closed = 1;
nodes = (
"457 -14 OFFCURVE",
"527 7 OFFCURVE",
"582 47 CURVE",
"651 -10 LINE",
"725 79 LINE",
"663 130 LINE",
"702 189 OFFCURVE",
"725 264 OFFCURVE",
"725 350 CURVE SMOOTH",
"725 570 OFFCURVE",
"580 714 OFFCURVE",
"380 714 CURVE SMOOTH",
"180 714 OFFCURVE",
"35 570 OFFCURVE",
"35 350 CURVE SMOOTH",
"35 130 OFFCURVE",
"180 -14 OFFCURVE",
"380 -14 CURVE SMOOTH"
);
},
{
closed = 1;
nodes = (
"244 109 OFFCURVE",
"175 210 OFFCURVE",
"175 350 CURVE SMOOTH",
"175 490 OFFCURVE",
"244 591 OFFCURVE",
"380 591 CURVE",
"516 591 OFFCURVE",
"585 490 OFFCURVE",
"585 350 CURVE SMOOTH",
"585 300 OFFCURVE",
"576 255 OFFCURVE",
"558 218 CURVE",
"470 292 LINE",
"396 203 LINE",
"480 132 LINE",
"452 117 OFFCURVE",
"419 109 OFFCURVE",
"380 109 CURVE SMOOTH"
);
}
);
width = 760;
},
{
components = (
{
name = O;
}
);
layerId = "A616F07E-65DE-4D07-A020-83605E49AA22";
paths = (
{
closed = 1;
nodes = (
"559 -14 LINE",
"616 40 LINE",
"408 256 LINE",
"351 202 LINE"
);
}
);
width = 653;
},
{
components = (
{
name = O;
}
);
layerId = "3AF73D1F-32CE-4CF3-BC01-E4A23F7DE30A";
paths = (
{
closed = 1;
nodes = (
"550 -14 LINE",
"629 65 LINE",
"405 277 LINE",
"326 198 LINE"
);
}
);
width = 654;
},
{
associatedMasterId = "A616F07E-65DE-4D07-A020-83605E49AA22";
layerId = "19610E8E-CD14-48C0-970C-2227A6F76230";
name = "Condensed Sep 19 16, 18:47";
paths = (
{
closed = 1;
nodes = (
"393 -14 OFFCURVE",
"454 8 OFFCURVE",
"507 57 CURVE",
"565 3 LINE",
"616 62 LINE",
"564 111 LINE",
"604 187 OFFCURVE",
"623 263 OFFCURVE",
"623 350 CURVE SMOOTH",
"623 572 OFFCURVE",
"499 714 OFFCURVE",
"327 714 CURVE SMOOTH",
"155 714 OFFCURVE",
"30 572 OFFCURVE",
"30 350 CURVE SMOOTH",
"30 128 OFFCURVE",
"155 -14 OFFCURVE",
"327 -14 CURVE SMOOTH"
);
},
{
closed = 1;
nodes = (
"197 72 OFFCURVE",
"132 194 OFFCURVE",
"132 350 CURVE SMOOTH",
"132 506 OFFCURVE",
"197 628 OFFCURVE",
"327 628 CURVE SMOOTH",
"327 628 LINE",
"457 628 OFFCURVE",
"526 506 OFFCURVE",
"526 350 CURVE SMOOTH",
"526 294 OFFCURVE",
"521 233 OFFCURVE",
"492 164 CURVE",
"408 257 LINE",
"356 196 LINE",
"438 112 LINE",
"406 79 OFFCURVE",
"363 72 OFFCURVE",
"327 72 CURVE SMOOTH"
);
}
);
width = 653;
},
{
associatedMasterId = "3AF73D1F-32CE-4CF3-BC01-E4A23F7DE30A";
layerId = "A0F48E69-F88D-4C94-A932-CF82D2A89616";
name = "Bold Condensed Sep 19 16, 18:47";
paths = (
{
closed = 1;
nodes = (
"393 -14 OFFCURVE",
"453 7 OFFCURVE",
"495 47 CURVE",
"556 -10 LINE",
"629 79 LINE",
"575 130 LINE",
"604 189 OFFCURVE",
"623 264 OFFCURVE",
"623 350 CURVE SMOOTH",
"623 570 OFFCURVE",
"499 714 OFFCURVE",
"327 714 CURVE SMOOTH",
"155 714 OFFCURVE",
"30 570 OFFCURVE",
"30 350 CURVE SMOOTH",
"30 130 OFFCURVE",
"155 -14 OFFCURVE",
"327 -14 CURVE SMOOTH"
);
},
{
closed = 1;
nodes = (
"219 109 OFFCURVE",
"164 210 OFFCURVE",
"164 350 CURVE SMOOTH",
"164 490 OFFCURVE",
"219 591 OFFCURVE",
"327 591 CURVE SMOOTH",
"327 591 LINE",
"434 591 OFFCURVE",
"486 490 OFFCURVE",
"486 350 CURVE SMOOTH",
"486 300 OFFCURVE",
"476 255 OFFCURVE",
"470 218 CURVE",
"401 292 LINE",
"329 203 LINE",
"394 132 LINE",
"376 117 OFFCURVE",
"358 109 OFFCURVE",
"327 109 CURVE SMOOTH"
);
}
);
width = 654;
},
{
associatedMasterId = "3AF73D1F-32CE-4CF3-BC01-E4A23F7DE30A";
components = (
{
name = O;
}
);
layerId = "51F6C414-C98D-4309-8117-C53D0DF0DA10";
name = "Bold Condensed Sep 20 16, 15:58";
paths = (
{
closed = 1;
nodes = (
"550 -14 LINE",
"629 65 LINE",
"405 277 LINE",
"326 198 LINE"
);
}
);
width = 654;
visible = 1;
}
);
leftKerningGroup = O;
rightKerningGroup = O;
unicode = 0051;
},
{
glyphname = R;
layers = (
{
anchors = (
{
name = bottom;
position = "{331, 0}";
},
{
name = top;
position = "{307, 700}";
}
);
layerId = UUID0;
paths = (
{
closed = 1;
nodes = (
"180 0 LINE",
"180 273 LINE",
"326 273 LINE",
"468 0 LINE",
"584 0 LINE",
"427 290 LINE",
"506 327 OFFCURVE",
"549 391 OFFCURVE",
"549 487 CURVE SMOOTH",
"549 635 OFFCURVE",
"453 700 OFFCURVE",
"307 700 CURVE SMOOTH",
"80 700 LINE",
"80 0 LINE"
);
},
{
closed = 1;
nodes = (
"180 615 LINE",
"306 615 LINE SMOOTH",
"401 615 OFFCURVE",
"450 568 OFFCURVE",
"450 487 CURVE SMOOTH",
"450 407 OFFCURVE",
"401 358 OFFCURVE",
"306 358 CURVE SMOOTH",
"180 358 LINE"
);
}
);
width = 603;
},
{
anchors = (
{
name = bottom;
position = "{343, 0}";
},
{
name = top;
position = "{319, 700}";
}
);
layerId = "7C863538-AAB4-42AD-A9FE-7240E615272A";
paths = (
{
closed = 1;
nodes = (
"205 0 LINE",
"205 260 LINE",
"335 260 LINE",
"470 0 LINE",
"613 0 LINE",
"455 294 LINE",
"526 329 OFFCURVE",
"574 385 OFFCURVE",
"574 488 CURVE SMOOTH",
"574 632 OFFCURVE",
"478 700 OFFCURVE",
"333 700 CURVE SMOOTH",
"77 700 LINE",
"77 0 LINE"
);
},
{
closed = 1;
nodes = (
"205 593 LINE",
"304 593 LINE SMOOTH",
"404 593 OFFCURVE",
"440 551 OFFCURVE",
"440 481 CURVE SMOOTH",
"440 415 OFFCURVE",
"404 367 OFFCURVE",
"299 367 CURVE SMOOTH",
"205 367 LINE"
);
}
);
width = 626;
},
{
anchors = (
{
name = bottom;
position = "{330.398, 0}";
},
{
name = top;
position = "{307.28, 700}";
}
);
associatedMasterId = UUID0;
layerId = "312694A0-52E8-402E-A029-2652740DDAE5";
name = "Regular Sep 7 16, 14:04";
paths = (
{
closed = 1;
nodes = (
"180 0 LINE",
"180 273 LINE",
"327 273 LINE",
"482 0 LINE",
"584 0 LINE",
"421 298 LINE",
"502 336 OFFCURVE",
"549 409 OFFCURVE",
"549 495 CURVE SMOOTH",
"549 652 OFFCURVE",
"453 700 OFFCURVE",
"307 700 CURVE SMOOTH",
"80 700 LINE",
"80 0 LINE"
);
},
{
closed = 1;
nodes = (
"180 623 LINE",
"306 623 LINE SMOOTH",
"401 623 OFFCURVE",
"450 576 OFFCURVE",
"450 495 CURVE SMOOTH",
"450 397 OFFCURVE",
"383 365 OFFCURVE",
"331 365 CURVE SMOOTH",
"180 365 LINE"
);
}
);
width = 603;
},
{
anchors = (
{
name = bottom;
position = "{343, 0}";
},
{
name = top;
position = "{319, 700}";
}
);
associatedMasterId = "7C863538-AAB4-42AD-A9FE-7240E615272A";
layerId = "2E03E743-B312-4B57-81AB-DEEF8235C446";
name = "Bold Sep 7 16, 14:04";
paths = (
{
closed = 1;
nodes = (
"205 0 LINE",
"205 260 LINE",
"335 260 LINE",
"480 0 LINE",
"613 0 LINE",
"455 294 LINE",
"521 335 OFFCURVE",
"574 390 OFFCURVE",
"574 498 CURVE SMOOTH",
"574 650 OFFCURVE",
"468 700 OFFCURVE",
"333 700 CURVE SMOOTH",
"77 700 LINE",
"77 0 LINE"
);
},
{
closed = 1;
nodes = (
"205 593 LINE",
"304 593 LINE SMOOTH",
"414 593 OFFCURVE",
"440 554 OFFCURVE",
"440 489 CURVE SMOOTH",
"440 426 OFFCURVE",
"415 380 OFFCURVE",
"299 380 CURVE SMOOTH",
"205 380 LINE"
);
}
);
width = 626;
},
{
anchors = (
{
name = bottom;
position = "{288, 0}";
},
{
name = top;
position = "{271, 700}";
}
);
layerId = "A616F07E-65DE-4D07-A020-83605E49AA22";
paths = (
{
closed = 1;
nodes = (
"165 0 LINE",
"165 272 LINE",
"253 272 LINE SMOOTH",
"264 272 OFFCURVE",
"277 273 OFFCURVE",
"285 274 CURVE",
"410 0 LINE",
"518 0 LINE",
"378.566 300.984 LINE",
"446.887 337.43 OFFCURVE",
"486 405.123 OFFCURVE",
"486 486 CURVE SMOOTH",
"486 628 OFFCURVE",
"397 700 OFFCURVE",
"253 700 CURVE SMOOTH",
"73 700 LINE",
"73 0 LINE"
);
},
{
closed = 1;
nodes = (
"165 616 LINE",
"245 616 LINE SMOOTH",
"347 616 OFFCURVE",
"390 570 OFFCURVE",
"390 486 CURVE SMOOTH",
"390 402 OFFCURVE",
"347 356 OFFCURVE",
"245 356 CURVE SMOOTH",
"165 356 LINE"
);
}
);
width = 541;
},
{
anchors = (
{
name = bottom;
position = "{290, 0}";
},
{
name = top;
position = "{269, 700}";
}
);
layerId = "3AF73D1F-32CE-4CF3-BC01-E4A23F7DE30A";
paths = (
{
closed = 1;
nodes = (
"183 0 LINE",
"183 260 LINE",
"272 260 LINE SMOOTH",
"276 260 OFFCURVE",
"279 260 OFFCURVE",
"283 260 CURVE",
"397 0 LINE",
"534 0 LINE",
"400.012 293.633 LINE",
"462.063 330.486 OFFCURVE",
"499 396.24 OFFCURVE",
"499 484 CURVE SMOOTH",
"499 638 OFFCURVE",
"405 700 OFFCURVE",
"265 700 CURVE SMOOTH",
"61 700 LINE",
"61 0 LINE"
);
},
{
closed = 1;
nodes = (
"183 594 LINE",
"254 594 LINE SMOOTH",
"329 594 OFFCURVE",
"373 562 OFFCURVE",
"373 480 CURVE SMOOTH",
"373 398 OFFCURVE",
"329 366 OFFCURVE",
"254 366 CURVE SMOOTH",
"183 366 LINE"
);
}
);
width = 537;
},
{
associatedMasterId = "A616F07E-65DE-4D07-A020-83605E49AA22";
layerId = "651ED788-0B61-4E98-9D7A-1EDF1A45E30D";
name = "Condensed Sep 19 16, 18:47";
paths = (
{
closed = 1;
nodes = (
"169 0 LINE",
"169 273 LINE",
"289 273 LINE",
"419 0 LINE",
"518 0 LINE",
"380 298 LINE",
"444 336 OFFCURVE",
"486 409 OFFCURVE",
"486 495 CURVE SMOOTH",
"486 652 OFFCURVE",
"400 700 OFFCURVE",
"279 700 CURVE SMOOTH",
"73 700 LINE",
"73 0 LINE"
);
},
{
closed = 1;
nodes = (
"169 623 LINE",
"268 623 LINE SMOOTH",
"355 623 OFFCURVE",
"389 576 OFFCURVE",
"389 495 CURVE SMOOTH",
"389 397 OFFCURVE",
"346 365 OFFCURVE",
"278 365 CURVE SMOOTH",
"169 365 LINE"
);
}
);
width = 541;
},
{
associatedMasterId = "3AF73D1F-32CE-4CF3-BC01-E4A23F7DE30A";
layerId = "F8659B6D-98A3-407F-8B49-1AC1FFA842E5";
name = "Bold Condensed Sep 19 16, 18:47";
paths = (
{
closed = 1;
nodes = (
"181 0 LINE",
"181 260 LINE",
"287 260 LINE",
"408 0 LINE",
"534 0 LINE",
"400 294 LINE",
"451 335 OFFCURVE",
"499 390 OFFCURVE",
"499 498 CURVE SMOOTH",
"499 650 OFFCURVE",
"404 700 OFFCURVE",
"292 700 CURVE SMOOTH",
"61 700 LINE",
"61 0 LINE"
);
},
{
closed = 1;
nodes = (
"181 593 LINE",
"257 593 LINE SMOOTH",
"357 593 OFFCURVE",
"371 554 OFFCURVE",
"371 489 CURVE SMOOTH",
"371 426 OFFCURVE",
"365 380 OFFCURVE",
"241 380 CURVE SMOOTH",
"181 380 LINE"
);
}
);
width = 537;
},
{
associatedMasterId = "3AF73D1F-32CE-4CF3-BC01-E4A23F7DE30A";
layerId = "1598FBEC-A2DD-4B7F-9B85-87F696C9A3DD";
name = "Bold Condensed Sep 20 16, 16:16";
paths = (
{
closed = 1;
nodes = (
"277 275 LINE",
"397 0 LINE",
"534 0 LINE",
"393 309 LINE"
);
},
{
closed = 1;
nodes = (
"183 594 LINE",
"254 594 LINE SMOOTH",
"329 594 OFFCURVE",
"373 562 OFFCURVE",
"373 480 CURVE SMOOTH",
"373 398 OFFCURVE",
"329 366 OFFCURVE",
"254 366 CURVE SMOOTH",
"183 366 LINE"
);
},
{
closed = 1;
nodes = (
"405 260 OFFCURVE",
"499 344 OFFCURVE",
"499 484 CURVE SMOOTH",
"499 642 OFFCURVE",
"405 700 OFFCURVE",
"265 700 CURVE SMOOTH",
"61 700 LINE",
"61 0 LINE",
"183 0 LINE",
"183 260 LINE",
"265 260 LINE SMOOTH"
);
}
);
width = 537;
},
{
associatedMasterId = "A616F07E-65DE-4D07-A020-83605E49AA22";
layerId = "8C63B0DB-74DB-41F0-93C0-CF2B29231CCD";
name = "Condensed Sep 20 16, 16:18";
paths = (
{
closed = 1;
nodes = (
"279 287 LINE",
"410 0 LINE",
"518 0 LINE",
"373 313 LINE"
);
},
{
closed = 1;
nodes = (
"165 616 LINE",
"245 616 LINE SMOOTH",
"347 616 OFFCURVE",
"390 570 OFFCURVE",
"390 486 CURVE SMOOTH",
"390 402 OFFCURVE",
"347 356 OFFCURVE",
"245 356 CURVE SMOOTH",
"165 356 LINE"
);
},
{
closed = 1;
nodes = (
"397 272 OFFCURVE",
"486 364 OFFCURVE",
"486 486 CURVE SMOOTH",
"486 628 OFFCURVE",
"397 700 OFFCURVE",
"253 700 CURVE SMOOTH",
"73 700 LINE",
"73 0 LINE",
"165 0 LINE",
"165 272 LINE",
"253 272 LINE SMOOTH"
);
}
);
width = 541;
visible = 1;
}
);
leftKerningGroup = I;
unicode = 0052;
},
{
glyphname = S;
layers = (
{
anchors = (
{
name = bottom;
position = "{293, 0}";
},
{
name = top;
position = "{316, 700}";
}
);
layerId = UUID0;
paths = (
{
closed = 1;
nodes = (
"463 -14 OFFCURVE",
"553 61 OFFCURVE",
"553 181 CURVE SMOOTH",
"553 303 OFFCURVE",
"465 359 OFFCURVE",
"319 403 CURVE SMOOTH",
"213 435 OFFCURVE",
"159 460 OFFCURVE",
"159 530 CURVE SMOOTH",
"159 599 OFFCURVE",
"219 628 OFFCURVE",
"301 628 CURVE SMOOTH",
"375 628 OFFCURVE",
"441 610 OFFCURVE",
"517 565 CURVE",
"527 666 LINE",
"477 690 OFFCURVE",
"397 714 OFFCURVE",
"305 714 CURVE SMOOTH",
"143 714 OFFCURVE",
"55 636 OFFCURVE",
"55 525 CURVE SMOOTH",
"55 395 OFFCURVE",
"153 352 OFFCURVE",
"268 318 CURVE SMOOTH",
"389 282 OFFCURVE",
"449 253 OFFCURVE",
"449 174 CURVE SMOOTH",
"449 104 OFFCURVE",
"392 72 OFFCURVE",
"302 72 CURVE SMOOTH",
"211 72 OFFCURVE",
"118 106 OFFCURVE",
"64 132 CURVE",
"51 31 LINE",
"100 8 OFFCURVE",
"193 -14 OFFCURVE",
"280 -14 CURVE SMOOTH"
);
}
);
width = 584;
},
{
anchors = (
{
name = bottom;
position = "{293, 0}";
},
{
name = top;
position = "{311, 700}";
}
);
layerId = "7C863538-AAB4-42AD-A9FE-7240E615272A";
paths = (
{
closed = 1;
nodes = (
"516 -14 OFFCURVE",
"551 110 OFFCURVE",
"551 190 CURVE SMOOTH",
"551 310 OFFCURVE",
"471 365 OFFCURVE",
"319 413 CURVE SMOOTH",
"231 441 OFFCURVE",
"178 459 OFFCURVE",
"178 518 CURVE SMOOTH",
"178 567 OFFCURVE",
"220 592 OFFCURVE",
"295 592 CURVE SMOOTH",
"366 592 OFFCURVE",
"432 573 OFFCURVE",
"511 538 CURVE",
"524 669 LINE",
"469 691 OFFCURVE",
"388 714 OFFCURVE",
"303 714 CURVE SMOOTH",
"134 714 OFFCURVE",
"48 630 OFFCURVE",
"48 514 CURVE SMOOTH",
"48 396 OFFCURVE",
"133 349 OFFCURVE",
"245 310 CURVE SMOOTH",
"357 271 OFFCURVE",
"408 253 OFFCURVE",
"408 190 CURVE SMOOTH",
"408 135 OFFCURVE",
"363 109 OFFCURVE",
"295 109 CURVE SMOOTH",
"213 109 OFFCURVE",
"133 139 OFFCURVE",
"63 173 CURVE",
"48 37 LINE",
"93 15 OFFCURVE",
"195 -14 OFFCURVE",
"280 -14 CURVE SMOOTH"
);
}
);
width = 580;
},
{
associatedMasterId = UUID0;
layerId = "9088D6E4-E2BE-4E5B-92E5-7E926331F2E4";
name = "Regular Sep 7 16, 14:04";
paths = (
{
closed = 1;
nodes = (
"522 -14 OFFCURVE",
"553 107 OFFCURVE",
"553 181 CURVE SMOOTH",
"553 333 OFFCURVE",
"418 370 OFFCURVE",
"295 408 CURVE SMOOTH",
"211 434 OFFCURVE",
"144 460 OFFCURVE",
"144 525 CURVE SMOOTH",
"144 598 OFFCURVE",
"229 628 OFFCURVE",
"301 628 CURVE SMOOTH",
"371 628 OFFCURVE",
"434 599 OFFCURVE",
"502 565 CURVE",
"512 666 LINE",
"472 688 OFFCURVE",
"383 714 OFFCURVE",
"292 714 CURVE SMOOTH",
"100 714 OFFCURVE",
"40 599 OFFCURVE",
"40 512 CURVE SMOOTH",
"40 392 OFFCURVE",
"152 358 OFFCURVE",
"268 321 CURVE SMOOTH",
"369 289 OFFCURVE",
"449 259 OFFCURVE",
"449 180 CURVE SMOOTH",
"449 101 OFFCURVE",
"368 72 OFFCURVE",
"282 72 CURVE SMOOTH",
"187 72 OFFCURVE",
"110 108 OFFCURVE",
"64 142 CURVE",
"51 31 LINE",
"94 8 OFFCURVE",
"177 -14 OFFCURVE",
"280 -14 CURVE"
);
}
);
width = 584;
},
{
associatedMasterId = "7C863538-AAB4-42AD-A9FE-7240E615272A";
layerId = "E4F97DED-0297-4675-ABAC-493D79B44458";
name = "Bold Sep 7 16, 14:04";
paths = (
{
closed = 1;
nodes = (
"516 -14 OFFCURVE",
"551 110 OFFCURVE",
"551 190 CURVE SMOOTH",
"551 344 OFFCURVE",
"418 384 OFFCURVE",
"309 417 CURVE SMOOTH",
"233 440 OFFCURVE",
"168 462 OFFCURVE",
"168 518 CURVE SMOOTH",
"168 578 OFFCURVE",
"242 592 OFFCURVE",
"296 592 CURVE SMOOTH",
"363 592 OFFCURVE",
"426 570 OFFCURVE",
"501 529 CURVE",
"514 660 LINE",
"478 684 OFFCURVE",
"387 714 OFFCURVE",
"291 714 CURVE SMOOTH",
"102 714 OFFCURVE",
"38 597 OFFCURVE",
"38 504 CURVE SMOOTH",
"38 379 OFFCURVE",
"146 344 OFFCURVE",
"245 310 CURVE SMOOTH",
"330 281 OFFCURVE",
"408 256 OFFCURVE",
"408 185 CURVE SMOOTH",
"408 128 OFFCURVE",
"358 109 OFFCURVE",
"283 109 CURVE SMOOTH",
"178 109 OFFCURVE",
"101 146 OFFCURVE",
"63 183 CURVE",
"48 37 LINE",
"88 11 OFFCURVE",
"174 -14 OFFCURVE",
"280 -14 CURVE"
);
}
);
width = 580;
},
{
anchors = (
{
name = bottom;
position = "{245, 0}";
},
{
name = top;
position = "{261, 700}";
}
);
layerId = "A616F07E-65DE-4D07-A020-83605E49AA22";
paths = (
{
closed = 1;
nodes = (
"382 -14 OFFCURVE",
"474 59 OFFCURVE",
"474 178 CURVE SMOOTH",
"474 279 OFFCURVE",
"414 336 OFFCURVE",
"295 390 CURVE SMOOTH",
"191 437 OFFCURVE",
"135 463 OFFCURVE",
"135 533 CURVE SMOOTH",
"135 601 OFFCURVE",
"185 630 OFFCURVE",
"258 630 CURVE SMOOTH",
"317 630 OFFCURVE",
"371 614 OFFCURVE",
"428 581 CURVE",
"438 676 LINE",
"399 695 OFFCURVE",
"336 714 OFFCURVE",
"263 714 CURVE SMOOTH",
"128 714 OFFCURVE",
"33 641 OFFCURVE",
"33 527 CURVE SMOOTH",
"33 411 OFFCURVE",
"111 368 OFFCURVE",
"222 318 CURVE SMOOTH",
"322 273 OFFCURVE",
"372 241 OFFCURVE",
"372 169 CURVE SMOOTH",
"372 103 OFFCURVE",
"321 70 OFFCURVE",
"241 70 CURVE SMOOTH",
"174 70 OFFCURVE",
"105 95 OFFCURVE",
"55 126 CURVE",
"42 25 LINE",
"85 5 OFFCURVE",
"164 -14 OFFCURVE",
"232 -14 CURVE SMOOTH"
);
}
);
width = 499;
},
{
anchors = (
{
name = bottom;
position = "{267, 0}";
},
{
name = top;
position = "{271, 700}";
}
);
layerId = "3AF73D1F-32CE-4CF3-BC01-E4A23F7DE30A";
paths = (
{
closed = 1;
nodes = (
"393 -14 OFFCURVE",
"482 66 OFFCURVE",
"482 189 CURVE SMOOTH",
"482 292 OFFCURVE",
"424 346 OFFCURVE",
"312 400 CURVE SMOOTH",
"224 442 OFFCURVE",
"171 463 OFFCURVE",
"171 520 CURVE SMOOTH",
"171 567 OFFCURVE",
"205 591 OFFCURVE",
"266 591 CURVE SMOOTH",
"325 591 OFFCURVE",
"380 573 OFFCURVE",
"445 541 CURVE",
"458 673 LINE",
"405 697 OFFCURVE",
"346 714 OFFCURVE",
"276 714 CURVE SMOOTH",
"127 714 OFFCURVE",
"41 630 OFFCURVE",
"41 515 CURVE SMOOTH",
"41 412 OFFCURVE",
"100 362 OFFCURVE",
"211 312 CURVE SMOOTH",
"315 265 OFFCURVE",
"352 238 OFFCURVE",
"352 184 CURVE SMOOTH",
"352 135 OFFCURVE",
"313 109 OFFCURVE",
"250 109 CURVE SMOOTH",
"182 109 OFFCURVE",
"120 130 OFFCURVE",
"56 165 CURVE",
"41 29 LINE",
"95 2 OFFCURVE",
"170 -14 OFFCURVE",
"242 -14 CURVE SMOOTH"
);
}
);
width = 507;
},
{
associatedMasterId = "A616F07E-65DE-4D07-A020-83605E49AA22";
layerId = "EECC82D8-5E50-4A7F-ACB9-19426813AD85";
name = "Condensed Sep 19 16, 18:47";
paths = (
{
closed = 1;
nodes = (
"412 -14 OFFCURVE",
"474 56 OFFCURVE",
"474 185 CURVE SMOOTH",
"474 319 OFFCURVE",
"372 359 OFFCURVE",
"258 407 CURVE SMOOTH",
"191 436 OFFCURVE",
"132 459 OFFCURVE",
"132 523 CURVE SMOOTH",
"132 585 OFFCURVE",
"190 628 OFFCURVE",
"255 628 CURVE SMOOTH",
"307 628 OFFCURVE",
"361 612 OFFCURVE",
"428 569 CURVE",
"440 666 LINE",
"400 693 OFFCURVE",
"321 714 OFFCURVE",
"249 714 CURVE SMOOTH",
"108 714 OFFCURVE",
"33 632 OFFCURVE",
"33 511 CURVE SMOOTH",
"33 404 OFFCURVE",
"113 370 OFFCURVE",
"222 317 CURVE SMOOTH",
"311 273 OFFCURVE",
"371 250 OFFCURVE",
"371 181 CURVE SMOOTH",
"371 113 OFFCURVE",
"321 72 OFFCURVE",
"243 72 CURVE SMOOTH",
"164 72 OFFCURVE",
"97 98 OFFCURVE",
"54 142 CURVE",
"42 31 LINE",
"83 4 OFFCURVE",
"158 -14 OFFCURVE",
"240 -14 CURVE SMOOTH",
"240 -14 LINE"
);
}
);
width = 499;
},
{
associatedMasterId = "3AF73D1F-32CE-4CF3-BC01-E4A23F7DE30A";
layerId = "66367A82-0674-4425-A63C-066B59164FF2";
name = "Bold Condensed Sep 19 16, 18:47";
paths = (
{
closed = 1;
nodes = (
"476 -14 OFFCURVE",
"482 110 OFFCURVE",
"482 190 CURVE SMOOTH",
"482 345 OFFCURVE",
"358 385 OFFCURVE",
"280 416 CURVE SMOOTH",
"217 441 OFFCURVE",
"162 462 OFFCURVE",
"162 518 CURVE SMOOTH",
"162 578 OFFCURVE",
"230 592 OFFCURVE",
"263 592 CURVE SMOOTH",
"324 592 OFFCURVE",
"379 570 OFFCURVE",
"441 529 CURVE",
"452 660 LINE",
"428 684 OFFCURVE",
"350 714 OFFCURVE",
"260 714 CURVE SMOOTH",
"82 714 OFFCURVE",
"41 598 OFFCURVE",
"41 503 CURVE SMOOTH",
"41 379 OFFCURVE",
"146 342 OFFCURVE",
"211 310 CURVE SMOOTH",
"272 280 OFFCURVE",
"345 256 OFFCURVE",
"345 185 CURVE SMOOTH",
"345 128 OFFCURVE",
"307 109 OFFCURVE",
"252 109 CURVE SMOOTH",
"153 109 OFFCURVE",
"88 147 OFFCURVE",
"63 181 CURVE",
"49 37 LINE",
"79 11 OFFCURVE",
"152 -14 OFFCURVE",
"250 -14 CURVE SMOOTH",
"250 -14 LINE"
);
}
);
width = 507;
visible = 1;
}
);
leftKerningGroup = S;
rightKerningGroup = S;
unicode = 0053;
},
{
glyphname = Germandbls;
layers = (
{
layerId = UUID0;
paths = (
{
closed = 1;
nodes = (
"175 0 LINE",
"175 493 LINE SMOOTH",
"175 581 OFFCURVE",
"238 634 OFFCURVE",
"335 634 CURVE SMOOTH",
"399 634 OFFCURVE",
"447 619 OFFCURVE",
"479 603 CURVE",
"487 645 LINE",
"295 411 LINE",
"295 335 LINE",
"319 335 LINE SMOOTH",
"423 335 OFFCURVE",
"476 285 OFFCURVE",
"476 197 CURVE SMOOTH",
"476 119 OFFCURVE",
"427 72 OFFCURVE",
"350 72 CURVE SMOOTH",
"317 72 OFFCURVE",
"287 75 OFFCURVE",
"257 82 CURVE",
"257 0 LINE",
"290 -9 OFFCURVE",
"321 -14 OFFCURVE",
"357 -14 CURVE SMOOTH",
"470 -14 OFFCURVE",
"576 54 OFFCURVE",
"576 198 CURVE SMOOTH",
"576 349 OFFCURVE",
"465 407 OFFCURVE",
"341 407 CURVE",
"363 365 LINE",
"541 579 LINE",
"541 655 LINE",
"492 689 OFFCURVE",
"421 714 OFFCURVE",
"335 714 CURVE SMOOTH",
"184 714 OFFCURVE",
"80 641 OFFCURVE",
"80 491 CURVE SMOOTH",
"80 0 LINE"
);
}
);
width = 615;
},
{
layerId = "7C863538-AAB4-42AD-A9FE-7240E615272A";
paths = (
{
closed = 1;
nodes = (
"205 0 LINE",
"205 453 LINE SMOOTH",
"205 545 OFFCURVE",
"268 601 OFFCURVE",
"365 601 CURVE SMOOTH",
"436 601 OFFCURVE",
"489 581 OFFCURVE",
"524 560 CURVE",
"535 643 LINE",
"325 424 LINE",
"325 318 LINE",
"372 318 LINE SMOOTH",
"461 318 OFFCURVE",
"506 280 OFFCURVE",
"506 212 CURVE SMOOTH",
"506 148 OFFCURVE",
"460 109 OFFCURVE",
"388 109 CURVE SMOOTH",
"353 109 OFFCURVE",
"320 112 OFFCURVE",
"287 119 CURVE",
"287 0 LINE",
"324 -9 OFFCURVE",
"364 -14 OFFCURVE",
"407 -14 CURVE SMOOTH",
"540 -14 OFFCURVE",
"646 57 OFFCURVE",
"646 205 CURVE SMOOTH",
"646 360 OFFCURVE",
"530 420 OFFCURVE",
"371 420 CURVE",
"393 348 LINE",
"586 549 LINE",
"586 655 LINE",
"533 689 OFFCURVE",
"457 714 OFFCURVE",
"365 714 CURVE SMOOTH",
"194 714 OFFCURVE",
"77 628 OFFCURVE",
"77 451 CURVE SMOOTH",
"77 0 LINE"
);
}
);
width = 670;
},
{
layerId = "A616F07E-65DE-4D07-A020-83605E49AA22";
paths = (
{
closed = 1;
nodes = (
"158 0 LINE",
"158 493 LINE SMOOTH",
"158 577 OFFCURVE",
"210 628 OFFCURVE",
"291 628 CURVE SMOOTH",
"342 628 OFFCURVE",
"380 616 OFFCURVE",
"405 603 CURVE",
"409 651 LINE",
"251 408 LINE",
"251 335 LINE",
"265 335 LINE SMOOTH",
"356 335 OFFCURVE",
"402 286 OFFCURVE",
"402 199 CURVE SMOOTH",
"402 119 OFFCURVE",
"360 70 OFFCURVE",
"294 70 CURVE SMOOTH",
"265 70 OFFCURVE",
"239 74 OFFCURVE",
"213 83 CURVE",
"213 0 LINE",
"240 -8 OFFCURVE",
"272 -14 OFFCURVE",
"303 -14 CURVE SMOOTH",
"407 -14 OFFCURVE",
"504 52 OFFCURVE",
"504 192 CURVE SMOOTH",
"504 331 OFFCURVE",
"423 399 OFFCURVE",
"287 407 CURVE",
"324 365 LINE",
"467 588 LINE",
"467 661 LINE",
"425 692 OFFCURVE",
"364 714 OFFCURVE",
"291 714 CURVE SMOOTH",
"158 714 OFFCURVE",
"66 641 OFFCURVE",
"66 491 CURVE SMOOTH",
"66 0 LINE"
);
}
);
width = 536;
},
{
layerId = "3AF73D1F-32CE-4CF3-BC01-E4A23F7DE30A";
paths = (
{
closed = 1;
nodes = (
"194 0 LINE",
"194 455 LINE SMOOTH",
"194 547 OFFCURVE",
"242 603 OFFCURVE",
"326 603 CURVE SMOOTH",
"365 603 OFFCURVE",
"392 592 OFFCURVE",
"423 571 CURVE",
"418 652 LINE",
"269 419 LINE",
"269 318 LINE",
"306 318 LINE SMOOTH",
"375 318 OFFCURVE",
"410 280 OFFCURVE",
"410 212 CURVE SMOOTH",
"410 148 OFFCURVE",
"373 109 OFFCURVE",
"316 109 CURVE SMOOTH",
"295 109 OFFCURVE",
"276 112 OFFCURVE",
"256 119 CURVE",
"256 0 LINE",
"284 -9 OFFCURVE",
"315 -14 OFFCURVE",
"348 -14 CURVE SMOOTH",
"457 -14 OFFCURVE",
"544 57 OFFCURVE",
"544 205 CURVE SMOOTH",
"544 360 OFFCURVE",
"443 420 OFFCURVE",
"305 420 CURVE",
"353 348 LINE",
"485 563 LINE",
"485 664 LINE",
"440 693 OFFCURVE",
"383 714 OFFCURVE",
"310 714 CURVE SMOOTH",
"165 714 OFFCURVE",
"66 629 OFFCURVE",
"66 453 CURVE SMOOTH",
"66 0 LINE"
);
}
);
width = 580;
}
);
leftMetricsKey = B;
unicode = 1E9E;
},
{
glyphname = Schwa;
layers = (
{
layerId = UUID0;
paths = (
{
closed = 1;
nodes = (
"555 175 OFFCURVE",
"471 72 OFFCURVE",
"335 72 CURVE SMOOTH",
"197 72 OFFCURVE",
"134 148 OFFCURVE",
"134 267 CURVE",
"599 267 LINE",
"599 351 LINE",
"36 351 LINE",
"31 326 OFFCURVE",
"30 302 OFFCURVE",
"30 282 CURVE SMOOTH",
"30 93 OFFCURVE",
"157 -14 OFFCURVE",
"332 -14 CURVE SMOOTH",
"539 -14 OFFCURVE",
"659 147 OFFCURVE",
"659 340 CURVE SMOOTH",
"659 571 OFFCURVE",
"528 714 OFFCURVE",
"319 714 CURVE SMOOTH",
"221 714 OFFCURVE",
"132 689 OFFCURVE",
"61 655 CURVE",
"79 575 LINE",
"151 606 OFFCURVE",
"227 628 OFFCURVE",
"308 628 CURVE SMOOTH",
"468 628 OFFCURVE",
"555 520 OFFCURVE",
"555 342 CURVE SMOOTH"
);
}
);
width = 699;
},
{
layerId = "7C863538-AAB4-42AD-A9FE-7240E615272A";
paths = (
{
closed = 1;
nodes = (
"539 188 OFFCURVE",
"465 109 OFFCURVE",
"345 109 CURVE SMOOTH",
"233 109 OFFCURVE",
"176 176 OFFCURVE",
"170 262 CURVE",
"609 262 LINE",
"609 376 LINE",
"38 376 LINE",
"32 347 OFFCURVE",
"30 318 OFFCURVE",
"30 294 CURVE SMOOTH",
"30 107 OFFCURVE",
"155 -14 OFFCURVE",
"341 -14 CURVE SMOOTH",
"554 -14 OFFCURVE",
"679 140 OFFCURVE",
"679 340 CURVE SMOOTH",
"679 550 OFFCURVE",
"549 714 OFFCURVE",
"319 714 CURVE SMOOTH",
"225 714 OFFCURVE",
"138 690 OFFCURVE",
"71 655 CURVE",
"79 535 LINE",
"148 568 OFFCURVE",
"227 591 OFFCURVE",
"308 591 CURVE SMOOTH",
"458 591 OFFCURVE",
"539 497 OFFCURVE",
"539 342 CURVE SMOOTH"
);
}
);
width = 714;
},
{
layerId = "A616F07E-65DE-4D07-A020-83605E49AA22";
paths = (
{
closed = 1;
nodes = (
"460 175 OFFCURVE",
"400 72 OFFCURVE",
"285 72 CURVE SMOOTH",
"174 72 OFFCURVE",
"124 148 OFFCURVE",
"124 267 CURVE",
"495 267 LINE",
"495 351 LINE",
"32 351 LINE",
"28 325 OFFCURVE",
"26 299 OFFCURVE",
"26 274 CURVE SMOOTH",
"26 90 OFFCURVE",
"136 -14 OFFCURVE",
"288 -14 CURVE SMOOTH",
"459 -14 OFFCURVE",
"558 147 OFFCURVE",
"558 340 CURVE SMOOTH",
"558 571 OFFCURVE",
"447 714 OFFCURVE",
"270 714 CURVE SMOOTH",
"187 714 OFFCURVE",
"119 690 OFFCURVE",
"57 655 CURVE",
"75 575 LINE",
"136 607 OFFCURVE",
"192 628 OFFCURVE",
"257 628 CURVE SMOOTH",
"395 628 OFFCURVE",
"460 520 OFFCURVE",
"460 342 CURVE SMOOTH"
);
}
);
width = 588;
},
{
layerId = "3AF73D1F-32CE-4CF3-BC01-E4A23F7DE30A";
paths = (
{
closed = 1;
nodes = (
"434 202 OFFCURVE",
"395 109 OFFCURVE",
"294 109 CURVE SMOOTH",
"201 109 OFFCURVE",
"159 162 OFFCURVE",
"159 262 CURVE",
"489 262 LINE",
"489 376 LINE",
"38 376 LINE",
"32 343 OFFCURVE",
"30 311 OFFCURVE",
"30 284 CURVE SMOOTH",
"30 103 OFFCURVE",
"125 -14 OFFCURVE",
"292 -14 CURVE SMOOTH",
"459 -14 OFFCURVE",
"564 120 OFFCURVE",
"564 340 CURVE SMOOTH",
"564 560 OFFCURVE",
"463 714 OFFCURVE",
"284 714 CURVE SMOOTH",
"196 714 OFFCURVE",
"130 695 OFFCURVE",
"71 665 CURVE",
"79 545 LINE",
"134 573 OFFCURVE",
"191 591 OFFCURVE",
"253 591 CURVE SMOOTH",
"386 591 OFFCURVE",
"434 497 OFFCURVE",
"434 342 CURVE SMOOTH"
);
}
);
width = 594;
}
);
rightMetricsKey = O;
unicode = 018F;
},
{
glyphname = T;
layers = (
{
anchors = (
{
name = bottom;
position = "{267, 0}";
},
{
name = top;
position = "{267, 700}";
}
);
layerId = UUID0;
paths = (
{
closed = 1;
nodes = (
"314 0 LINE",
"314 614 LINE",
"518 614 LINE",
"518 700 LINE",
"15 700 LINE",
"15 614 LINE",
"219 614 LINE",
"219 0 LINE"
);
}
);
width = 533;
},
{
anchors = (
{
name = bottom;
position = "{277, 0}";
},
{
name = top;
position = "{277, 700}";
}
);
layerId = "7C863538-AAB4-42AD-A9FE-7240E615272A";
paths = (
{
closed = 1;
nodes = (
"341 0 LINE",
"341 576 LINE",
"539 576 LINE",
"539 700 LINE",
"15 700 LINE",
"15 576 LINE",
"213 576 LINE",
"213 0 LINE"
);
}
);
width = 554;
},
{
anchors = (
{
name = bottom;
position = "{267, 0}";
},
{
name = top;
position = "{267, 700}";
}
);
associatedMasterId = UUID0;
layerId = "26BB27D7-6CFD-44EF-A975-1A8731FAA91A";
name = "Regular Sep 7 16, 14:04";
paths = (
{
closed = 1;
nodes = (
"314 0 LINE",
"314 614 LINE",
"518 614 LINE",
"518 700 LINE",
"15 700 LINE",
"15 614 LINE",
"219 614 LINE",
"219 0 LINE"
);
}
);
width = 533;
},
{
anchors = (
{
name = bottom;
position = "{277.52, 0}";
},
{
name = top;
position = "{277.52, 700}";
}
);
associatedMasterId = "7C863538-AAB4-42AD-A9FE-7240E615272A";
layerId = "C841B6D7-0C98-4BBA-89BD-E87621AF261C";
name = "Bold Sep 7 16, 14:04";
paths = (
{
closed = 1;
nodes = (
"341 0 LINE",
"341 576 LINE",
"539 576 LINE",
"539 700 LINE",
"15 700 LINE",
"15 576 LINE",
"213 576 LINE",
"213 0 LINE"
);
}
);
width = 554;
},
{
anchors = (
{
name = bottom;
position = "{238, 0}";
},
{
name = top;
position = "{238, 700}";
}
);
layerId = "A616F07E-65DE-4D07-A020-83605E49AA22";
paths = (
{
closed = 1;
nodes = (
"284 0 LINE",
"284 616 LINE",
"458 616 LINE",
"458 700 LINE",
"18 700 LINE",
"18 616 LINE",
"192 616 LINE",
"192 0 LINE"
);
}
);
width = 476;
},
{
anchors = (
{
name = bottom;
position = "{238, 0}";
},
{
name = top;
position = "{238, 700}";
}
);
layerId = "3AF73D1F-32CE-4CF3-BC01-E4A23F7DE30A";
paths = (
{
closed = 1;
nodes = (
"299 0 LINE",
"299 588 LINE",
"467 588 LINE",
"467 700 LINE",
"9 700 LINE",
"9 588 LINE",
"177 588 LINE",
"177 0 LINE"
);
}
);
width = 476;
},
{
associatedMasterId = "A616F07E-65DE-4D07-A020-83605E49AA22";
layerId = "DDEB7C92-7FE4-40A9-B9B3-33B933BCDE6A";
name = "Condensed Sep 19 16, 18:47";
paths = (
{
closed = 1;
nodes = (
"285 0 LINE",
"285 614 LINE",
"458 614 LINE",
"458 700 LINE",
"18 700 LINE",
"18 614 LINE",
"191 614 LINE",
"191 0 LINE"
);
}
);
width = 476;
},
{
associatedMasterId = "3AF73D1F-32CE-4CF3-BC01-E4A23F7DE30A";
layerId = "A3AEBD56-372E-4F87-9240-AA83617825AB";
name = "Bold Condensed Sep 19 16, 18:47";
paths = (
{
closed = 1;
nodes = (
"299 0 LINE",
"299 576 LINE",
"467 576 LINE",
"467 700 LINE",
"9 700 LINE",
"9 576 LINE",
"177 576 LINE",
"177 0 LINE"
);
}
);
width = 476;
}
);
unicode = 0054;
},
{
glyphname = Tbar;
layers = (
{
layerId = UUID0;
paths = (
{
closed = 1;
nodes = (
"314 0 LINE",
"314 614 LINE",
"518 614 LINE",
"518 700 LINE",
"15 700 LINE",
"15 614 LINE",
"219 614 LINE",
"219 0 LINE"
);
},
{
closed = 1;
nodes = (
"444 327 LINE",
"444 390 LINE",
"89 390 LINE",
"89 327 LINE"
);
}
);
width = 533;
},
{
layerId = "7C863538-AAB4-42AD-A9FE-7240E615272A";
paths = (
{
closed = 1;
nodes = (
"341 0 LINE",
"341 576 LINE",
"539 576 LINE",
"539 700 LINE",
"15 700 LINE",
"15 576 LINE",
"213 576 LINE",
"213 0 LINE"
);
},
{
closed = 1;
nodes = (
"481 306 LINE",
"481 389 LINE",
"73 389 LINE",
"73 306 LINE"
);
}
);
width = 554;
},
{
components = (
{
name = T;
}
);
layerId = "A616F07E-65DE-4D07-A020-83605E49AA22";
paths = (
{
closed = 1;
nodes = (
"404 327 LINE",
"404 390 LINE",
"72 390 LINE",
"72 327 LINE"
);
}
);
width = 476;
},
{
components = (
{
name = T;
}
);
layerId = "3AF73D1F-32CE-4CF3-BC01-E4A23F7DE30A";
paths = (
{
closed = 1;
nodes = (
"429 306 LINE",
"429 389 LINE",
"47 389 LINE",
"47 306 LINE"
);
}
);
width = 476;
}
);
leftMetricsKey = T;
rightMetricsKey = T;
unicode = 0166;
},
{
glyphname = U;
layers = (
{
anchors = (
{
name = bottom;
position = "{362, 0}";
},
{
name = ogonek;
position = "{434, 0}";
},
{
name = top;
position = "{362, 700}";
},
{
name = topright;
position = "{605, 700}";
}
);
layerId = UUID0;
paths = (
{
closed = 1;
nodes = (
"559 -14 OFFCURVE",
"652 105 OFFCURVE",
"652 297 CURVE SMOOTH",
"652 700 LINE",
"557 700 LINE",
"557 323 LINE SMOOTH",
"557 196 OFFCURVE",
"528 72 OFFCURVE",
"362 72 CURVE SMOOTH",
"196 72 OFFCURVE",
"167 195 OFFCURVE",
"167 323 CURVE SMOOTH",
"167 700 LINE",
"72 700 LINE",
"72 297 LINE SMOOTH",
"72 105 OFFCURVE",
"165 -14 OFFCURVE",
"362 -14 CURVE SMOOTH"
);
}
);
width = 724;
},
{
anchors = (
{
name = bottom;
position = "{359, 0}";
},
{
name = ogonek;
position = "{427, 0}";
},
{
name = top;
position = "{359, 700}";
},
{
name = topright;
position = "{577, 700}";
}
);
layerId = "7C863538-AAB4-42AD-A9FE-7240E615272A";
paths = (
{
closed = 1;
nodes = (
"556 -14 OFFCURVE",
"649 110 OFFCURVE",
"649 300 CURVE SMOOTH",
"649 700 LINE",
"521 700 LINE",
"521 333 LINE SMOOTH",
"521 199 OFFCURVE",
"494 109 OFFCURVE",
"359 109 CURVE SMOOTH",
"224 109 OFFCURVE",
"197 199 OFFCURVE",
"197 333 CURVE SMOOTH",
"197 700 LINE",
"69 700 LINE",
"69 300 LINE SMOOTH",
"69 110 OFFCURVE",
"162 -14 OFFCURVE",
"359 -14 CURVE SMOOTH"
);
}
);
width = 718;
},
{
anchors = (
{
name = bottom;
position = "{362, 0}";
},
{
name = ogonek;
position = "{652, 10}";
},
{
name = top;
position = "{362, 700}";
},
{
name = topright;
position = "{675, 700}";
}
);
associatedMasterId = UUID0;
layerId = "3DCFFD75-67B2-418C-9FAE-DFA4A2F89D1B";
name = "Regular Sep 7 16, 14:04";
paths = (
{
closed = 1;
nodes = (
"559 -14 OFFCURVE",
"652 105 OFFCURVE",
"652 297 CURVE SMOOTH",
"652 700 LINE",
"557 700 LINE",
"557 343 LINE SMOOTH",
"557 206 OFFCURVE",
"528 72 OFFCURVE",
"362 72 CURVE SMOOTH",
"196 72 OFFCURVE",
"167 205 OFFCURVE",
"167 343 CURVE SMOOTH",
"167 700 LINE",
"72 700 LINE",
"72 297 LINE SMOOTH",
"72 105 OFFCURVE",
"165 -14 OFFCURVE",
"362 -14 CURVE"
);
}
);
width = 724;
},
{
anchors = (
{
name = bottom;
position = "{359, 0}";
},
{
name = ogonek;
position = "{646, 10}";
},
{
name = top;
position = "{359, 700}";
},
{
name = topright;
position = "{677, 700}";
}
);
associatedMasterId = "7C863538-AAB4-42AD-A9FE-7240E615272A";
layerId = "F0F444DB-4F37-4D13-8FA9-769768339B1F";
name = "Bold Sep 7 16, 14:04";
paths = (
{
closed = 1;
nodes = (
"556 -14 OFFCURVE",
"649 110 OFFCURVE",
"649 300 CURVE SMOOTH",
"649 700 LINE",
"521 700 LINE",
"521 343 LINE SMOOTH",
"521 213 OFFCURVE",
"494 109 OFFCURVE",
"359 109 CURVE SMOOTH",
"224 109 OFFCURVE",
"197 213 OFFCURVE",
"197 343 CURVE SMOOTH",
"197 700 LINE",
"69 700 LINE",
"69 300 LINE SMOOTH",
"69 110 OFFCURVE",
"162 -14 OFFCURVE",
"359 -14 CURVE"
);
}
);
width = 718;
},
{
anchors = (
{
name = bottom;
position = "{309, 0}";
},
{
name = ogonek;
position = "{369, 0}";
},
{
name = top;
position = "{309, 700}";
},
{
name = topright;
position = "{495, 700}";
}
);
layerId = "A616F07E-65DE-4D07-A020-83605E49AA22";
paths = (
{
closed = 1;
nodes = (
"483 -14 OFFCURVE",
"558 97 OFFCURVE",
"558 277 CURVE SMOOTH",
"558 700 LINE",
"466 700 LINE",
"466 303 LINE SMOOTH",
"466 176 OFFCURVE",
"447 70 OFFCURVE",
"308 70 CURVE SMOOTH",
"171 70 OFFCURVE",
"151 175 OFFCURVE",
"151 303 CURVE SMOOTH",
"151 700 LINE",
"59 700 LINE",
"59 277 LINE SMOOTH",
"59 97 OFFCURVE",
"134 -14 OFFCURVE",
"308 -14 CURVE SMOOTH"
);
}
);
width = 617;
},
{
anchors = (
{
name = bottom;
position = "{311, 0}";
},
{
name = ogonek;
position = "{357, 0}";
},
{
name = top;
position = "{311, 700}";
},
{
name = topright;
position = "{479, 700}";
}
);
layerId = "3AF73D1F-32CE-4CF3-BC01-E4A23F7DE30A";
paths = (
{
closed = 1;
nodes = (
"480 -14 OFFCURVE",
"560 98 OFFCURVE",
"560 270 CURVE SMOOTH",
"560 700 LINE",
"438 700 LINE",
"438 303 LINE SMOOTH",
"438 190 OFFCURVE",
"416 109 OFFCURVE",
"310 109 CURVE SMOOTH",
"205 109 OFFCURVE",
"182 190 OFFCURVE",
"182 303 CURVE SMOOTH",
"182 700 LINE",
"60 700 LINE",
"60 270 LINE SMOOTH",
"60 98 OFFCURVE",
"140 -14 OFFCURVE",
"310 -14 CURVE SMOOTH"
);
}
);
width = 620;
},
{
anchors = (
{
name = bottom;
position = "{309, 0}";
},
{
name = ogonek;
position = "{555, 10}";
},
{
name = top;
position = "{309, 700}";
},
{
name = topright;
position = "{597, 700}";
}
);
associatedMasterId = "A616F07E-65DE-4D07-A020-83605E49AA22";
layerId = "C8CA2E06-A810-46EB-A5BA-1621DA585ECF";
name = "Condensed Sep 19 16, 18:47";
paths = (
{
closed = 1;
nodes = (
"478 -14 OFFCURVE",
"558 105 OFFCURVE",
"558 297 CURVE SMOOTH",
"558 700 LINE",
"464 700 LINE",
"464 343 LINE SMOOTH",
"464 206 OFFCURVE",
"440 72 OFFCURVE",
"308 72 CURVE SMOOTH",
"177 72 OFFCURVE",
"153 205 OFFCURVE",
"153 343 CURVE SMOOTH",
"153 700 LINE",
"59 700 LINE",
"59 297 LINE SMOOTH",
"59 105 OFFCURVE",
"139 -14 OFFCURVE",
"308 -14 CURVE SMOOTH",
"308 -14 LINE"
);
}
);
width = 617;
},
{
anchors = (
{
name = bottom;
position = "{309, 0}";
},
{
name = ogonek;
position = "{555, 10}";
},
{
name = top;
position = "{309, 700}";
},
{
name = topright;
position = "{597, 710}";
}
);
associatedMasterId = "3AF73D1F-32CE-4CF3-BC01-E4A23F7DE30A";
layerId = "1D4214D3-880D-40BF-ABFF-92F504B841AA";
name = "Bold Condensed Sep 19 16, 18:47";
paths = (
{
closed = 1;
nodes = (
"478 -14 OFFCURVE",
"558 110 OFFCURVE",
"558 300 CURVE SMOOTH",
"558 700 LINE",
"435 700 LINE",
"435 343 LINE SMOOTH",
"435 213 OFFCURVE",
"413 109 OFFCURVE",
"308 109 CURVE SMOOTH",
"204 109 OFFCURVE",
"181 213 OFFCURVE",
"181 343 CURVE SMOOTH",
"181 700 LINE",
"59 700 LINE",
"59 300 LINE SMOOTH",
"59 110 OFFCURVE",
"139 -14 OFFCURVE",
"308 -14 CURVE SMOOTH",
"308 -14 LINE"
);
}
);
width = 617;
}
);
leftKerningGroup = U;
rightKerningGroup = U;
unicode = 0055;
},
{
glyphname = V;
layers = (
{
anchors = (
{
name = bottom;
position = "{305, 0}";
},
{
name = top;
position = "{305, 700}";
}
);
layerId = UUID0;
paths = (
{
closed = 1;
nodes = (
"4 700 LINE",
"255 0 LINE",
"355 0 LINE",
"606 700 LINE",
"506 700 LINE",
"291 93 LINE",
"319 93 LINE",
"104 700 LINE"
);
}
);
width = 610;
},
{
anchors = (
{
name = bottom;
position = "{310, 0}";
},
{
name = top;
position = "{310, 700}";
}
);
layerId = "7C863538-AAB4-42AD-A9FE-7240E615272A";
paths = (
{
closed = 1;
nodes = (
"0 700 LINE",
"249 0 LINE",
"370 0 LINE",
"619 700 LINE",
"490 700 LINE",
"296 148 LINE",
"322 148 LINE",
"129 700 LINE"
);
}
);
width = 619;
},
{
associatedMasterId = UUID0;
layerId = "E46751F5-4893-461D-A028-132E874418C4";
name = "Regular Sep 7 16, 14:04";
paths = (
{
closed = 1;
nodes = (
"372 0 LINE",
"640 700 LINE",
"540 700 LINE",
"323 109 LINE",
"104 700 LINE",
"4 700 LINE",
"272 0 LINE"
);
}
);
width = 644;
visible = 1;
},
{
associatedMasterId = "7C863538-AAB4-42AD-A9FE-7240E615272A";
layerId = "02D8091B-BECB-4B6B-9B3D-4B5F9A1C586C";
name = "Bold Sep 7 16, 14:04";
paths = (
{
closed = 1;
nodes = (
"408 0 LINE",
"654 700 LINE",
"522 700 LINE",
"329 169 LINE",
"133 700 LINE",
"0 700 LINE",
"252 0 LINE"
);
}
);
width = 657;
},
{
layerId = "A616F07E-65DE-4D07-A020-83605E49AA22";
paths = (
{
closed = 1;
nodes = (
"336 0 LINE",
"558 700 LINE",
"460 700 LINE",
"283 119 LINE",
"106 700 LINE",
"8 700 LINE",
"230 0 LINE"
);
}
);
width = 566;
},
{
layerId = "3AF73D1F-32CE-4CF3-BC01-E4A23F7DE30A";
paths = (
{
closed = 1;
nodes = (
"360 0 LINE",
"578 700 LINE",
"456 700 LINE",
"288 154 LINE",
"120 700 LINE",
"-2 700 LINE",
"216 0 LINE"
);
}
);
width = 576;
},
{
associatedMasterId = "A616F07E-65DE-4D07-A020-83605E49AA22";
layerId = "68507762-893C-4AF7-9A18-2073477AF2FD";
name = "Condensed Sep 19 16, 18:47";
paths = (
{
closed = 1;
nodes = (
"337 0 LINE",
"559 700 LINE",
"462 700 LINE",
"284 109 LINE",
"104 700 LINE",
"6 700 LINE",
"231 0 LINE"
);
}
);
width = 566;
},
{
associatedMasterId = "3AF73D1F-32CE-4CF3-BC01-E4A23F7DE30A";
layerId = "30EC32F1-C093-4D10-A548-F0833E7AE791";
name = "Bold Condensed Sep 19 16, 18:47";
paths = (
{
closed = 1;
nodes = (
"363 0 LINE",
"566 700 LINE",
"441 700 LINE",
"284 169 LINE",
"124 700 LINE",
"-3 700 LINE",
"208 0 LINE"
);
}
);
width = 565;
}
);
unicode = 0056;
},
{
glyphname = W;
layers = (
{
anchors = (
{
name = bottom;
position = "{476, 0}";
},
{
name = top;
position = "{476, 700}";
}
);
layerId = UUID0;
paths = (
{
closed = 1;
nodes = (
"303 0 LINE",
"473 563 LINE",
"643 0 LINE",
"744 0 LINE",
"942 700 LINE",
"842 700 LINE",
"694 123 LINE",
"523 686 LINE",
"423 686 LINE",
"252 123 LINE",
"104 700 LINE",
"4 700 LINE",
"202 0 LINE"
);
}
);
width = 946;
},
{
anchors = (
{
name = bottom;
position = "{482, 0}";
},
{
name = top;
position = "{482, 700}";
}
);
layerId = "7C863538-AAB4-42AD-A9FE-7240E615272A";
paths = (
{
closed = 1;
nodes = (
"328 0 LINE",
"483 467 LINE",
"639 0 LINE",
"752 0 LINE",
"957 700 LINE",
"824 700 LINE",
"690 216 LINE",
"528 700 LINE",
"439 700 LINE",
"283 203 LINE",
"143 700 LINE",
"10 700 LINE",
"207 0 LINE"
);
}
);
width = 963;
},
{
associatedMasterId = UUID0;
layerId = "15B005E7-89F3-4F5B-A88F-458BC40F4DAB";
name = "Regular Sep 7 16, 14:04";
paths = (
{
closed = 1;
nodes = (
"315 0 LINE",
"486 574 LINE",
"651 0 LINE",
"756 0 LINE",
"961 700 LINE",
"861 700 LINE",
"707 109 LINE",
"530 686 LINE",
"444 686 LINE",
"269 108 LINE",
"114 700 LINE",
"14 700 LINE",
"210 0 LINE"
);
}
);
width = 971;
},
{
associatedMasterId = "7C863538-AAB4-42AD-A9FE-7240E615272A";
layerId = "2D140B85-53E4-48DE-A0C6-41EC5FFC8280";
name = "Bold Sep 7 16, 14:04";
paths = (
{
closed = 1;
nodes = (
"328 0 LINE",
"483 467 LINE",
"639 0 LINE",
"752 0 LINE",
"957 700 LINE",
"824 700 LINE",
"690 216 LINE",
"528 700 LINE",
"439 700 LINE",
"283 203 LINE",
"143 700 LINE",
"10 700 LINE",
"207 0 LINE"
);
}
);
width = 963;
},
{
anchors = (
{
name = bottom;
position = "{415, 0}";
},
{
name = top;
position = "{415, 700}";
}
);
layerId = "A616F07E-65DE-4D07-A020-83605E49AA22";
paths = (
{
closed = 1;
nodes = (
"284 0 LINE",
"414 553 LINE",
"546 0 LINE",
"650 0 LINE",
"822 700 LINE",
"724 700 LINE",
"598 129 LINE",
"467 686 LINE",
"363 686 LINE",
"232 129 LINE",
"106 700 LINE",
"8 700 LINE",
"180 0 LINE"
);
}
);
width = 830;
},
{
anchors = (
{
name = bottom;
position = "{405, 0}";
},
{
name = top;
position = "{405, 700}";
}
);
layerId = "3AF73D1F-32CE-4CF3-BC01-E4A23F7DE30A";
paths = (
{
closed = 1;
nodes = (
"284 0 LINE",
"405 504 LINE",
"526 0 LINE",
"656 0 LINE",
"812 700 LINE",
"690 700 LINE",
"588 183 LINE",
"470 687 LINE",
"340 687 LINE",
"222 183 LINE",
"120 700 LINE",
"-2 700 LINE",
"154 0 LINE"
);
}
);
width = 810;
},
{
associatedMasterId = "A616F07E-65DE-4D07-A020-83605E49AA22";
layerId = "43E77D36-1DCA-49F9-AC2E-82202B32FA07";
name = "Condensed Sep 19 16, 18:47";
paths = (
{
closed = 1;
nodes = (
"274 0 LINE",
"415 553 LINE",
"554 0 LINE",
"647 0 LINE",
"823 700 LINE",
"726 700 LINE",
"600 119 LINE",
"454 686 LINE",
"378 686 LINE",
"235 118 LINE",
"107 700 LINE",
"9 700 LINE",
"178 0 LINE"
);
}
);
width = 827;
},
{
associatedMasterId = "3AF73D1F-32CE-4CF3-BC01-E4A23F7DE30A";
layerId = "FE08E4A2-B9DA-4CDB-88B3-073BBEB21C86";
name = "Bold Condensed Sep 19 16, 18:47";
paths = (
{
closed = 1;
nodes = (
"289 0 LINE",
"416 467 LINE",
"547 0 LINE",
"647 0 LINE",
"823 700 LINE",
"697 700 LINE",
"589 216 LINE",
"455 700 LINE",
"378 700 LINE",
"250 203 LINE",
"136 700 LINE",
"9 700 LINE",
"179 0 LINE"
);
}
);
width = 831;
}
);
unicode = 0057;
},
{
glyphname = X;
layers = (
{
layerId = UUID0;
paths = (
{
closed = 1;
nodes = (
"114 0 LINE",
"297 271 LINE",
"479 0 LINE",
"589 0 LINE",
"352 353 LINE",
"585 700 LINE",
"475 700 LINE",
"297 435 LINE",
"118 700 LINE",
"8 700 LINE",
"242 353 LINE",
"4 0 LINE"
);
}
);
width = 593;
},
{
layerId = "7C863538-AAB4-42AD-A9FE-7240E615272A";
paths = (
{
closed = 1;
nodes = (
"140 0 LINE",
"313 255 LINE",
"486 0 LINE",
"628 0 LINE",
"383 359 LINE",
"616 700 LINE",
"474 700 LINE",
"313 462 LINE",
"152 700 LINE",
"10 700 LINE",
"243 359 LINE",
"-2 0 LINE"
);
}
);
width = 626;
},
{
associatedMasterId = UUID0;
layerId = "9A26F85A-1D85-4C84-A16C-AC14CA16C314";
name = "Regular Sep 7 16, 14:04";
paths = (
{
closed = 1;
nodes = (
"109 0 LINE",
"292 286 LINE",
"494 0 LINE",
"594 0 LINE",
"343 361 LINE",
"593 700 LINE",
"493 700 LINE",
"299 427 LINE",
"119 700 LINE",
"9 700 LINE",
"244 349 LINE",
"9 0 LINE"
);
}
);
width = 599;
},
{
associatedMasterId = "7C863538-AAB4-42AD-A9FE-7240E615272A";
layerId = "C2074FD6-C490-466A-9504-7B1CBCDE32C0";
name = "Bold Sep 7 16, 14:04";
paths = (
{
closed = 1;
nodes = (
"146 0 LINE",
"311 257 LINE",
"481 0 LINE",
"629 0 LINE",
"385 363 LINE",
"615 700 LINE",
"468 700 LINE",
"320 454 LINE",
"158 700 LINE",
"10 700 LINE",
"246 349 LINE",
"-1 0 LINE"
);
}
);
width = 627;
},
{
layerId = "A616F07E-65DE-4D07-A020-83605E49AA22";
paths = (
{
closed = 1;
nodes = (
"110 0 LINE",
"268 270 LINE",
"425 0 LINE",
"527 0 LINE",
"317 353 LINE",
"523 700 LINE",
"421 700 LINE",
"268 437 LINE",
"114 700 LINE",
"12 700 LINE",
"219 353 LINE",
"8 0 LINE"
);
}
);
width = 535;
},
{
layerId = "3AF73D1F-32CE-4CF3-BC01-E4A23F7DE30A";
paths = (
{
closed = 1;
nodes = (
"128 0 LINE",
"277.5 249.761 LINE",
"427 0 LINE",
"557 0 LINE",
"342.5 358.353 LINE",
"547 700 LINE",
"417 700 LINE",
"277.5 466.945 LINE",
"138 700 LINE",
"8 700 LINE",
"212.5 358.353 LINE",
"-2 0 LINE"
);
}
);
width = 555;
},
{
associatedMasterId = "A616F07E-65DE-4D07-A020-83605E49AA22";
layerId = "D6A26894-29F6-49A7-AFCC-D1E1761E0595";
name = "Condensed Sep 19 16, 18:47";
paths = (
{
closed = 1;
nodes = (
"112 0 LINE",
"263 286 LINE",
"425 0 LINE",
"528 0 LINE",
"315 361 LINE",
"523 700 LINE",
"420 700 LINE",
"270 427 LINE",
"121 700 LINE",
"13 700 LINE",
"215 349 LINE",
"9 0 LINE"
);
}
);
width = 547;
},
{
associatedMasterId = "3AF73D1F-32CE-4CF3-BC01-E4A23F7DE30A";
layerId = "8E722304-6AA2-496B-8C21-1B87C69EC3CA";
name = "Bold Condensed Sep 19 16, 18:47";
paths = (
{
closed = 1;
nodes = (
"128 0 LINE",
"263 257 LINE",
"397 0 LINE",
"543 0 LINE",
"335 363 LINE",
"526 700 LINE",
"382 700 LINE",
"272 454 LINE",
"139 700 LINE",
"-2 700 LINE",
"201 349 LINE",
"-16 0 LINE"
);
}
);
width = 518;
},
{
associatedMasterId = "A616F07E-65DE-4D07-A020-83605E49AA22";
guideLines = (
{
angle = 90;
position = "{528, 0}";
},
{
angle = 90;
position = "{9, 0}";
}
);
layerId = "DA754020-C655-44BE-8112-4BE135579907";
name = "Condensed Sep 20 16, 17:59";
paths = (
{
closed = 1;
nodes = (
"428 0 LINE",
"528 0 LINE",
"113 700 LINE",
"13 700 LINE"
);
},
{
closed = 1;
nodes = (
"9 0 LINE",
"109 0 LINE",
"524 700 LINE",
"424 700 LINE"
);
}
);
width = 547;
},
{
associatedMasterId = "7C863538-AAB4-42AD-A9FE-7240E615272A";
layerId = "A132A036-10BD-4497-9AEF-D1FB59F08DD0";
name = "Bold Sep 20 16, 18:12";
paths = (
{
closed = 1;
nodes = (
"486 0 LINE",
"628 0 LINE",
"152 700 LINE",
"10 700 LINE"
);
},
{
closed = 1;
nodes = (
"-2 0 LINE",
"140 0 LINE",
"616 700 LINE",
"474 700 LINE"
);
}
);
width = 626;
},
{
associatedMasterId = UUID0;
layerId = "E631828C-05BE-4E71-9C58-BEC1C662A749";
name = "Regular Sep 20 16, 18:14";
paths = (
{
closed = 1;
nodes = (
"484 0 LINE",
"594 0 LINE",
"123 700 LINE",
"13 700 LINE"
);
},
{
closed = 1;
nodes = (
"9 0 LINE",
"119 0 LINE",
"590 700 LINE",
"480 700 LINE"
);
}
);
width = 599;
},
{
associatedMasterId = "3AF73D1F-32CE-4CF3-BC01-E4A23F7DE30A";
layerId = "75D5A32F-9C35-4341-A784-A3E42D33BAA3";
name = "Bold Condensed Sep 20 16, 18:14";
paths = (
{
closed = 1;
nodes = (
"547 700 LINE",
"417 700 LINE",
"-2 0 LINE",
"128 0 LINE"
);
},
{
closed = 1;
nodes = (
"427 0 LINE",
"557 0 LINE",
"138 700 LINE",
"8 700 LINE"
);
}
);
width = 555;
}
);
unicode = 0058;
},
{
glyphname = Y;
layers = (
{
anchors = (
{
name = bottom;
position = "{284, 0}";
},
{
name = top;
position = "{283, 700}";
}
);
layerId = UUID0;
paths = (
{
closed = 1;
nodes = (
"331 0 LINE",
"331 303 LINE",
"577 700 LINE",
"469 700 LINE",
"261 360 LINE",
"305 360 LINE",
"97 700 LINE",
"-11 700 LINE",
"236 303 LINE",
"236 0 LINE"
);
}
);
width = 567;
},
{
anchors = (
{
name = bottom;
position = "{302, 0}";
},
{
name = top;
position = "{302, 700}";
}
);
layerId = "7C863538-AAB4-42AD-A9FE-7240E615272A";
paths = (
{
closed = 1;
nodes = (
"366 0 LINE",
"366 283 LINE",
"612 700 LINE",
"472 700 LINE",
"272 345 LINE",
"332 345 LINE",
"132 700 LINE",
"-8 700 LINE",
"238 283 LINE",
"238 0 LINE"
);
}
);
width = 604;
},
{
anchors = (
{
name = bottom;
position = "{284, 0}";
},
{
name = top;
position = "{284, 700}";
},
{
name = topleft;
position = "{20, 700}";
}
);
associatedMasterId = UUID0;
layerId = "45E95D6C-B4F4-4435-B478-AA219F39B314";
name = "Regular Sep 7 16, 14:04";
paths = (
{
closed = 1;
nodes = (
"333 0 LINE",
"333 323 LINE",
"569 700 LINE",
"469 700 LINE",
"283 409 LINE",
"97 700 LINE",
"-3 700 LINE",
"234 323 LINE",
"234 0 LINE"
);
}
);
width = 567;
},
{
anchors = (
{
name = bottom;
position = "{299, 0}";
},
{
name = top;
position = "{299, 700}";
},
{
name = topleft;
position = "{20, 700}";
}
);
associatedMasterId = "7C863538-AAB4-42AD-A9FE-7240E615272A";
layerId = "915DC1E4-493E-4641-BB04-1106E73E69A6";
name = "Bold Sep 7 16, 14:04";
paths = (
{
closed = 1;
nodes = (
"363 0 LINE",
"363 310 LINE",
"605 700 LINE",
"469 700 LINE",
"299 424 LINE",
"129 700 LINE",
"-7 700 LINE",
"235 310 LINE",
"235 0 LINE"
);
}
);
width = 598;
},
{
anchors = (
{
name = bottom;
position = "{253, 0}";
},
{
name = top;
position = "{252, 700}";
}
);
layerId = "A616F07E-65DE-4D07-A020-83605E49AA22";
paths = (
{
closed = 1;
nodes = (
"299 0 LINE",
"299 303 LINE",
"505 700 LINE",
"403 700 LINE",
"234 362 LINE",
"272 362 LINE",
"101 700 LINE",
"-1 700 LINE",
"207 303 LINE",
"207 0 LINE"
);
}
);
width = 517;
},
{
anchors = (
{
name = bottom;
position = "{263, 0}";
},
{
name = top;
position = "{263, 700}";
}
);
layerId = "3AF73D1F-32CE-4CF3-BC01-E4A23F7DE30A";
paths = (
{
closed = 1;
nodes = (
"323 0 LINE",
"323 310 LINE",
"533 700 LINE",
"403 700 LINE",
"238 373 LINE",
"289 373 LINE",
"122 700 LINE",
"-8 700 LINE",
"202 310 LINE",
"202 0 LINE"
);
}
);
width = 525;
},
{
anchors = (
{
name = bottom;
position = "{259, 0}";
},
{
name = top;
position = "{259, 700}";
},
{
name = topleft;
position = "{20, 700}";
}
);
associatedMasterId = "A616F07E-65DE-4D07-A020-83605E49AA22";
layerId = "F9FD6DD9-E3BB-4B15-8BBB-6C40891BFDED";
name = "Condensed Sep 19 16, 18:47";
paths = (
{
closed = 1;
nodes = (
"300 0 LINE",
"300 323 LINE",
"505 700 LINE",
"406 700 LINE",
"252 409 LINE",
"98 700 LINE",
"-1 700 LINE",
"205 323 LINE",
"205 0 LINE"
);
}
);
width = 517;
visible = 1;
},
{
anchors = (
{
name = bottom;
position = "{247, 0}";
},
{
name = top;
position = "{247, 700}";
},
{
name = topleft;
position = "{20, 700}";
}
);
associatedMasterId = "3AF73D1F-32CE-4CF3-BC01-E4A23F7DE30A";
layerId = "DB418CA9-C1A6-4E03-B157-45AC2F89FA1A";
name = "Bold Condensed Sep 19 16, 18:47";
paths = (
{
closed = 1;
nodes = (
"312 0 LINE",
"312 310 LINE",
"522 700 LINE",
"392 700 LINE",
"252 424 LINE",
"111 700 LINE",
"-19 700 LINE",
"191 310 LINE",
"191 0 LINE"
);
}
);
width = 494;
}
);
leftKerningGroup = Y;
rightKerningGroup = Y;
unicode = 0059;
},
{
glyphname = Z;
layers = (
{
anchors = (
{
name = bottom;
position = "{253, 0}";
},
{
name = top;
position = "{298, 700}";
}
);
layerId = UUID0;
paths = (
{
closed = 1;
nodes = (
"537 0 LINE",
"537 86 LINE",
"122 86 LINE",
"139 50 LINE",
"542 700 LINE",
"54 700 LINE",
"54 614 LINE",
"428 614 LINE",
"410 650 LINE",
"9 0 LINE"
);
}
);
width = 549;
},
{
anchors = (
{
name = bottom;
position = "{252.539, 0}";
},
{
name = top;
position = "{297, 700}";
}
);
layerId = "7C863538-AAB4-42AD-A9FE-7240E615272A";
paths = (
{
closed = 1;
nodes = (
"536 0 LINE",
"536 114 LINE",
"161 114 LINE",
"183 74 LINE",
"541 700 LINE",
"53 700 LINE",
"53 586 LINE",
"388 586 LINE",
"366 626 LINE",
"8 0 LINE"
);
}
);
width = 548;
},
{
anchors = (
{
name = bottom;
position = "{253, 0}";
},
{
name = top;
position = "{298, 700}";
}
);
associatedMasterId = UUID0;
layerId = "8D13FBE0-6E10-4DC9-A063-9AD3B61EF9C0";
name = "Regular Sep 7 16, 14:04";
paths = (
{
closed = 1;
nodes = (
"497 0 LINE",
"497 86 LINE",
"165 86 LINE",
"542 700 LINE",
"54 700 LINE",
"54 614 LINE",
"385 614 LINE",
"9 0 LINE"
);
}
);
width = 549;
},
{
anchors = (
{
name = bottom;
position = "{252.539, 0}";
},
{
name = top;
position = "{297.457, 700}";
}
);
associatedMasterId = "7C863538-AAB4-42AD-A9FE-7240E615272A";
layerId = "AE6F5C73-928E-4B13-9EA3-5D0250EB54C2";
name = "Bold Sep 7 16, 14:04";
paths = (
{
closed = 1;
nodes = (
"496 0 LINE",
"496 124 LINE",
"219 124 LINE",
"541 700 LINE",
"53 700 LINE",
"53 576 LINE",
"330 576 LINE",
"8 0 LINE"
);
}
);
width = 548;
},
{
anchors = (
{
name = bottom;
position = "{238, 0}";
},
{
name = top;
position = "{256, 700}";
}
);
layerId = "A616F07E-65DE-4D07-A020-83605E49AA22";
paths = (
{
closed = 1;
nodes = (
"469 0 LINE",
"469 86 LINE",
"118 86 LINE",
"129 48 LINE",
"465 700 LINE",
"46 700 LINE",
"46 614 LINE",
"354 614 LINE",
"343 652 LINE",
"7 0 LINE"
);
}
);
width = 480;
},
{
anchors = (
{
name = bottom;
position = "{238, 0}";
},
{
name = top;
position = "{256, 700}";
}
);
layerId = "3AF73D1F-32CE-4CF3-BC01-E4A23F7DE30A";
paths = (
{
closed = 1;
nodes = (
"469 0 LINE",
"469 112 LINE",
"142 112 LINE",
"166 72 LINE",
"465 700 LINE",
"47 700 LINE",
"47 588 LINE",
"332 588 LINE",
"308 628 LINE",
"7 0 LINE"
);
}
);
width = 477;
},
{
associatedMasterId = "A616F07E-65DE-4D07-A020-83605E49AA22";
layerId = "CBA24404-F019-42F4-A88A-11E8E71FE566";
name = "Condensed Sep 19 16, 18:47";
paths = (
{
closed = 1;
nodes = (
"427 0 LINE",
"427 86 LINE",
"161 86 LINE",
"465 700 LINE",
"46 700 LINE",
"46 614 LINE",
"311 614 LINE",
"7 0 LINE"
);
}
);
width = 480;
},
{
associatedMasterId = "3AF73D1F-32CE-4CF3-BC01-E4A23F7DE30A";
layerId = "57362DCD-71B7-43B4-8E47-6A78227478A1";
name = "Bold Condensed Sep 19 16, 18:47";
paths = (
{
closed = 1;
nodes = (
"427 0 LINE",
"427 124 LINE",
"209 124 LINE",
"465 700 LINE",
"46 700 LINE",
"46 576 LINE",
"264 576 LINE",
"7 0 LINE"
);
}
);
width = 463;
}
);
leftKerningGroup = Z;
rightKerningGroup = Z;
unicode = 005A;
},
{
glyphname = a;
layers = (
{
anchors = (
{
name = bottom;
position = "{240, 0}";
},
{
name = ogonek;
position = "{421, 0}";
},
{
name = top;
position = "{234, 490}";
}
);
layerId = UUID0;
paths = (
{
closed = 1;
nodes = (
"238 -10 OFFCURVE",
"288 19 OFFCURVE",
"325 62 CURVE",
"345 16 OFFCURVE",
"364 -10 OFFCURVE",
"451 -10 CURVE SMOOTH",
"458 -10 LINE",
"472 62 LINE",
"463 62 LINE SMOOTH",
"411 62 OFFCURVE",
"407 95 OFFCURVE",
"407 165 CURVE SMOOTH",
"407 265 LINE SMOOTH",
"407 442 OFFCURVE",
"358 500 OFFCURVE",
"234 500 CURVE SMOOTH",
"169 500 OFFCURVE",
"107 479 OFFCURVE",
"68 449 CURVE",
"81 376 LINE",
"133 412 OFFCURVE",
"173 420 OFFCURVE",
"210 420 CURVE SMOOTH",
"279 420 OFFCURVE",
"317 400 OFFCURVE",
"317 307 CURVE",
"192 305 OFFCURVE",
"24 270 OFFCURVE",
"24 132 CURVE SMOOTH",
"24 50 OFFCURVE",
"84 -10 OFFCURVE",
"175 -10 CURVE SMOOTH"
);
},
{
closed = 1;
nodes = (
"147 62 OFFCURVE",
"116 84 OFFCURVE",
"116 137 CURVE SMOOTH",
"116 210 OFFCURVE",
"174 240 OFFCURVE",
"317 245 CURVE",
"317 128 LINE",
"288 88 OFFCURVE",
"240 62 OFFCURVE",
"192 62 CURVE SMOOTH"
);
}
);
width = 480;
},
{
anchors = (
{
name = bottom;
position = "{249, 0}";
},
{
name = ogonek;
position = "{440, 0}";
},
{
name = top;
position = "{246, 500}";
}
);
layerId = "7C863538-AAB4-42AD-A9FE-7240E615272A";
paths = (
{
closed = 1;
nodes = (
"226 -10 OFFCURVE",
"286 11 OFFCURVE",
"319 48 CURVE",
"338 13 OFFCURVE",
"375 -10 OFFCURVE",
"431 -10 CURVE SMOOTH",
"476 -10 LINE",
"487 92 LINE",
"471 92 LINE SMOOTH",
"435 92 OFFCURVE",
"427 97 OFFCURVE",
"427 172 CURVE SMOOTH",
"427 307 LINE SMOOTH",
"427 452 OFFCURVE",
"358 508 OFFCURVE",
"246 508 CURVE SMOOTH",
"184 508 OFFCURVE",
"124 493 OFFCURVE",
"64 464 CURVE",
"75 363 LINE",
"128 389 OFFCURVE",
"167 401 OFFCURVE",
"212 401 CURVE SMOOTH",
"276 401 OFFCURVE",
"299 376 OFFCURVE",
"302 319 CURVE",
"208 316 OFFCURVE",
"21 281 OFFCURVE",
"21 140 CURVE SMOOTH",
"21 45 OFFCURVE",
"86 -10 OFFCURVE",
"166 -10 CURVE SMOOTH"
);
},
{
closed = 1;
nodes = (
"171 85 OFFCURVE",
"151 104 OFFCURVE",
"151 145 CURVE SMOOTH",
"151 204 OFFCURVE",
"233 232 OFFCURVE",
"303 235 CURVE",
"303 121 LINE",
"277 96 OFFCURVE",
"240 85 OFFCURVE",
"218 85 CURVE SMOOTH"
);
}
);
width = 498;
},
{
anchors = (
{
name = bottom;
position = "{240, 0}";
},
{
name = ogonek;
position = "{432, 10}";
},
{
name = top;
position = "{240, 490}";
}
);
associatedMasterId = UUID0;
layerId = "A8C2F480-0067-4F38-8F08-67524F8C581C";
name = "Regular Sep 7 16, 14:04";
paths = (
{
closed = 1;
nodes = (
"238 -10 OFFCURVE",
"288 19 OFFCURVE",
"325 62 CURVE",
"345 16 OFFCURVE",
"364 -10 OFFCURVE",
"451 -10 CURVE SMOOTH",
"458 -10 LINE",
"472 62 LINE",
"463 62 LINE SMOOTH",
"411 62 OFFCURVE",
"407 95 OFFCURVE",
"407 165 CURVE SMOOTH",
"407 265 LINE SMOOTH",
"407 442 OFFCURVE",
"358 500 OFFCURVE",
"234 500 CURVE SMOOTH",
"169 500 OFFCURVE",
"107 479 OFFCURVE",
"68 449 CURVE",
"81 376 LINE",
"133 412 OFFCURVE",
"173 420 OFFCURVE",
"210 420 CURVE SMOOTH",
"279 420 OFFCURVE",
"317 400 OFFCURVE",
"317 307 CURVE",
"192 305 OFFCURVE",
"24 270 OFFCURVE",
"24 132 CURVE SMOOTH",
"24 50 OFFCURVE",
"84 -10 OFFCURVE",
"175 -10 CURVE SMOOTH"
);
},
{
closed = 1;
nodes = (
"147 62 OFFCURVE",
"116 84 OFFCURVE",
"116 137 CURVE SMOOTH",
"116 210 OFFCURVE",
"174 240 OFFCURVE",
"317 245 CURVE",
"317 128 LINE",
"288 88 OFFCURVE",
"240 62 OFFCURVE",
"192 62 CURVE SMOOTH"
);
}
);
width = 480;
},
{
anchors = (
{
name = bottom;
position = "{249, 0}";
},
{
name = ogonek;
position = "{448, 10}";
},
{
name = top;
position = "{249, 500}";
}
);
associatedMasterId = "7C863538-AAB4-42AD-A9FE-7240E615272A";
layerId = "D897701B-7DC5-4624-95F5-601DCEB0BFCD";
name = "Bold Sep 7 16, 14:04";
paths = (
{
closed = 1;
nodes = (
"226 -10 OFFCURVE",
"286 11 OFFCURVE",
"319 48 CURVE",
"338 13 OFFCURVE",
"375 -10 OFFCURVE",
"431 -10 CURVE SMOOTH",
"476 -10 LINE",
"487 92 LINE",
"471 92 LINE SMOOTH",
"435 92 OFFCURVE",
"427 97 OFFCURVE",
"427 172 CURVE SMOOTH",
"427 307 LINE SMOOTH",
"427 452 OFFCURVE",
"358 508 OFFCURVE",
"246 508 CURVE SMOOTH",
"184 508 OFFCURVE",
"124 493 OFFCURVE",
"64 464 CURVE",
"75 363 LINE",
"128 389 OFFCURVE",
"167 401 OFFCURVE",
"212 401 CURVE SMOOTH",
"276 401 OFFCURVE",
"299 376 OFFCURVE",
"302 319 CURVE",
"208 316 OFFCURVE",
"21 281 OFFCURVE",
"21 140 CURVE SMOOTH",
"21 45 OFFCURVE",
"86 -10 OFFCURVE",
"166 -10 CURVE SMOOTH"
);
},
{
closed = 1;
nodes = (
"171 85 OFFCURVE",
"151 104 OFFCURVE",
"151 145 CURVE SMOOTH",
"151 204 OFFCURVE",
"233 232 OFFCURVE",
"303 235 CURVE",
"303 121 LINE",
"277 96 OFFCURVE",
"240 85 OFFCURVE",
"218 85 CURVE SMOOTH"
);
}
);
width = 498;
},
{
anchors = (
{
name = bottom;
position = "{217, 0}";
},
{
name = ogonek;
position = "{371, 0}";
},
{
name = top;
position = "{217, 490}";
}
);
layerId = "A616F07E-65DE-4D07-A020-83605E49AA22";
paths = (
{
closed = 1;
nodes = (
"205 -10 OFFCURVE",
"251 19 OFFCURVE",
"282 62 CURVE",
"299 16 OFFCURVE",
"321 -10 OFFCURVE",
"385 -10 CURVE SMOOTH",
"405 -10 LINE",
"416 62 LINE",
"405 62 LINE SMOOTH",
"367 62 OFFCURVE",
"362 95 OFFCURVE",
"362 165 CURVE SMOOTH",
"362 308 LINE SMOOTH",
"362 445 OFFCURVE",
"311 500 OFFCURVE",
"207 500 CURVE SMOOTH",
"153 500 OFFCURVE",
"102 482 OFFCURVE",
"61 449 CURVE",
"72 376 LINE",
"113 406 OFFCURVE",
"150 420 OFFCURVE",
"190 420 CURVE SMOOTH",
"248 420 OFFCURVE",
"272 393 OFFCURVE",
"272 307 CURVE",
"175 305 OFFCURVE",
"24 270 OFFCURVE",
"24 132 CURVE SMOOTH",
"24 50 OFFCURVE",
"77 -10 OFFCURVE",
"152 -10 CURVE SMOOTH"
);
},
{
closed = 1;
nodes = (
"139 62 OFFCURVE",
"117 84 OFFCURVE",
"117 137 CURVE SMOOTH",
"117 210 OFFCURVE",
"175 240 OFFCURVE",
"272 245 CURVE",
"272 128 LINE",
"248 88 OFFCURVE",
"211 62 OFFCURVE",
"179 62 CURVE SMOOTH"
);
}
);
width = 434;
},
{
anchors = (
{
name = bottom;
position = "{212, 0}";
},
{
name = ogonek;
position = "{371, 0}";
},
{
name = top;
position = "{212, 500}";
}
);
layerId = "3AF73D1F-32CE-4CF3-BC01-E4A23F7DE30A";
paths = (
{
closed = 1;
nodes = (
"200 -10 OFFCURVE",
"234 12 OFFCURVE",
"267 48 CURVE",
"283 13 OFFCURVE",
"322 -10 OFFCURVE",
"358 -10 CURVE SMOOTH",
"411 -10 LINE",
"419 92 LINE",
"403 92 LINE SMOOTH",
"378 92 OFFCURVE",
"370 97 OFFCURVE",
"370 172 CURVE SMOOTH",
"370 323 LINE SMOOTH",
"370 456 OFFCURVE",
"305 508 OFFCURVE",
"210 508 CURVE SMOOTH",
"157 508 OFFCURVE",
"102 493 OFFCURVE",
"49 464 CURVE",
"57 363 LINE",
"100 387 OFFCURVE",
"136 401 OFFCURVE",
"178 401 CURVE SMOOTH",
"231 401 OFFCURVE",
"249 376 OFFCURVE",
"249 319 CURVE",
"180 316 OFFCURVE",
"12 279 OFFCURVE",
"12 129 CURVE SMOOTH",
"12 37 OFFCURVE",
"75 -10 OFFCURVE",
"145 -10 CURVE SMOOTH"
);
},
{
closed = 1;
nodes = (
"159 85 OFFCURVE",
"138 100 OFFCURVE",
"138 141 CURVE SMOOTH",
"138 203 OFFCURVE",
"194 228 OFFCURVE",
"250 235 CURVE",
"250 121 LINE",
"231 98 OFFCURVE",
"211 85 OFFCURVE",
"186 85 CURVE SMOOTH"
);
}
);
width = 423;
},
{
anchors = (
{
name = bottom;
position = "{217, 0}";
},
{
name = ogonek;
position = "{391, 10}";
},
{
name = top;
position = "{217, 490}";
}
);
associatedMasterId = "A616F07E-65DE-4D07-A020-83605E49AA22";
layerId = "5160354A-4806-4CC9-8F5B-5FAAFDDFD2C3";
name = "Condensed Sep 19 16, 18:47";
paths = (
{
closed = 1;
nodes = (
"205 -10 OFFCURVE",
"251 19 OFFCURVE",
"282 62 CURVE",
"299 16 OFFCURVE",
"321 -10 OFFCURVE",
"385 -10 CURVE SMOOTH",
"405 -10 LINE",
"416 62 LINE",
"405 62 LINE SMOOTH",
"367 62 OFFCURVE",
"362 95 OFFCURVE",
"362 165 CURVE SMOOTH",
"362 265 LINE SMOOTH",
"362 442 OFFCURVE",
"312 500 OFFCURVE",
"210 500 CURVE SMOOTH",
"155 500 OFFCURVE",
"103 479 OFFCURVE",
"61 449 CURVE",
"72 376 LINE",
"117 412 OFFCURVE",
"151 420 OFFCURVE",
"186 420 CURVE SMOOTH",
"243 420 OFFCURVE",
"271 400 OFFCURVE",
"272 307 CURVE",
"175 305 OFFCURVE",
"24 270 OFFCURVE",
"24 132 CURVE SMOOTH",
"24 50 OFFCURVE",
"77 -10 OFFCURVE",
"152 -10 CURVE SMOOTH"
);
},
{
closed = 1;
nodes = (
"139 62 OFFCURVE",
"117 84 OFFCURVE",
"117 137 CURVE SMOOTH",
"117 210 OFFCURVE",
"175 240 OFFCURVE",
"272 245 CURVE",
"272 128 LINE",
"248 88 OFFCURVE",
"211 62 OFFCURVE",
"179 62 CURVE SMOOTH"
);
}
);
width = 434;
},
{
anchors = (
{
name = bottom;
position = "{212, 0}";
},
{
name = ogonek;
position = "{381, 10}";
},
{
name = top;
position = "{212, 500}";
}
);
associatedMasterId = "3AF73D1F-32CE-4CF3-BC01-E4A23F7DE30A";
layerId = "AB5F5952-24ED-44A6-A56B-1445021E3D59";
name = "Bold Condensed Sep 19 16, 18:47";
paths = (
{
closed = 1;
nodes = (
"200 -10 OFFCURVE",
"234 12 OFFCURVE",
"267 48 CURVE",
"283 13 OFFCURVE",
"322 -10 OFFCURVE",
"358 -10 CURVE SMOOTH",
"411 -10 LINE",
"419 92 LINE",
"403 92 LINE SMOOTH",
"378 92 OFFCURVE",
"370 97 OFFCURVE",
"370 172 CURVE SMOOTH",
"370 307 LINE SMOOTH",
"370 452 OFFCURVE",
"303 508 OFFCURVE",
"211 508 CURVE SMOOTH",
"159 508 OFFCURVE",
"108 493 OFFCURVE",
"49 464 CURVE",
"57 363 LINE",
"103 389 OFFCURVE",
"136 401 OFFCURVE",
"178 401 CURVE SMOOTH",
"231 401 OFFCURVE",
"246 376 OFFCURVE",
"249 319 CURVE",
"180 316 OFFCURVE",
"12 279 OFFCURVE",
"12 129 CURVE SMOOTH",
"12 37 OFFCURVE",
"75 -10 OFFCURVE",
"145 -10 CURVE SMOOTH"
);
},
{
closed = 1;
nodes = (
"159 85 OFFCURVE",
"138 100 OFFCURVE",
"138 141 CURVE SMOOTH",
"138 203 OFFCURVE",
"194 228 OFFCURVE",
"250 235 CURVE",
"250 121 LINE",
"231 98 OFFCURVE",
"211 85 OFFCURVE",
"186 85 CURVE SMOOTH"
);
}
);
width = 423;
}
);
leftKerningGroup = a;
rightKerningGroup = a;
unicode = 0061;
},
{
glyphname = ae;
layers = (
{
anchors = (
{
name = bottom;
position = "{304, 0}";
},
{
name = ogonek;
position = "{432, 10}";
},
{
name = top;
position = "{405, 490}";
}
);
layerId = UUID0;
paths = (
{
closed = 1;
nodes = (
"319 108 OFFCURVE",
"408 -10 OFFCURVE",
"574 -10 CURVE SMOOTH",
"641 -10 OFFCURVE",
"690 7 OFFCURVE",
"728 28 CURVE",
"716 99 LINE",
"669 80 OFFCURVE",
"627 70 OFFCURVE",
"585 70 CURVE SMOOTH",
"495 70 OFFCURVE",
"414 116 OFFCURVE",
"414 258 CURVE SMOOTH",
"414 364 OFFCURVE",
"468 420 OFFCURVE",
"548 420 CURVE SMOOTH",
"622 420 OFFCURVE",
"657 371 OFFCURVE",
"657 307 CURVE",
"345 307 LINE SMOOTH",
"211 307 OFFCURVE",
"24 280 OFFCURVE",
"24 132 CURVE SMOOTH",
"24 50 OFFCURVE",
"88 -10 OFFCURVE",
"185 -10 CURVE SMOOTH",
"268 -10 OFFCURVE",
"345 42 OFFCURVE",
"382 111 CURVE",
"352 153 LINE",
"317 95 OFFCURVE",
"264 62 OFFCURVE",
"202 62 CURVE SMOOTH",
"151 62 OFFCURVE",
"116 84 OFFCURVE",
"116 137 CURVE SMOOTH",
"116 210 OFFCURVE",
"176 245 OFFCURVE",
"328 245 CURVE SMOOTH",
"746 245 LINE",
"749 262 OFFCURVE",
"750 279 OFFCURVE",
"750 293 CURVE SMOOTH",
"750 412 OFFCURVE",
"679 500 OFFCURVE",
"556 500 CURVE SMOOTH",
"459 500 OFFCURVE",
"385 444 OFFCURVE",
"351 364 CURVE",
"399 370 LINE",
"380 466 OFFCURVE",
"329 500 OFFCURVE",
"234 500 CURVE SMOOTH",
"169 500 OFFCURVE",
"107 479 OFFCURVE",
"68 449 CURVE",
"81 376 LINE",
"133 412 OFFCURVE",
"173 420 OFFCURVE",
"210 420 CURVE SMOOTH",
"294 420 OFFCURVE",
"319 376 OFFCURVE",
"319 293 CURVE SMOOTH",
"319 249 LINE SMOOTH"
);
}
);
width = 780;
},
{
anchors = (
{
name = bottom;
position = "{288, 0}";
},
{
name = ogonek;
position = "{852, 10}";
},
{
name = top;
position = "{401, 500}";
}
);
layerId = "7C863538-AAB4-42AD-A9FE-7240E615272A";
paths = (
{
closed = 1;
nodes = (
"306 111 OFFCURVE",
"394 -10 OFFCURVE",
"572 -10 CURVE SMOOTH",
"641 -10 OFFCURVE",
"695 8 OFFCURVE",
"734 28 CURVE",
"728 133 LINE",
"686 110 OFFCURVE",
"631 92 OFFCURVE",
"579 92 CURVE SMOOTH",
"504 92 OFFCURVE",
"433 141 OFFCURVE",
"433 261 CURVE SMOOTH",
"433 350 OFFCURVE",
"473 406 OFFCURVE",
"545 406 CURVE SMOOTH",
"604 406 OFFCURVE",
"630 360 OFFCURVE",
"630 307 CURVE",
"299 307 LINE SMOOTH",
"163 307 OFFCURVE",
"21 260 OFFCURVE",
"21 130 CURVE SMOOTH",
"21 41 OFFCURVE",
"89 -10 OFFCURVE",
"185 -10 CURVE SMOOTH",
"258 -10 OFFCURVE",
"333 28 OFFCURVE",
"380 85 CURVE",
"342 140 LINE",
"306 102 OFFCURVE",
"264 85 OFFCURVE",
"226 85 CURVE SMOOTH",
"184 85 OFFCURVE",
"151 104 OFFCURVE",
"151 144 CURVE SMOOTH",
"151 195 OFFCURVE",
"210 223 OFFCURVE",
"317 223 CURVE SMOOTH",
"748 223 LINE",
"753 247 OFFCURVE",
"756 269 OFFCURVE",
"756 291 CURVE SMOOTH",
"756 410 OFFCURVE",
"686 508 OFFCURVE",
"545 508 CURVE SMOOTH",
"452 508 OFFCURVE",
"384 465 OFFCURVE",
"345 401 CURVE",
"409 414 LINE",
"382 480 OFFCURVE",
"325 508 OFFCURVE",
"246 508 CURVE SMOOTH",
"184 508 OFFCURVE",
"124 493 OFFCURVE",
"64 464 CURVE",
"75 363 LINE",
"128 389 OFFCURVE",
"167 401 OFFCURVE",
"212 401 CURVE SMOOTH",
"289 401 OFFCURVE",
"306 353 OFFCURVE",
"306 275 CURVE SMOOTH",
"306 253 LINE SMOOTH"
);
}
);
width = 783;
},
{
anchors = (
{
name = bottom;
position = "{399, 0}";
},
{
name = top;
position = "{399, 490}";
}
);
associatedMasterId = UUID0;
layerId = "8446CB94-5AD0-4720-A5E6-1D70C2634DE7";
name = "Regular Sep 15 16, 18:57";
paths = (
{
closed = 1;
nodes = (
"264 -14 OFFCURVE",
"345 25 OFFCURVE",
"380 103 CURVE",
"417 22 OFFCURVE",
"487 -10 OFFCURVE",
"581 -10 CURVE SMOOTH",
"647 -10 OFFCURVE",
"695 8 OFFCURVE",
"744 30 CURVE",
"727 99 LINE",
"673 76 OFFCURVE",
"641 62 OFFCURVE",
"593 62 CURVE SMOOTH",
"497 62 OFFCURVE",
"428 122 OFFCURVE",
"428 245 CURVE",
"764 245 LINE",
"766 261 OFFCURVE",
"768 279 OFFCURVE",
"768 300 CURVE SMOOTH",
"768 424 OFFCURVE",
"699 500 OFFCURVE",
"580 500 CURVE SMOOTH",
"491 500 OFFCURVE",
"418 458 OFFCURVE",
"390 380 CURVE",
"372 481 OFFCURVE",
"277 500 OFFCURVE",
"231 500 CURVE SMOOTH",
"185 500 OFFCURVE",
"131 487 OFFCURVE",
"75 461 CURVE",
"83 391 LINE",
"127 410 OFFCURVE",
"163 420 OFFCURVE",
"205 420 CURVE SMOOTH",
"280 420 OFFCURVE",
"311 387 OFFCURVE",
"323 307 CURVE",
"202 301 OFFCURVE",
"22 270 OFFCURVE",
"22 118 CURVE SMOOTH",
"22 38 OFFCURVE",
"71 -14 OFFCURVE",
"172 -14 CURVE SMOOTH"
);
},
{
closed = 1;
nodes = (
"148 62 OFFCURVE",
"114 79 OFFCURVE",
"114 126 CURVE SMOOTH",
"114 215 OFFCURVE",
"238 245 OFFCURVE",
"331 245 CURVE",
"333 227 OFFCURVE",
"333 211 OFFCURVE",
"333 198 CURVE SMOOTH",
"333 97 OFFCURVE",
"256 62 OFFCURVE",
"192 62 CURVE SMOOTH"
);
},
{
closed = 1;
nodes = (
"457 387 OFFCURVE",
"505 420 OFFCURVE",
"573 420 CURVE SMOOTH",
"642 420 OFFCURVE",
"682 386 OFFCURVE",
"682 307 CURVE",
"436 307 LINE"
);
}
);
width = 798;
},
{
anchors = (
{
name = bottom;
position = "{397, 0}";
},
{
name = top;
position = "{397, 490}";
}
);
associatedMasterId = "7C863538-AAB4-42AD-A9FE-7240E615272A";
layerId = "9062C98E-0361-4EF3-B372-A1981F98AC62";
name = "Bold Sep 15 16, 19:10";
paths = (
{
closed = 1;
nodes = (
"277 -15 OFFCURVE",
"334 28 OFFCURVE",
"378 84 CURVE",
"409 28 OFFCURVE",
"477 -10 OFFCURVE",
"578 -10 CURVE SMOOTH",
"648 -10 OFFCURVE",
"706 8 OFFCURVE",
"744 28 CURVE",
"738 133 LINE",
"697 111 OFFCURVE",
"631 92 OFFCURVE",
"584 92 CURVE SMOOTH",
"518 92 OFFCURVE",
"455 130 OFFCURVE",
"441 223 CURVE",
"758 223 LINE",
"763 247 OFFCURVE",
"766 268 OFFCURVE",
"766 293 CURVE SMOOTH",
"766 424 OFFCURVE",
"684 508 OFFCURVE",
"568 508 CURVE SMOOTH",
"482 508 OFFCURVE",
"411 462 OFFCURVE",
"395 419 CURVE",
"371 488 OFFCURVE",
"320 508 OFFCURVE",
"244 508 CURVE SMOOTH",
"184 508 OFFCURVE",
"123 493 OFFCURVE",
"63 464 CURVE",
"74 363 LINE",
"127 389 OFFCURVE",
"166 401 OFFCURVE",
"211 401 CURVE SMOOTH",
"277 401 OFFCURVE",
"299 375 OFFCURVE",
"302 314 CURVE",
"203 309 OFFCURVE",
"20 281 OFFCURVE",
"20 127 CURVE SMOOTH",
"20 40 OFFCURVE",
"79 -15 OFFCURVE",
"184 -15 CURVE SMOOTH"
);
},
{
closed = 1;
nodes = (
"177 81 OFFCURVE",
"150 103 OFFCURVE",
"150 138 CURVE SMOOTH",
"150 204 OFFCURVE",
"243 229 OFFCURVE",
"310 230 CURVE",
"311 219 OFFCURVE",
"311 213 OFFCURVE",
"311 202 CURVE SMOOTH",
"311 122 OFFCURVE",
"255 81 OFFCURVE",
"210 81 CURVE SMOOTH"
);
},
{
closed = 1;
nodes = (
"456 365 OFFCURVE",
"503 406 OFFCURVE",
"564 406 CURVE SMOOTH",
"633 406 OFFCURVE",
"655 352 OFFCURVE",
"655 307 CURVE",
"444 307 LINE"
);
}
);
width = 794;
},
{
anchors = (
{
name = top;
position = "{355, 490}";
}
);
layerId = "A616F07E-65DE-4D07-A020-83605E49AA22";
paths = (
{
closed = 1;
nodes = (
"249 -10 OFFCURVE",
"295 38 OFFCURVE",
"344 103 CURVE",
"303 151 LINE",
"275 99 OFFCURVE",
"235 62 OFFCURVE",
"186 62 CURVE SMOOTH",
"144 62 OFFCURVE",
"117 90 OFFCURVE",
"117 133 CURVE SMOOTH",
"117 209 OFFCURVE",
"188 245 OFFCURVE",
"291 245 CURVE SMOOTH",
"662 245 LINE",
"664 261 OFFCURVE",
"666 279 OFFCURVE",
"666 293 CURVE SMOOTH",
"666 425 OFFCURVE",
"594 500 OFFCURVE",
"496 500 CURVE SMOOTH",
"416 500 OFFCURVE",
"361 463 OFFCURVE",
"324 405 CURVE",
"345 405 LINE",
"323 471 OFFCURVE",
"278 500 OFFCURVE",
"207 500 CURVE SMOOTH",
"153 500 OFFCURVE",
"102 482 OFFCURVE",
"61 449 CURVE",
"72 376 LINE",
"113 406 OFFCURVE",
"150 420 OFFCURVE",
"190 420 CURVE SMOOTH",
"249 420 OFFCURVE",
"275 394 OFFCURVE",
"275 313 CURVE SMOOTH",
"275 249 LINE SMOOTH",
"275 108 OFFCURVE",
"354 -10 OFFCURVE",
"507 -10 CURVE SMOOTH",
"563 -10 OFFCURVE",
"612 1 OFFCURVE",
"647 20 CURVE",
"639 99 LINE",
"602 79 OFFCURVE",
"552 70 OFFCURVE",
"513 70 CURVE SMOOTH",
"428 70 OFFCURVE",
"365 130 OFFCURVE",
"365 256 CURVE SMOOTH",
"365 368 OFFCURVE",
"412 420 OFFCURVE",
"482 420 CURVE SMOOTH",
"546 420 OFFCURVE",
"576 371 OFFCURVE",
"576 307 CURVE",
"296 307 LINE SMOOTH",
"159 307 OFFCURVE",
"24 270 OFFCURVE",
"24 132 CURVE SMOOTH",
"24 47 OFFCURVE",
"83 -10 OFFCURVE",
"166 -10 CURVE SMOOTH"
);
}
);
width = 687;
},
{
anchors = (
{
name = top;
position = "{337, 500}";
}
);
layerId = "3AF73D1F-32CE-4CF3-BC01-E4A23F7DE30A";
paths = (
{
closed = 1;
nodes = (
"226 -10 OFFCURVE",
"273 27 OFFCURVE",
"321 81 CURVE",
"285 141 LINE",
"254 105 OFFCURVE",
"221 85 OFFCURVE",
"186 85 CURVE SMOOTH",
"159 85 OFFCURVE",
"138 100 OFFCURVE",
"138 141 CURVE SMOOTH",
"138 195 OFFCURVE",
"194 223 OFFCURVE",
"275 223 CURVE SMOOTH",
"648 223 LINE",
"652 248 OFFCURVE",
"654 269 OFFCURVE",
"654 292 CURVE SMOOTH",
"654 412 OFFCURVE",
"600 508 OFFCURVE",
"481 508 CURVE SMOOTH",
"403 508 OFFCURVE",
"344 470 OFFCURVE",
"309 408 CURVE",
"347 409 LINE",
"323 479 OFFCURVE",
"274 508 OFFCURVE",
"210 508 CURVE SMOOTH",
"157 508 OFFCURVE",
"102 493 OFFCURVE",
"49 464 CURVE",
"57 363 LINE",
"100 387 OFFCURVE",
"136 401 OFFCURVE",
"178 401 CURVE SMOOTH",
"232 401 OFFCURVE",
"253 377 OFFCURVE",
"254 322 CURVE SMOOTH",
"255 250 LINE SMOOTH",
"255 109 OFFCURVE",
"332 -10 OFFCURVE",
"490 -10 CURVE SMOOTH",
"551 -10 OFFCURVE",
"600 4 OFFCURVE",
"635 23 CURVE",
"632 128 LINE",
"597 105 OFFCURVE",
"554 88 OFFCURVE",
"503 88 CURVE SMOOTH",
"434 88 OFFCURVE",
"377 136 OFFCURVE",
"377 255 CURVE SMOOTH",
"377 356 OFFCURVE",
"406 410 OFFCURVE",
"463 410 CURVE SMOOTH",
"517 410 OFFCURVE",
"533 364 OFFCURVE",
"533 307 CURVE",
"278 307 LINE SMOOTH",
"166 307 OFFCURVE",
"12 270 OFFCURVE",
"12 129 CURVE SMOOTH",
"12 37 OFFCURVE",
"76 -10 OFFCURVE",
"148 -10 CURVE SMOOTH"
);
}
);
width = 679;
},
{
associatedMasterId = "A616F07E-65DE-4D07-A020-83605E49AA22";
layerId = "BE019A15-C189-4AA4-BFDE-A3A57773425A";
name = "Condensed Sep 22 16, 01:09";
paths = (
{
closed = 1;
nodes = (
"231 -14 OFFCURVE",
"292 25 OFFCURVE",
"325 103 CURVE",
"355 22 OFFCURVE",
"414 -10 OFFCURVE",
"497 -10 CURVE SMOOTH",
"556 -10 OFFCURVE",
"600 8 OFFCURVE",
"639 30 CURVE",
"628 99 LINE",
"586 76 OFFCURVE",
"546 62 OFFCURVE",
"506 62 CURVE SMOOTH",
"434 62 OFFCURVE",
"377 122 OFFCURVE",
"372 245 CURVE",
"654 245 LINE",
"656 261 OFFCURVE",
"659 279 OFFCURVE",
"659 300 CURVE SMOOTH",
"659 429 OFFCURVE",
"591 500 OFFCURVE",
"492 500 CURVE SMOOTH",
"423 500 OFFCURVE",
"356 469 OFFCURVE",
"336 380 CURVE",
"318 481 OFFCURVE",
"252 500 OFFCURVE",
"202 500 CURVE SMOOTH",
"158 500 OFFCURVE",
"109 487 OFFCURVE",
"59 461 CURVE",
"67 391 LINE",
"108 410 OFFCURVE",
"140 420 OFFCURVE",
"177 420 CURVE SMOOTH",
"239 420 OFFCURVE",
"262 387 OFFCURVE",
"269 307 CURVE",
"173 301 OFFCURVE",
"17 270 OFFCURVE",
"17 118 CURVE SMOOTH",
"17 38 OFFCURVE",
"63 -14 OFFCURVE",
"151 -14 CURVE SMOOTH"
);
},
{
closed = 1;
nodes = (
"137 62 OFFCURVE",
"110 79 OFFCURVE",
"110 126 CURVE SMOOTH",
"110 215 OFFCURVE",
"205 245 OFFCURVE",
"276 245 CURVE",
"276 245 LINE",
"277 227 OFFCURVE",
"277 211 OFFCURVE",
"277 198 CURVE SMOOTH",
"277 97 OFFCURVE",
"219 62 OFFCURVE",
"170 62 CURVE SMOOTH"
);
},
{
closed = 1;
nodes = (
"391 387 OFFCURVE",
"432 420 OFFCURVE",
"488 420 CURVE SMOOTH",
"488 420 LINE SMOOTH",
"548 420 OFFCURVE",
"576 386 OFFCURVE",
"576 307 CURVE",
"377 307 LINE"
);
}
);
width = 683;
},
{
associatedMasterId = "3AF73D1F-32CE-4CF3-BC01-E4A23F7DE30A";
layerId = "9D5AD6A4-A9A5-4B17-BB5C-C2E4E0DEEF4B";
name = "Bold Condensed Sep 22 16, 01:09";
paths = (
{
closed = 1;
nodes = (
"244 -15 OFFCURVE",
"284 28 OFFCURVE",
"325 84 CURVE",
"349 28 OFFCURVE",
"407 -10 OFFCURVE",
"497 -10 CURVE SMOOTH",
"558 -10 OFFCURVE",
"612 8 OFFCURVE",
"640 28 CURVE",
"639 133 LINE",
"609 111 OFFCURVE",
"539 92 OFFCURVE",
"499 92 CURVE SMOOTH",
"454 92 OFFCURVE",
"402 130 OFFCURVE",
"385 223 CURVE",
"650 223 LINE",
"656 247 OFFCURVE",
"659 268 OFFCURVE",
"659 293 CURVE SMOOTH",
"659 424 OFFCURVE",
"586 508 OFFCURVE",
"486 508 CURVE SMOOTH",
"408 508 OFFCURVE",
"351 462 OFFCURVE",
"342 419 CURVE",
"319 488 OFFCURVE",
"292 508 OFFCURVE",
"215 508 CURVE SMOOTH",
"158 508 OFFCURVE",
"103 493 OFFCURVE",
"50 464 CURVE",
"61 363 LINE",
"110 389 OFFCURVE",
"144 401 OFFCURVE",
"184 401 CURVE SMOOTH",
"238 401 OFFCURVE",
"253 375 OFFCURVE",
"252 314 CURVE",
"175 309 OFFCURVE",
"17 281 OFFCURVE",
"17 127 CURVE SMOOTH",
"17 40 OFFCURVE",
"71 -15 OFFCURVE",
"163 -15 CURVE SMOOTH"
);
},
{
closed = 1;
nodes = (
"164 81 OFFCURVE",
"143 103 OFFCURVE",
"143 138 CURVE SMOOTH",
"143 204 OFFCURVE",
"211 229 OFFCURVE",
"259 230 CURVE",
"259 230 LINE",
"260 219 OFFCURVE",
"260 213 OFFCURVE",
"260 202 CURVE SMOOTH",
"260 122 OFFCURVE",
"219 81 OFFCURVE",
"188 81 CURVE SMOOTH"
);
},
{
closed = 1;
nodes = (
"392 365 OFFCURVE",
"432 406 OFFCURVE",
"482 406 CURVE SMOOTH",
"482 406 LINE SMOOTH",
"542 406 OFFCURVE",
"554 352 OFFCURVE",
"554 307 CURVE",
"385 307 LINE"
);
}
);
width = 683;
visible = 1;
}
);
leftKerningGroup = a;
leftMetricsKey = a;
rightKerningGroup = e;
rightMetricsKey = e;
unicode = 00E6;
},
{
glyphname = b;
layers = (
{
layerId = UUID0;
paths = (
{
closed = 1;
nodes = (
"426 -10 OFFCURVE",
"523 102 OFFCURVE",
"523 245 CURVE SMOOTH",
"523 379 OFFCURVE",
"439 500 OFFCURVE",
"302 500 CURVE SMOOTH",
"231 500 OFFCURVE",
"164 462 OFFCURVE",
"131 408 CURVE",
"150 394 LINE",
"150 750 LINE",
"60 750 LINE",
"60 0 LINE",
"140 0 LINE",
"157 104 LINE",
"135 88 LINE",
"160 23 OFFCURVE",
"233 -10 OFFCURVE",
"302 -10 CURVE SMOOTH"
);
},
{
closed = 1;
nodes = (
"214 70 OFFCURVE",
"145 122 OFFCURVE",
"145 245 CURVE SMOOTH",
"145 363 OFFCURVE",
"214 420 OFFCURVE",
"291 420 CURVE SMOOTH",
"377 420 OFFCURVE",
"431 345 OFFCURVE",
"431 245 CURVE SMOOTH",
"431 149 OFFCURVE",
"377 70 OFFCURVE",
"291 70 CURVE SMOOTH"
);
}
);
width = 555;
},
{
layerId = "7C863538-AAB4-42AD-A9FE-7240E615272A";
paths = (
{
closed = 1;
nodes = (
"465 -10 OFFCURVE",
"543 109 OFFCURVE",
"543 249 CURVE SMOOTH",
"543 389 OFFCURVE",
"465 508 OFFCURVE",
"318 508 CURVE SMOOTH",
"248 508 OFFCURVE",
"195 481 OFFCURVE",
"151 436 CURVE",
"181 417 LINE",
"181 750 LINE",
"57 750 LINE",
"57 0 LINE",
"173 0 LINE",
"179 85 LINE",
"142 59 LINE",
"190 16 OFFCURVE",
"242 -10 OFFCURVE",
"318 -10 CURVE SMOOTH"
);
},
{
closed = 1;
nodes = (
"213 92 OFFCURVE",
"175 156 OFFCURVE",
"175 249 CURVE SMOOTH",
"175 342 OFFCURVE",
"213 406 OFFCURVE",
"300 406 CURVE SMOOTH",
"374 406 OFFCURVE",
"416 342 OFFCURVE",
"416 249 CURVE SMOOTH",
"416 156 OFFCURVE",
"374 92 OFFCURVE",
"300 92 CURVE SMOOTH"
);
}
);
width = 571;
},
{
associatedMasterId = UUID0;
layerId = "A3D91B1D-814B-4AFB-844B-25A91C0F52B2";
name = "Regular Sep 7 16, 14:04";
paths = (
{
closed = 1;
nodes = (
"426 -10 OFFCURVE",
"523 102 OFFCURVE",
"523 245 CURVE SMOOTH",
"523 379 OFFCURVE",
"439 500 OFFCURVE",
"302 500 CURVE SMOOTH",
"258 500 OFFCURVE",
"192 488 OFFCURVE",
"150 437 CURVE",
"150 750 LINE",
"60 750 LINE",
"60 0 LINE",
"140 0 LINE",
"150 62 LINE",
"187 14 OFFCURVE",
"257 -10 OFFCURVE",
"301 -10 CURVE SMOOTH"
);
},
{
closed = 1;
nodes = (
"219 70 OFFCURVE",
"145 122 OFFCURVE",
"145 245 CURVE SMOOTH",
"145 363 OFFCURVE",
"219 420 OFFCURVE",
"291 420 CURVE SMOOTH",
"377 420 OFFCURVE",
"431 345 OFFCURVE",
"431 245 CURVE SMOOTH",
"431 149 OFFCURVE",
"377 70 OFFCURVE",
"291 70 CURVE SMOOTH"
);
}
);
width = 555;
},
{
associatedMasterId = "7C863538-AAB4-42AD-A9FE-7240E615272A";
layerId = "5568EE20-7872-4EA6-A4D6-D8B3E18D13AF";
name = "Bold Sep 7 16, 14:04";
paths = (
{
closed = 1;
nodes = (
"458 -10 OFFCURVE",
"543 109 OFFCURVE",
"543 249 CURVE SMOOTH",
"543 389 OFFCURVE",
"458 508 OFFCURVE",
"298 508 CURVE SMOOTH",
"246 508 OFFCURVE",
"213 496 OFFCURVE",
"181 475 CURVE",
"181 750 LINE",
"57 750 LINE",
"57 0 LINE",
"173 0 LINE",
"175 28 LINE",
"210 4 OFFCURVE",
"243 -10 OFFCURVE",
"298 -10 CURVE SMOOTH"
);
},
{
closed = 1;
nodes = (
"210 92 OFFCURVE",
"175 156 OFFCURVE",
"175 249 CURVE SMOOTH",
"175 342 OFFCURVE",
"210 406 OFFCURVE",
"290 406 CURVE SMOOTH",
"370 406 OFFCURVE",
"416 342 OFFCURVE",
"416 249 CURVE SMOOTH",
"416 156 OFFCURVE",
"370 92 OFFCURVE",
"290 92 CURVE SMOOTH"
);
}
);
width = 571;
},
{
anchors = (
{
name = bottom;
position = "{246, 0}";
},
{
name = top;
position = "{94, 750}";
}
);
layerId = "A616F07E-65DE-4D07-A020-83605E49AA22";
paths = (
{
closed = 1;
nodes = (
"382 -10 OFFCURVE",
"458 102 OFFCURVE",
"458 245 CURVE SMOOTH",
"458 379 OFFCURVE",
"388 500 OFFCURVE",
"266 500 CURVE SMOOTH",
"198 500 OFFCURVE",
"146 464 OFFCURVE",
"111 408 CURVE",
"138 394 LINE",
"138 750 LINE",
"50 750 LINE",
"50 0 LINE",
"130 0 LINE",
"138 105 LINE",
"111 87 LINE",
"136 23 OFFCURVE",
"198 -10 OFFCURVE",
"266 -10 CURVE SMOOTH"
);
},
{
closed = 1;
nodes = (
"182 68 OFFCURVE",
"130 121 OFFCURVE",
"130 245 CURVE SMOOTH",
"130 364 OFFCURVE",
"182 422 OFFCURVE",
"250 422 CURVE SMOOTH",
"323 422 OFFCURVE",
"368 346 OFFCURVE",
"368 245 CURVE SMOOTH",
"368 148 OFFCURVE",
"323 68 OFFCURVE",
"250 68 CURVE SMOOTH"
);
}
);
width = 492;
},
{
anchors = (
{
name = bottom;
position = "{247, 0}";
},
{
name = top;
position = "{110, 750}";
}
);
layerId = "3AF73D1F-32CE-4CF3-BC01-E4A23F7DE30A";
paths = (
{
closed = 1;
nodes = (
"411 -10 OFFCURVE",
"478 109 OFFCURVE",
"478 249 CURVE SMOOTH",
"478 389 OFFCURVE",
"411 508 OFFCURVE",
"285 508 CURVE SMOOTH",
"223 508 OFFCURVE",
"176 479 OFFCURVE",
"144 436 CURVE",
"170 417 LINE",
"170 750 LINE",
"50 750 LINE",
"50 0 LINE",
"162 0 LINE",
"168 85 LINE",
"138 64 LINE",
"174 18 OFFCURVE",
"222 -10 OFFCURVE",
"285 -10 CURVE SMOOTH"
);
},
{
closed = 1;
nodes = (
"194 88 OFFCURVE",
"164 154 OFFCURVE",
"164 249 CURVE SMOOTH",
"164 344 OFFCURVE",
"194 410 OFFCURVE",
"262 410 CURVE SMOOTH",
"322 410 OFFCURVE",
"356 344 OFFCURVE",
"356 249 CURVE SMOOTH",
"356 154 OFFCURVE",
"322 88 OFFCURVE",
"262 88 CURVE SMOOTH"
);
}
);
width = 493;
},
{
associatedMasterId = "A616F07E-65DE-4D07-A020-83605E49AA22";
layerId = "675073AB-B668-48B2-B861-8D69A0563793";
name = "Condensed Sep 19 16, 18:47";
paths = (
{
closed = 1;
nodes = (
"382 -10 OFFCURVE",
"458 102 OFFCURVE",
"458 245 CURVE SMOOTH",
"458 379 OFFCURVE",
"388 500 OFFCURVE",
"266 500 CURVE SMOOTH",
"201 500 OFFCURVE",
"148 464 OFFCURVE",
"116 408 CURVE",
"140 394 LINE",
"140 750 LINE",
"50 750 LINE",
"50 0 LINE",
"132 0 LINE",
"140 105 LINE",
"116 87 LINE",
"140 23 OFFCURVE",
"200 -10 OFFCURVE",
"266 -10 CURVE SMOOTH"
);
},
{
closed = 1;
nodes = (
"185 70 OFFCURVE",
"135 122 OFFCURVE",
"135 245 CURVE SMOOTH",
"135 363 OFFCURVE",
"185 420 OFFCURVE",
"250 420 CURVE SMOOTH",
"321 420 OFFCURVE",
"365 345 OFFCURVE",
"365 245 CURVE SMOOTH",
"365 149 OFFCURVE",
"321 70 OFFCURVE",
"250 70 CURVE SMOOTH"
);
}
);
width = 492;
},
{
associatedMasterId = "3AF73D1F-32CE-4CF3-BC01-E4A23F7DE30A";
layerId = "6D6AFF2B-D360-4F75-A112-177122F6CBEB";
name = "Bold Condensed Sep 19 16, 18:47";
paths = (
{
closed = 1;
nodes = (
"413 -10 OFFCURVE",
"478 99 OFFCURVE",
"478 249 CURVE SMOOTH",
"478 399 OFFCURVE",
"413 508 OFFCURVE",
"288 508 CURVE SMOOTH",
"224 508 OFFCURVE",
"174 485 OFFCURVE",
"135 438 CURVE",
"169 417 LINE",
"169 750 LINE",
"50 750 LINE",
"50 0 LINE",
"163 0 LINE",
"160 86 LINE",
"135 73 LINE",
"169 17 OFFCURVE",
"219 -10 OFFCURVE",
"288 -10 CURVE SMOOTH"
);
},
{
closed = 1;
nodes = (
"198 92 OFFCURVE",
"164 151 OFFCURVE",
"164 249 CURVE SMOOTH",
"164 347 OFFCURVE",
"198 406 OFFCURVE",
"259 406 CURVE SMOOTH",
"321 406 OFFCURVE",
"354 347 OFFCURVE",
"354 249 CURVE SMOOTH",
"354 151 OFFCURVE",
"321 92 OFFCURVE",
"259 92 CURVE SMOOTH"
);
}
);
width = 493;
visible = 1;
}
);
leftKerningGroup = h;
rightKerningGroup = b;
unicode = 0062;
},
{
glyphname = c;
layers = (
{
anchors = (
{
name = bottom;
position = "{265, 0}";
},
{
name = top;
position = "{272, 490}";
}
);
layerId = UUID0;
paths = (
{
closed = 1;
nodes = (
"343 -10 OFFCURVE",
"399 8 OFFCURVE",
"426 27 CURVE",
"414 99 LINE",
"376 80 OFFCURVE",
"334 69 OFFCURVE",
"289 69 CURVE SMOOTH",
"178 69 OFFCURVE",
"125 139 OFFCURVE",
"125 246 CURVE SMOOTH",
"125 355 OFFCURVE",
"183 420 OFFCURVE",
"291 420 CURVE SMOOTH",
"335 420 OFFCURVE",
"376 409 OFFCURVE",
"413 392 CURVE",
"427 471 LINE",
"391 489 OFFCURVE",
"344 500 OFFCURVE",
"293 500 CURVE SMOOTH",
"114 500 OFFCURVE",
"33 388 OFFCURVE",
"33 242 CURVE SMOOTH",
"33 102 OFFCURVE",
"120 -10 OFFCURVE",
"286 -10 CURVE SMOOTH"
);
}
);
width = 454;
},
{
anchors = (
{
name = bottom;
position = "{273, 0}";
},
{
name = top;
position = "{271, 500}";
}
);
layerId = "7C863538-AAB4-42AD-A9FE-7240E615272A";
paths = (
{
closed = 1;
nodes = (
"344 -10 OFFCURVE",
"395 2 OFFCURVE",
"430 20 CURVE",
"419 125 LINE",
"383 104 OFFCURVE",
"344 92 OFFCURVE",
"305 92 CURVE SMOOTH",
"213 92 OFFCURVE",
"155 160 OFFCURVE",
"155 249 CURVE SMOOTH",
"155 342 OFFCURVE",
"210 406 OFFCURVE",
"306 406 CURVE SMOOTH",
"348 406 OFFCURVE",
"387 394 OFFCURVE",
"418 378 CURVE",
"428 478 LINE",
"396 496 OFFCURVE",
"350 510 OFFCURVE",
"294 510 CURVE SMOOTH",
"116 510 OFFCURVE",
"28 392 OFFCURVE",
"28 249 CURVE SMOOTH",
"28 107 OFFCURVE",
"118 -10 OFFCURVE",
"290 -10 CURVE SMOOTH"
);
}
);
width = 455;
},
{
associatedMasterId = UUID0;
layerId = "4217E9DC-BD9A-4C17-AB54-9CC835F9CAF7";
name = "Regular Sep 7 16, 14:04";
paths = (
{
closed = 1;
nodes = (
"356 -10 OFFCURVE",
"397 8 OFFCURVE",
"426 27 CURVE",
"414 99 LINE",
"375 80 OFFCURVE",
"332 69 OFFCURVE",
"286 69 CURVE SMOOTH",
"177 69 OFFCURVE",
"125 139 OFFCURVE",
"125 246 CURVE SMOOTH",
"125 355 OFFCURVE",
"177 420 OFFCURVE",
"286 420 CURVE SMOOTH",
"332 420 OFFCURVE",
"374 409 OFFCURVE",
"413 390 CURVE",
"427 471 LINE",
"398 487 OFFCURVE",
"350 500 OFFCURVE",
"276 500 CURVE SMOOTH",
"113 500 OFFCURVE",
"33 389 OFFCURVE",
"33 246 CURVE SMOOTH",
"33 109 OFFCURVE",
"114 -10 OFFCURVE",
"277 -10 CURVE"
);
}
);
width = 454;
},
{
associatedMasterId = "7C863538-AAB4-42AD-A9FE-7240E615272A";
layerId = "5D6F1FAE-6F2E-4886-A768-B03801F9D6CA";
name = "Bold Sep 7 16, 14:04";
paths = (
{
closed = 1;
nodes = (
"351 -10 OFFCURVE",
"389 7 OFFCURVE",
"421 27 CURVE",
"410 133 LINE",
"369 106 OFFCURVE",
"329 92 OFFCURVE",
"281 92 CURVE SMOOTH",
"201 92 OFFCURVE",
"155 156 OFFCURVE",
"155 249 CURVE SMOOTH",
"155 342 OFFCURVE",
"201 406 OFFCURVE",
"281 406 CURVE SMOOTH",
"329 406 OFFCURVE",
"369 392 OFFCURVE",
"410 365 CURVE",
"421 471 LINE",
"389 491 OFFCURVE",
"351 508 OFFCURVE",
"271 508 CURVE SMOOTH",
"111 508 OFFCURVE",
"28 389 OFFCURVE",
"28 249 CURVE SMOOTH",
"28 109 OFFCURVE",
"111 -10 OFFCURVE",
"271 -10 CURVE"
);
}
);
width = 448;
},
{
anchors = (
{
name = bottom;
position = "{231, 0}";
},
{
name = top;
position = "{233, 490}";
}
);
guideLines = (
{
angle = 90;
position = "{362, 471}";
}
);
layerId = "A616F07E-65DE-4D07-A020-83605E49AA22";
paths = (
{
closed = 1;
nodes = (
"294 -10 OFFCURVE",
"336 0 OFFCURVE",
"362 13 CURVE",
"350 91 LINE",
"322 75 OFFCURVE",
"292 68 OFFCURVE",
"259 68 CURVE SMOOTH",
"167 68 OFFCURVE",
"114 138 OFFCURVE",
"114 246 CURVE SMOOTH",
"114 356 OFFCURVE",
"167 422 OFFCURVE",
"256 422 CURVE SMOOTH",
"290 422 OFFCURVE",
"321 413 OFFCURVE",
"349 398 CURVE",
"363 475 LINE",
"334 490 OFFCURVE",
"295 500 OFFCURVE",
"254 500 CURVE SMOOTH",
"96 500 OFFCURVE",
"24 388 OFFCURVE",
"24 242 CURVE SMOOTH",
"24 102 OFFCURVE",
"96 -10 OFFCURVE",
"252 -10 CURVE SMOOTH"
);
}
);
width = 385;
},
{
anchors = (
{
name = bottom;
position = "{243, 0}";
},
{
name = top;
position = "{235, 500}";
}
);
guideLines = (
{
angle = 90;
position = "{362, 471}";
}
);
layerId = "3AF73D1F-32CE-4CF3-BC01-E4A23F7DE30A";
paths = (
{
closed = 1;
nodes = (
"299 -10 OFFCURVE",
"337 -2 OFFCURVE",
"362 10 CURVE",
"354 106 LINE",
"330 94 OFFCURVE",
"306 88 OFFCURVE",
"277 88 CURVE SMOOTH",
"192 88 OFFCURVE",
"146 158 OFFCURVE",
"146 249 CURVE SMOOTH",
"146 344 OFFCURVE",
"194 410 OFFCURVE",
"278 410 CURVE SMOOTH",
"306 410 OFFCURVE",
"330 403 OFFCURVE",
"351 393 CURVE",
"360 491 LINE",
"337 501 OFFCURVE",
"304 508 OFFCURVE",
"264 508 CURVE SMOOTH",
"103 508 OFFCURVE",
"24 391 OFFCURVE",
"24 249 CURVE SMOOTH",
"24 107 OFFCURVE",
"105 -10 OFFCURVE",
"260 -10 CURVE SMOOTH"
);
}
);
width = 385;
},
{
associatedMasterId = "A616F07E-65DE-4D07-A020-83605E49AA22";
layerId = "5DC6DF8D-F9EB-42F2-894F-D5E1B4957D5B";
name = "Condensed Sep 19 16, 18:47";
paths = (
{
closed = 1;
nodes = (
"302 -10 OFFCURVE",
"336 8 OFFCURVE",
"362 27 CURVE",
"352 99 LINE",
"318 80 OFFCURVE",
"282 69 OFFCURVE",
"242 69 CURVE SMOOTH",
"158 69 OFFCURVE",
"116 139 OFFCURVE",
"116 246 CURVE SMOOTH",
"116 355 OFFCURVE",
"158 420 OFFCURVE",
"242 420 CURVE SMOOTH",
"282 420 OFFCURVE",
"317 409 OFFCURVE",
"352 390 CURVE",
"362 471 LINE",
"336 487 OFFCURVE",
"299 500 OFFCURVE",
"233 500 CURVE SMOOTH",
"94 500 OFFCURVE",
"24 389 OFFCURVE",
"24 246 CURVE SMOOTH",
"24 109 OFFCURVE",
"94 -10 OFFCURVE",
"233 -10 CURVE SMOOTH",
"233 -10 LINE"
);
}
);
width = 385;
},
{
associatedMasterId = "3AF73D1F-32CE-4CF3-BC01-E4A23F7DE30A";
layerId = "A94F3E00-B464-43B2-836D-43E79C739A5C";
name = "Bold Condensed Sep 19 16, 18:47";
paths = (
{
closed = 1;
nodes = (
"302 -10 OFFCURVE",
"333 7 OFFCURVE",
"362 27 CURVE",
"353 133 LINE",
"317 106 OFFCURVE",
"284 92 OFFCURVE",
"242 92 CURVE SMOOTH",
"184 92 OFFCURVE",
"146 156 OFFCURVE",
"146 249 CURVE SMOOTH",
"146 342 OFFCURVE",
"184 406 OFFCURVE",
"242 406 CURVE SMOOTH",
"284 406 OFFCURVE",
"317 392 OFFCURVE",
"353 365 CURVE",
"362 471 LINE",
"333 491 OFFCURVE",
"304 508 OFFCURVE",
"233 508 CURVE SMOOTH",
"96 508 OFFCURVE",
"24 389 OFFCURVE",
"24 249 CURVE SMOOTH",
"24 109 OFFCURVE",
"96 -10 OFFCURVE",
"233 -10 CURVE SMOOTH",
"233 -10 LINE"
);
}
);
width = 385;
visible = 1;
}
);
leftKerningGroup = o;
rightKerningGroup = c;
unicode = 0063;
},
{
glyphname = d;
layers = (
{
anchors = (
{
name = bottom;
position = "{278, 0}";
},
{
name = center;
position = "{395, 627}";
},
{
name = top;
position = "{278, 490}";
},
{
name = topright;
position = "{545, 750}";
}
);
layerId = UUID0;
paths = (
{
closed = 1;
nodes = (
"325 -10 OFFCURVE",
"392 23 OFFCURVE",
"421 88 CURVE",
"398 104 LINE",
"415 0 LINE",
"495 0 LINE",
"495 750 LINE",
"405 750 LINE",
"405 395 LINE",
"424 408 LINE",
"386 474 OFFCURVE",
"320 500 OFFCURVE",
"255 500 CURVE SMOOTH",
"118 500 OFFCURVE",
"32 379 OFFCURVE",
"32 244 CURVE SMOOTH",
"32 102 OFFCURVE",
"130 -10 OFFCURVE",
"255 -10 CURVE SMOOTH"
);
},
{
closed = 1;
nodes = (
"179 70 OFFCURVE",
"124 149 OFFCURVE",
"124 244 CURVE SMOOTH",
"124 345 OFFCURVE",
"179 420 OFFCURVE",
"271 420 CURVE SMOOTH",
"339 420 OFFCURVE",
"415 360 OFFCURVE",
"415 244 CURVE SMOOTH",
"415 119 OFFCURVE",
"339 70 OFFCURVE",
"271 70 CURVE SMOOTH"
);
}
);
width = 555;
},
{
anchors = (
{
name = bottom;
position = "{286, 0}";
},
{
name = center;
position = "{420, 639}";
},
{
name = top;
position = "{286, 500}";
},
{
name = topright;
position = "{559, 750}";
}
);
layerId = "7C863538-AAB4-42AD-A9FE-7240E615272A";
paths = (
{
closed = 1;
nodes = (
"336 -10 OFFCURVE",
"380 16 OFFCURVE",
"427 59 CURVE",
"391 85 LINE",
"397 0 LINE",
"514 0 LINE",
"514 750 LINE",
"390 750 LINE",
"390 417 LINE",
"420 443 LINE",
"381 481 OFFCURVE",
"333 508 OFFCURVE",
"260 508 CURVE SMOOTH",
"108 508 OFFCURVE",
"28 389 OFFCURVE",
"28 249 CURVE SMOOTH",
"28 109 OFFCURVE",
"108 -10 OFFCURVE",
"260 -10 CURVE SMOOTH"
);
},
{
closed = 1;
nodes = (
"200 92 OFFCURVE",
"155 156 OFFCURVE",
"155 249 CURVE SMOOTH",
"155 342 OFFCURVE",
"200 406 OFFCURVE",
"278 406 CURVE SMOOTH",
"360 406 OFFCURVE",
"396 342 OFFCURVE",
"396 249 CURVE SMOOTH",
"396 156 OFFCURVE",
"360 92 OFFCURVE",
"278 92 CURVE SMOOTH"
);
}
);
width = 571;
},
{
anchors = (
{
name = bottom;
position = "{278, 0}";
},
{
name = center;
position = "{395, 627}";
},
{
name = top;
position = "{278, 490}";
},
{
name = topright;
position = "{535, 490}";
}
);
associatedMasterId = UUID0;
layerId = "4C0BDCFF-CB6F-40AF-A3C1-5091FF562E27";
name = "Regular Sep 7 16, 14:04";
paths = (
{
closed = 1;
nodes = (
"299 -10 OFFCURVE",
"368 14 OFFCURVE",
"405 62 CURVE",
"415 0 LINE",
"495 0 LINE",
"495 750 LINE",
"405 750 LINE",
"405 438 LINE",
"363 489 OFFCURVE",
"299 500 OFFCURVE",
"255 500 CURVE SMOOTH",
"118 500 OFFCURVE",
"32 379 OFFCURVE",
"32 245 CURVE SMOOTH",
"32 102 OFFCURVE",
"130 -10 OFFCURVE",
"255 -10 CURVE SMOOTH"
);
},
{
closed = 1;
nodes = (
"176 70 OFFCURVE",
"124 149 OFFCURVE",
"124 245 CURVE SMOOTH",
"124 345 OFFCURVE",
"176 420 OFFCURVE",
"262 420 CURVE",
"334 420 OFFCURVE",
"415 360 OFFCURVE",
"415 242 CURVE SMOOTH",
"415 119 OFFCURVE",
"334 70 OFFCURVE",
"262 70 CURVE SMOOTH"
);
}
);
width = 555;
},
{
anchors = (
{
name = bottom;
position = "{286, 0}";
},
{
name = center;
position = "{420, 639}";
},
{
name = top;
position = "{286, 500}";
},
{
name = topright;
position = "{551, 500}";
}
);
associatedMasterId = "7C863538-AAB4-42AD-A9FE-7240E615272A";
layerId = "05375EDB-2E85-4753-8CDA-F2A37F5592C1";
name = "Bold Sep 7 16, 14:04";
paths = (
{
closed = 1;
nodes = (
"327 -10 OFFCURVE",
"360 4 OFFCURVE",
"395 28 CURVE",
"397 0 LINE",
"514 0 LINE",
"514 750 LINE",
"390 750 LINE",
"390 475 LINE",
"358 496 OFFCURVE",
"324 508 OFFCURVE",
"273 508 CURVE SMOOTH",
"113 508 OFFCURVE",
"28 389 OFFCURVE",
"28 249 CURVE SMOOTH",
"28 109 OFFCURVE",
"113 -10 OFFCURVE",
"273 -10 CURVE SMOOTH"
);
},
{
closed = 1;
nodes = (
"201 92 OFFCURVE",
"155 156 OFFCURVE",
"155 249 CURVE SMOOTH",
"155 342 OFFCURVE",
"201 406 OFFCURVE",
"281 406 CURVE",
"361 406 OFFCURVE",
"396 342 OFFCURVE",
"396 249 CURVE SMOOTH",
"396 156 OFFCURVE",
"361 92 OFFCURVE",
"281 92 CURVE SMOOTH"
);
}
);
width = 571;
},
{
anchors = (
{
name = bottom;
position = "{246, 0}";
},
{
name = center;
position = "{354, 628}";
},
{
name = top;
position = "{393, 750}";
},
{
name = topright;
position = "{477, 750}";
}
);
layerId = "A616F07E-65DE-4D07-A020-83605E49AA22";
paths = (
{
closed = 1;
nodes = (
"295 -10 OFFCURVE",
"353 26 OFFCURVE",
"380 90 CURVE",
"342 104 LINE",
"359 0 LINE",
"437 0 LINE",
"437 750 LINE",
"349 750 LINE",
"349 395 LINE",
"382 407 LINE",
"347 465 OFFCURVE",
"296 500 OFFCURVE",
"228 500 CURVE SMOOTH",
"105 500 OFFCURVE",
"29 381 OFFCURVE",
"29 244 CURVE SMOOTH",
"29 100 OFFCURVE",
"112 -10 OFFCURVE",
"228 -10 CURVE SMOOTH"
);
},
{
closed = 1;
nodes = (
"169 68 OFFCURVE",
"119 147 OFFCURVE",
"119 244 CURVE SMOOTH",
"119 347 OFFCURVE",
"169 422 OFFCURVE",
"237 422 CURVE SMOOTH",
"307 422 OFFCURVE",
"357 363 OFFCURVE",
"357 244 CURVE SMOOTH",
"357 120 OFFCURVE",
"306 68 OFFCURVE",
"237 68 CURVE SMOOTH"
);
}
);
width = 492;
},
{
anchors = (
{
name = bottom;
position = "{252, 0}";
},
{
name = center;
position = "{356, 639}";
},
{
name = top;
position = "{383, 750}";
},
{
name = topright;
position = "{483, 750}";
}
);
layerId = "3AF73D1F-32CE-4CF3-BC01-E4A23F7DE30A";
paths = (
{
closed = 1;
nodes = (
"278 -10 OFFCURVE",
"316 16 OFFCURVE",
"356 59 CURVE",
"324 85 LINE",
"330 0 LINE",
"443 0 LINE",
"443 750 LINE",
"323 750 LINE",
"323 417 LINE",
"349 443 LINE",
"316 481 OFFCURVE",
"275 508 OFFCURVE",
"213 508 CURVE SMOOTH",
"85 508 OFFCURVE",
"15 389 OFFCURVE",
"15 249 CURVE SMOOTH",
"15 109 OFFCURVE",
"85 -10 OFFCURVE",
"213 -10 CURVE SMOOTH"
);
},
{
closed = 1;
nodes = (
"171 88 OFFCURVE",
"137 154 OFFCURVE",
"137 249 CURVE SMOOTH",
"137 344 OFFCURVE",
"171 410 OFFCURVE",
"231 410 CURVE SMOOTH",
"299 410 OFFCURVE",
"329 344 OFFCURVE",
"329 249 CURVE SMOOTH",
"329 154 OFFCURVE",
"299 88 OFFCURVE",
"231 88 CURVE SMOOTH"
);
}
);
width = 493;
},
{
anchors = (
{
name = bottom;
position = "{246, 0}";
},
{
name = center;
position = "{354, 628}";
},
{
name = top;
position = "{246, 490}";
},
{
name = topright;
position = "{472, 490}";
}
);
associatedMasterId = "A616F07E-65DE-4D07-A020-83605E49AA22";
layerId = "1FA318F5-6F69-4123-9303-7C987FA8968D";
name = "Condensed Sep 19 16, 18:47";
paths = (
{
closed = 1;
nodes = (
"272 -10 OFFCURVE",
"319 14 OFFCURVE",
"350 62 CURVE",
"355 0 LINE",
"437 0 LINE",
"437 750 LINE",
"348 750 LINE",
"348 438 LINE",
"315 489 OFFCURVE",
"271 500 OFFCURVE",
"231 500 CURVE SMOOTH",
"105 500 OFFCURVE",
"31 379 OFFCURVE",
"31 245 CURVE SMOOTH",
"31 102 OFFCURVE",
"111 -10 OFFCURVE",
"231 -10 CURVE SMOOTH"
);
},
{
closed = 1;
nodes = (
"165 70 OFFCURVE",
"123 149 OFFCURVE",
"123 245 CURVE SMOOTH",
"123 345 OFFCURVE",
"165 420 OFFCURVE",
"237 420 CURVE",
"302 420 OFFCURVE",
"355 360 OFFCURVE",
"355 242 CURVE SMOOTH",
"355 119 OFFCURVE",
"302 70 OFFCURVE",
"237 70 CURVE SMOOTH"
);
}
);
width = 492;
},
{
anchors = (
{
name = bottom;
position = "{246, 0}";
},
{
name = center;
position = "{350, 639}";
},
{
name = top;
position = "{246, 500}";
},
{
name = topright;
position = "{472, 500}";
}
);
associatedMasterId = "3AF73D1F-32CE-4CF3-BC01-E4A23F7DE30A";
layerId = "54F7A269-4B43-4F7E-A1AC-C2389EC65B6D";
name = "Bold Condensed Sep 19 16, 18:47";
paths = (
{
closed = 1;
nodes = (
"288 -10 OFFCURVE",
"303 4 OFFCURVE",
"332 28 CURVE",
"331 0 LINE",
"446 0 LINE",
"446 750 LINE",
"326 750 LINE",
"326 475 LINE",
"302 496 OFFCURVE",
"284 508 OFFCURVE",
"238 508 CURVE SMOOTH",
"92 508 OFFCURVE",
"19 389 OFFCURVE",
"19 249 CURVE SMOOTH",
"19 109 OFFCURVE",
"87 -10 OFFCURVE",
"238 -10 CURVE SMOOTH"
);
},
{
closed = 1;
nodes = (
"179 92 OFFCURVE",
"141 156 OFFCURVE",
"141 249 CURVE SMOOTH",
"141 342 OFFCURVE",
"179 406 OFFCURVE",
"245 406 CURVE",
"317 406 OFFCURVE",
"330 342 OFFCURVE",
"330 249 CURVE SMOOTH",
"330 156 OFFCURVE",
"317 92 OFFCURVE",
"245 92 CURVE SMOOTH"
);
}
);
width = 492;
visible = 1;
}
);
leftKerningGroup = o;
unicode = 0064;
},
